<?xml version="1.0" encoding="UTF-8" standalone="no"?>
<!-- Created with Inkscape (http://www.inkscape.org/) -->

<svg
   xmlns:dc="http://purl.org/dc/elements/1.1/"
   xmlns:cc="http://creativecommons.org/ns#"
   xmlns:rdf="http://www.w3.org/1999/02/22-rdf-syntax-ns#"
   xmlns:svg="http://www.w3.org/2000/svg"
   xmlns="http://www.w3.org/2000/svg"
   xmlns:sodipodi="http://sodipodi.sourceforge.net/DTD/sodipodi-0.dtd"
   xmlns:inkscape="http://www.inkscape.org/namespaces/inkscape"
   width="30"
   height="30"
   id="svg2985"
   version="1.1"
   inkscape:version="0.92.4 (5da689c313, 2019-01-14)"
   sodipodi:docname="Bonsai.Expressions.IncludeWorkflowBuilder.svg">
  <defs
     id="defs2987" />
  <sodipodi:namedview
     id="base"
     pagecolor="#ffffff"
     bordercolor="#666666"
     borderopacity="1.0"
     inkscape:pageopacity="0.0"
     inkscape:pageshadow="2"
     inkscape:zoom="16.000001"
     inkscape:cx="26.329249"
     inkscape:cy="9.1110497"
     inkscape:document-units="mm"
     inkscape:current-layer="layer2"
     showgrid="false"
     inkscape:window-width="2048"
     inkscape:window-height="1017"
     inkscape:window-x="-8"
     inkscape:window-y="-8"
     inkscape:window-maximized="1"
     units="px"
     showguides="true"
     inkscape:guide-bbox="true"
     inkscape:object-paths="true"
     inkscape:snap-global="true">
    <sodipodi:guide
       orientation="0,1"
       position="-17.285156,15.039062"
       id="guide4444"
       inkscape:locked="false" />
    <sodipodi:guide
       orientation="1,6.1230318e-17"
       position="14.941406,41.796875"
       id="guide4446"
       inkscape:locked="false" />
  </sodipodi:namedview>
  <metadata
     id="metadata2990">
    <rdf:RDF>
      <cc:Work
         rdf:about="">
        <dc:format>image/svg+xml</dc:format>
        <dc:type
           rdf:resource="http://purl.org/dc/dcmitype/StillImage" />
        <dc:title />
      </cc:Work>
    </rdf:RDF>
  </metadata>
  <g
     inkscape:groupmode="layer"
     id="layer2"
     inkscape:label="Layer 1">
    <path
       style="color:#000000;font-style:normal;font-variant:normal;font-weight:normal;font-stretch:normal;font-size:medium;line-height:normal;font-family:sans-serif;font-variant-ligatures:normal;font-variant-position:normal;font-variant-caps:normal;font-variant-numeric:normal;font-variant-alternates:normal;font-feature-settings:normal;text-indent:0;text-align:start;text-decoration:none;text-decoration-line:none;text-decoration-style:solid;text-decoration-color:#000000;letter-spacing:normal;word-spacing:normal;text-transform:none;writing-mode:lr-tb;direction:ltr;text-orientation:mixed;dominant-baseline:auto;baseline-shift:baseline;text-anchor:start;white-space:normal;shape-padding:0;clip-rule:nonzero;display:inline;overflow:visible;visibility:visible;opacity:1;isolation:auto;mix-blend-mode:normal;color-interpolation:sRGB;color-interpolation-filters:linearRGB;solid-color:#000000;solid-opacity:1;vector-effect:none;fill-opacity:1;fill-rule:nonzero;stroke:none;stroke-width:2.21644998;stroke-linecap:butt;stroke-linejoin:round;stroke-miterlimit:4;stroke-dasharray:none;stroke-dashoffset:0;stroke-opacity:1;color-rendering:auto;image-rendering:auto;shape-rendering:auto;text-rendering:auto;enable-background:accumulate"
       d="M 10.882812 5.2050781 C 9.1755606 5.2050781 7.765625 6.6150122 7.765625 8.3222656 L 7.765625 20.566406 C 7.765625 22.273658 9.1755606 23.681641 10.882812 23.681641 L 19.648438 23.681641 C 21.35569 23.681641 22.765625 22.273658 22.765625 20.566406 L 22.765625 13.298828 L 18.023438 13.298828 C 16.316184 13.298828 14.90625 11.890846 14.90625 10.183594 L 14.90625 5.2050781 L 10.882812 5.2050781 z M 17.123047 5.859375 L 17.123047 10.183594 C 17.123047 10.701271 17.505759 11.082031 18.023438 11.082031 L 22.128906 11.082031 L 17.123047 5.859375 z M 14.941406 13.679688 C 16.042782 13.679688 16.939453 14.576358 16.939453 15.677734 C 16.939453 16.779109 16.042782 17.675781 14.941406 17.675781 C 13.84003 17.675781 12.943359 16.779109 12.943359 15.677734 C 12.943359 14.576358 13.84003 13.679688 14.941406 13.679688 z M 17.783203 18.238281 C 18.884579 18.238281 19.78125 19.134952 19.78125 20.236328 C 19.78125 21.337704 18.884579 22.234375 17.783203 22.234375 C 16.681827 22.234375 15.785156 21.337704 15.785156 20.236328 C 15.785156 19.134952 16.681827 18.238281 17.783203 18.238281 z M 12.083984 18.253906 C 13.185359 18.253906 14.082031 19.148624 14.082031 20.25 C 14.082031 21.351375 13.185359 22.248047 12.083984 22.248047 C 10.982608 22.248047 10.085938 21.351375 10.085938 20.25 C 10.085938 19.148624 10.982608 18.253906 12.083984 18.253906 z "
       id="path837" />
  </g>
</svg>
