<?xml version="1.0" encoding="UTF-8" standalone="no"?>
<svg
   xmlns:dc="http://purl.org/dc/elements/1.1/"
   xmlns:cc="http://creativecommons.org/ns#"
   xmlns:rdf="http://www.w3.org/1999/02/22-rdf-syntax-ns#"
   xmlns:svg="http://www.w3.org/2000/svg"
   xmlns="http://www.w3.org/2000/svg"
   xmlns:sodipodi="http://sodipodi.sourceforge.net/DTD/sodipodi-0.dtd"
   xmlns:inkscape="http://www.inkscape.org/namespaces/inkscape"
   width="30"
   height="30"
   version="1.1"
   id="svg14"
   sodipodi:docname="Bonsai.Expressions.WindowBuilder.svg"
   inkscape:version="0.92.4 (5da689c313, 2019-01-14)">
  <metadata
     id="metadata20">
    <rdf:RDF>
      <cc:Work
         rdf:about="">
        <dc:format>image/svg+xml</dc:format>
        <dc:type
           rdf:resource="http://purl.org/dc/dcmitype/StillImage" />
        <dc:title></dc:title>
      </cc:Work>
    </rdf:RDF>
  </metadata>
  <defs
     id="defs18" />
  <sodipodi:namedview
     pagecolor="#ffffff"
     bordercolor="#666666"
     borderopacity="1"
     objecttolerance="10"
     gridtolerance="10"
     guidetolerance="10"
     inkscape:pageopacity="0"
     inkscape:pageshadow="2"
     inkscape:window-width="1819"
     inkscape:window-height="1057"
     id="namedview16"
     showgrid="false"
     inkscape:zoom="7.8666667"
     inkscape:cx="-5.6567796"
     inkscape:cy="15"
     inkscape:window-x="93"
     inkscape:window-y="-8"
     inkscape:window-maximized="1"
     inkscape:current-layer="svg14" />
  <g
     fill="none"
     stroke="currentColor"
     stroke-width="2"
     id="g12"
     style="stroke-width:2">
    <path
       d="m17.651 10.264-6.4168 3.8897"
       id="path2" />
    <path
       d="m11.278 15.897 6.4278 3.8963"
       id="path4" />
    <path
       d="m22.319 8.9835c0 1.3809-1.1194 2.5004-2.5003 2.5004s-2.5003-1.1195-2.5003-2.5004c0-1.3808 1.1194-2.5003 2.5003-2.5003s2.5003 1.1195 2.5003 2.5003z"
       id="path6" />
    <path
       d="m22.394 21.065c0 1.3808-1.1194 2.5003-2.5003 2.5003s-2.5003-1.1195-2.5003-2.5003c0-1.3809 1.1194-2.5004 2.5003-2.5004s2.5003 1.1195 2.5003 2.5004z"
       id="path8" />
    <path
       d="m11.413 15.085c0 1.3809-1.1194 2.5004-2.5003 2.5004s-2.5003-1.1195-2.5003-2.5004c0-1.3808 1.1194-2.5004 2.5003-2.5004s2.5003 1.1196 2.5003 2.5004z"
       id="path10" />
  </g>
</svg>
