<?xml version="1.0" encoding="UTF-8" standalone="no"?>
<!-- Created with Inkscape (http://www.inkscape.org/) -->

<svg
   xmlns:dc="http://purl.org/dc/elements/1.1/"
   xmlns:cc="http://creativecommons.org/ns#"
   xmlns:rdf="http://www.w3.org/1999/02/22-rdf-syntax-ns#"
   xmlns:svg="http://www.w3.org/2000/svg"
   xmlns="http://www.w3.org/2000/svg"
   xmlns:sodipodi="http://sodipodi.sourceforge.net/DTD/sodipodi-0.dtd"
   xmlns:inkscape="http://www.inkscape.org/namespaces/inkscape"
   width="30"
   height="30"
   id="svg2985"
   version="1.1"
   inkscape:version="0.92.4 (5da689c313, 2019-01-14)"
   sodipodi:docname="Bonsai.Audio.svg">
  <defs
     id="defs2987" />
  <sodipodi:namedview
     id="base"
     pagecolor="#ffffff"
     bordercolor="#666666"
     borderopacity="1.0"
     inkscape:pageopacity="0.0"
     inkscape:pageshadow="2"
     inkscape:zoom="10.24"
     inkscape:cx="10.495662"
     inkscape:cy="12.708534"
     inkscape:document-units="mm"
     inkscape:current-layer="layer2"
     showgrid="false"
     inkscape:window-width="1819"
     inkscape:window-height="1057"
     inkscape:window-x="93"
     inkscape:window-y="-8"
     inkscape:window-maximized="1"
     units="px" />
  <metadata
     id="metadata2990">
    <rdf:RDF>
      <cc:Work
         rdf:about="">
        <dc:format>image/svg+xml</dc:format>
        <dc:type
           rdf:resource="http://purl.org/dc/dcmitype/StillImage" />
        <dc:title />
      </cc:Work>
    </rdf:RDF>
  </metadata>
  <g
     inkscape:groupmode="layer"
     id="layer2"
     inkscape:label="Layer 1">
    <path
       style="color:#000000;-inkscape-font-specification:Sans"
       d="M 15.261734,7.0869 C 15.033439,7.0969 14.808669,7.1829 14.63672,7.3336 L 10.401429,10.9932 H 6.5033162 C 5.980258,10.9932 5.5026168,11.4652 5.5000045,11.9883 V 17.0131 C 5.4983145,17.5389 5.9775271,18.0181 6.5033162,18.0164 H 10.343862 L 14.63672,21.7336 C 15.212766,22.23 16.288973,21.7336 16.289717,20.977 V 8.0902 C 16.291617,7.5561 15.795671,7.072 15.261734,7.0869 Z"
       id="polygon1"
       inkscape:connector-curvature="0"
       sodipodi:nodetypes="cccccccccccc" />
    <path
       style="color:#000000"
       d="M 19.241789,11.1358 C 19.859744,12.1099 20.22421,13.2731 20.22421,14.5148 20.22421,15.7376 19.867998,16.8825 19.267179,17.8468 18.572907,19.0198 16.824477,17.9298 17.571867,16.7901 17.986334,16.125 18.226164,15.3521 18.226164,14.5148 18.226164,13.6628 17.980041,12.8773 17.554289,12.2062 17.11589,11.5345 17.607809,10.6461 18.409757,10.6612 18.749802,10.6712 19.063302,10.8463 19.241789,11.1358 Z"
       id="path1"
       inkscape:connector-curvature="0"
       sodipodi:nodetypes="csccsccc" />
    <path
       style="color:#000000"
       d="M 21.919523,7.5284 C 23.456282,9.4572 24.378507,11.9073 24.378507,14.5636 24.378507,17.2016 23.468277,19.6367 21.94882,21.5597 21.123227,22.6053 19.554867,21.367 20.38046,20.3214 21.633171,18.736 22.38046,16.743 22.38046,14.5636 22.38046,12.3686 21.62401,10.3628 20.357023,8.7726 19.818734,8.1166 20.291683,7.1306 21.140226,7.1398 21.445746,7.1398 21.732843,7.2865 21.919523,7.5284 Z"
       id="path8187"
       inkscape:connector-curvature="0"
       sodipodi:nodetypes="csccsccc" />
  </g>
</svg>
