<?xml version="1.0" encoding="UTF-8" standalone="no"?>
<!-- Created with Inkscape (http://www.inkscape.org/) -->

<svg
   xmlns:dc="http://purl.org/dc/elements/1.1/"
   xmlns:cc="http://creativecommons.org/ns#"
   xmlns:rdf="http://www.w3.org/1999/02/22-rdf-syntax-ns#"
   xmlns:svg="http://www.w3.org/2000/svg"
   xmlns="http://www.w3.org/2000/svg"
   xmlns:xlink="http://www.w3.org/1999/xlink"
   xmlns:sodipodi="http://sodipodi.sourceforge.net/DTD/sodipodi-0.dtd"
   xmlns:inkscape="http://www.inkscape.org/namespaces/inkscape"
   width="30"
   height="30"
   id="svg2985"
   version="1.1"
   inkscape:version="0.48.4 r9939"
   sodipodi:docname="Bonsai.Expressions.WorkflowInput.svg">
  <defs
     id="defs2987">
    <linearGradient
       gradientTransform="matrix(0.02925754,0,0,0.02094792,-2337.0601,1645.8972)"
       y2="-606.33649"
       x2="-1680.355"
       y1="1441.4624"
       x1="-628.78992"
       gradientUnits="userSpaceOnUse"
       id="linearGradient4041"
       xlink:href="#linearGradient3809"
       inkscape:collect="always" />
    <linearGradient
       gradientTransform="matrix(0.03422298,0,0,0.02450309,88.4659,41.2573)"
       y2="460.91336"
       x2="-1426.9924"
       y1="1110.484"
       x1="-1231.092"
       gradientUnits="userSpaceOnUse"
       id="linearGradient4039"
       xlink:href="#linearGradient3817"
       inkscape:collect="always" />
    <linearGradient
       id="linearGradient3809">
      <stop
         id="stop3811"
         offset="0"
         style="stop-color:#000000;stop-opacity:1;" />
      <stop
         id="stop3813"
         offset="1"
         style="stop-color:#00b200;stop-opacity:1;" />
    </linearGradient>
    <linearGradient
       id="linearGradient3817">
      <stop
         id="stop3819"
         offset="0"
         style="stop-color:#4c2710;stop-opacity:1;" />
      <stop
         id="stop3821"
         offset="1"
         style="stop-color:#2e170a;stop-opacity:1;" />
    </linearGradient>
    <linearGradient
       inkscape:collect="always"
       xlink:href="#linearGradient3817"
       id="linearGradient3039"
       gradientUnits="userSpaceOnUse"
       gradientTransform="matrix(0.03422298,0,0,0.02450309,88.4659,41.2573)"
       x1="-1231.092"
       y1="1110.484"
       x2="-1426.9924"
       y2="460.91336" />
    <linearGradient
       inkscape:collect="always"
       xlink:href="#linearGradient3809"
       id="linearGradient3041"
       gradientUnits="userSpaceOnUse"
       gradientTransform="matrix(0.02925754,0,0,0.02094792,-2337.0601,1645.8972)"
       x1="-628.78992"
       y1="1441.4624"
       x2="-1680.355"
       y2="-606.33649" />
    <linearGradient
       inkscape:collect="always"
       xlink:href="#linearGradient3809"
       id="linearGradient3045"
       gradientUnits="userSpaceOnUse"
       gradientTransform="matrix(0.00989025,0,0,0.00708125,7.7769837,1036.5091)"
       x1="-628.78992"
       y1="1441.4624"
       x2="-1680.355"
       y2="-606.33649" />
  </defs>
  <sodipodi:namedview
     id="base"
     pagecolor="#ffffff"
     bordercolor="#666666"
     borderopacity="1.0"
     inkscape:pageopacity="0.0"
     inkscape:pageshadow="2"
     inkscape:zoom="8"
     inkscape:cx="22.510796"
     inkscape:cy="29.713796"
     inkscape:document-units="mm"
     inkscape:current-layer="layer1"
     showgrid="false"
     inkscape:window-width="2048"
     inkscape:window-height="1017"
     inkscape:window-x="-8"
     inkscape:window-y="-8"
     inkscape:window-maximized="1"
     units="px" />
  <metadata
     id="metadata2990">
    <rdf:RDF>
      <cc:Work
         rdf:about="">
        <dc:format>image/svg+xml</dc:format>
        <dc:type
           rdf:resource="http://purl.org/dc/dcmitype/StillImage" />
        <dc:title />
      </cc:Work>
    </rdf:RDF>
  </metadata>
  <g
     inkscape:label="Layer 1"
     inkscape:groupmode="layer"
     id="layer1"
     transform="translate(0,-1022.3622)">
    <path
       sodipodi:nodetypes="sccccccccccccccccccccccs"
       inkscape:connector-curvature="0"
       id="path3017-4"
       d="m 14.426856,1035.3325 c 0.180146,0.295 -0.07811,1.1963 -0.44905,1.4723 -0.405752,0.2847 -0.642368,0.9863 -1.24018,0.8099 -0.794505,-0.054 -2.8747572,-0.5778 -3.0295892,-0.7707 l -0.519666,0.6892 c 0.649465,-0.173 3.4319852,0.1973 3.5093792,1.0564 0.394245,0.6307 1.069069,1.0429 1.757151,1.3294 0.716712,0.4224 0.235161,1.323 -0.260252,1.6876 0.03594,0.3352 -0.199814,0.6844 -0.642124,0.6317 -0.366405,0.1041 -0.62852,0.3803 -0.950063,0.5703 -0.06869,0.2987 -0.303557,0.3758 -0.58271,0.3372 -0.366167,-0.061 -0.594103,0.2369 -0.760942,0.3452 -0.339739,0.074 -0.717324,0.1309 -1.131756,0.1158 1.213692,0.6294 2.566091,1.0368 3.93758,0.9521 0.931748,-0.034 1.881527,0.1107 2.786312,-0.19 0.871074,-0.2493 2.314852,-0.7408 2.793067,-1.2963 -0.597923,-0.1831 -1.196642,-0.3341 -1.806054,-0.4833 -0.109879,0.09 -0.259459,-0.1832 -0.589924,-0.1198 -0.280161,-0.154 -0.554979,-0.4531 -0.761651,-0.749 -0.263964,-0.5662 0.06482,-1.2373 -0.313897,-1.768 -0.221325,-0.7984 -1.26253,-0.8183 -1.704567,-1.406 -0.269776,-0.5443 0.351253,-0.8926 0.670199,-1.2223 0.460625,-0.4497 1.210343,-1.7844 0.197248,-2.2548 -0.494326,0.082 -0.932258,0.2241 -0.908511,0.2631 z"
       style="fill:#999999;fill-opacity:1;stroke:#999999;stroke-width:0.0436381;stroke-miterlimit:4;stroke-dasharray:none" />
    <path
       style="fill:#999999;fill-opacity:1;stroke:#999999;stroke-width:0.0436381;stroke-miterlimit:4;stroke-dasharray:none"
       d="m 13.129094,1027.5158 c -0.364303,0.1609 -0.519967,0.6625 -0.9375,0.7187 -0.580621,0.024 -1.453745,-0.1724 -1.75,0.4688 -0.6212332,-0.1436 -1.0523592,0.2224 -0.9687512,0.8437 -0.486146,0.3553 -1.057597,0.7471 -1.1875,1.1875 -0.728495,0.419 0.423386,0.8607 0.84375,0.8125 -0.40819,0.6042 0.206025,1.0368 0.84375,0.9063 0.4129622,0.1504 1.5694632,-0.1126 1.3437512,-0.5625 -0.611248,-0.1338 -0.08363,-0.3569 0.21875,-0.2188 0.708297,0.1582 0.386274,0.6872 0.1875,1.0938 0.12142,0.3206 0.710361,0.1762 0.1875,0.5312 -0.05908,0.3795 -1.035511,-0.011 -1,0.4688 -0.666114,-0.1094 -0.9511742,0.4546 -0.6875,0.875 -0.3500812,-0.071 -0.7907982,0.3526 -0.5312512,0.5937 0.04714,0.3295 1.1352902,0.2425 0.4687512,0.5938 -0.6413022,-0.1314 -1.3751532,-0.1054 -1.7812512,0.5 -0.529785,0.029 -1.3402191,0.4327 -0.53125,0.8437 0.65444,-0.097 0.816093,0.3828 0.09375,0.4063 -0.477929,0.2211 -1.0212321,0.6903 -0.21875,0.8437 0.390414,0.2347 0.963839,0.5245 1.53125,0.625 0.550329,0.148 1.0757002,0.3694 1.6562512,0.25 0.462774,0.052 0.81372,-0.5225 0.625,-0.875 -0.136603,-0.5272 -1.044299,-0.4514 -1.03125,-0.9062 -0.304203,-0.3763 -1.1879202,0.2221 -1.1250012,-0.3125 0.581603,-0.3293 1.2178272,0.2961 1.6250012,0.3125 -0.09212,-0.3195 1.13637,0.1285 1.34375,-0.4063 0.542776,0.052 1.779046,-0.5998 0.65625,-0.7812 0.114675,-0.4256 0.736557,-0.2961 1.0625,-0.4063 0.554791,-0.079 0.558477,-0.6822 0.96875,-0.8437 0.405755,-0.01 0.633591,0.5188 0.78125,0.094 0.444634,0 0.966848,0.7735 1.40625,0.375 0.01639,-0.4472 1.175548,0.2231 0.34375,0.094 -0.272936,0.3342 -0.680127,0.5385 -0.6875,1.0312 0.456718,0.4877 1.26723,-0.023 1.75,0.4063 0.795997,0.046 1.529436,-0.087 2.21875,-0.4688 0.755249,-0.022 1.073525,-0.5005 1.375,-1.0625 0.121076,-0.4877 1.235727,-0.3737 0.75,-1 0.435401,-0.6262 -1.608406,-0.5841 -0.40625,-0.9687 0.544574,-0.1232 1.041217,-0.8427 0.4375,-1.25 -0.45205,-0.213 -1.06495,-0.2187 -1.4375,0.1562 -0.538274,0.201 -0.47099,-0.2333 -0.125,-0.4687 0.06355,-0.5683 -0.654994,-0.4998 -1.0625,-0.4688 -0.388901,0.1765 -0.892895,-5e-4 -1.28125,-0.062 0.08197,-0.6272 -1.082392,-0.3799 -1.5,-0.2812 -0.589929,0.1397 -0.995941,-0.5964 -1.5625,-0.4688 0.67219,-0.1614 0.07314,-0.8686 -0.21875,-0.9687 0.711765,-0.368 0.0946,-1.0038 -0.46875,-0.8438 -0.492127,0.1137 -0.248524,-0.6279 -0.8125,-0.6562 -0.333205,-0.2719 -0.780605,-0.4785 -1.1875,-0.7188 l -0.21875,-0.031 z"
       id="path3008"
       inkscape:connector-curvature="0"
       sodipodi:nodetypes="ccccccccccccccccccccccccccccccccccccccccccccccccccc" />
    <path
       style="fill:#999999;fill-opacity:1;stroke:#999999;stroke-width:0.0436381;stroke-miterlimit:4;stroke-dasharray:none"
       d="m 16.349364,1043.7727 c -0.496969,0.132 -1.005153,0.2917 -1.530773,0.3033 -0.323842,0.1956 -1.184785,-0.6297 -1.342793,-0.3093 -0.313135,0.014 -2.361471,-0.4303 -2.670338,-0.2853 -0.0431,0.3833 -2.0403862,0.1134 -2.3275892,0.2346 -0.415346,0.076 -0.220688,1.3505 1.5351912,1.9067 0.983104,0.4426 3.768949,0.8439 4.831434,0.7924 0.904979,-0.032 2.512297,-0.073 3.391262,-0.3677 0.879907,-0.2485 1.849777,-0.5975 2.371765,-1.1583 -0.604468,-0.1476 2.065152,-2.4049 1.458175,-2.4802 0.358497,0.2466 -2.136113,0.7063 -2.317952,0.6516 -0.669255,0.052 -2.070738,0.5805 -2.621975,0.9609 -0.255659,-0.094 -0.569049,-0.057 -0.776407,-0.249 z"
       id="path3880-2"
       inkscape:connector-curvature="0"
       sodipodi:nodetypes="cccccccccccccc" />
  </g>
</svg>
