<?xml version="1.0" encoding="UTF-8" standalone="no"?>
<!-- Created with Inkscape (http://www.inkscape.org/) -->

<svg
   xmlns:dc="http://purl.org/dc/elements/1.1/"
   xmlns:cc="http://creativecommons.org/ns#"
   xmlns:rdf="http://www.w3.org/1999/02/22-rdf-syntax-ns#"
   xmlns:svg="http://www.w3.org/2000/svg"
   xmlns="http://www.w3.org/2000/svg"
   xmlns:sodipodi="http://sodipodi.sourceforge.net/DTD/sodipodi-0.dtd"
   xmlns:inkscape="http://www.inkscape.org/namespaces/inkscape"
   width="30"
   height="30"
   id="svg2985"
   version="1.1"
   inkscape:version="0.92.3 (2405546, 2018-03-11)"
   sodipodi:docname="Bonsai.Expressions.SelectManyBuilder.svg">
  <defs
     id="defs2987" />
  <sodipodi:namedview
     id="base"
     pagecolor="#ffffff"
     bordercolor="#666666"
     borderopacity="1.0"
     inkscape:pageopacity="0.0"
     inkscape:pageshadow="2"
     inkscape:zoom="13.304527"
     inkscape:cx="8.2312543"
     inkscape:cy="11.033922"
     inkscape:document-units="mm"
     inkscape:current-layer="layer1"
     showgrid="false"
     inkscape:window-width="3000"
     inkscape:window-height="1875"
     inkscape:window-x="-13"
     inkscape:window-y="-13"
     inkscape:window-maximized="1"
     units="px"
     showguides="true"
     inkscape:guide-bbox="true"
     inkscape:object-nodes="false"
     inkscape:snap-object-midpoints="true"
     inkscape:snap-nodes="false"
     inkscape:snap-global="false">
    <sodipodi:guide
       orientation="1,0"
       position="14.941406,41.796875"
       id="guide4446"
       inkscape:locked="false" />
  </sodipodi:namedview>
  <metadata
     id="metadata2990">
    <rdf:RDF>
      <cc:Work
         rdf:about="">
        <dc:format>image/svg+xml</dc:format>
        <dc:type
           rdf:resource="http://purl.org/dc/dcmitype/StillImage" />
        <dc:title />
      </cc:Work>
    </rdf:RDF>
  </metadata>
  <g
     inkscape:label="Layer 1"
     inkscape:groupmode="layer"
     id="layer1"
     transform="translate(0,-1022.3622)">
    <path
       style="color:#000000;stroke-width:1.8093847;stroke-linecap:round"
       d="m 8.4695975,1029.1788 c -1.8674107,0 -3.4014313,1.5324 -3.4014313,3.3997 0,1.8674 1.5340206,3.4014 3.4014313,3.4014 1.8673525,0 3.3996645,-1.534 3.3996645,-3.4014 0,-1.8673 -1.532312,-3.3997 -3.3996645,-3.3997 z"
       id="path4164"
       inkscape:connector-curvature="0" />
    <path
       style="color:#000000;stroke-width:1.7300756"
       d="m 14.026549,1028.1215 -0.12968,18.404 1.870319,0.01 0.129681,-18.404 z"
       id="path3817"
       inkscape:connector-curvature="0" />
    <g
       id="g847"
       transform="translate(0.97711102)">
      <path
         inkscape:connector-curvature="0"
         style="color:#000000;stroke-width:1.8093847;stroke-linecap:round"
         d="m 20.348795,1029.1788 c -1.867411,0 -3.401432,1.5324 -3.401432,3.3997 0,1.8674 1.534021,3.4014 3.401432,3.4014 1.867352,0 3.399664,-1.534 3.399664,-3.4014 0,-1.8673 -1.532312,-3.3997 -3.399664,-3.3997 z"
         id="path839" />
      <path
         id="path841"
         d="m 20.348795,1038.2258 c -1.867411,0 -3.401432,1.5323 -3.401432,3.3996 0,1.8674 1.534021,3.4015 3.401432,3.4015 1.867352,0 3.399664,-1.5341 3.399664,-3.4015 0,-1.8673 -1.532312,-3.3996 -3.399664,-3.3996 z"
         style="color:#000000;stroke-width:1.8093847;stroke-linecap:round"
         inkscape:connector-curvature="0" />
    </g>
  </g>
</svg>
