<?xml version="1.0" encoding="UTF-8"?>
<svg width="30" height="30" version="1.1" xmlns="http://www.w3.org/2000/svg">
 <path d="m6.4291 23.2c2.148 2.2138 5.1541 3.59 8.4824 3.59 3.3282 0 6.3344-1.3762 8.4825-3.59z"/>
 <path d="m14.703 13.82c0.02116 0.086 0.03348 0.1754 0.03348 0.2735 0 0.516-1.3334 0.9904-1.9123 1.9159-0.3673-0.2979-0.80634-0.5835-1.2575-0.7199-0.78881-0.2384-1.8149-0.1513-2.3866-0.072 0.076431-0.1595 0.13191-0.3314 0.16183-0.5115 0.33693 0.1687 0.71733 0.2641 1.1198 0.2641 0.8122 0 1.533-0.3864 1.9904-0.9859 0.29271 0.1911 0.64186 0.3032 1.0175 0.3032 0.47294 0 0.90449-0.1768 1.2333-0.4669zm-1.8416-9.0199c-1.3821 0-2.5337 0.9843-2.794 2.2898-0.21234-0.1174-0.45792-0.1806-0.71988-0.1711-0.70769 0.026-1.2933 0.5988-1.3319 1.3058-0.043573 0.8001 0.59163 1.4621 1.3821 1.4621 0.42798 0 0.81182-0.1953 1.0659-0.5004 0.31686 0.4933 0.78171 0.8826 1.3319 1.105-8.31e-4 0.019-9.44e-4 0.037-0.0019 0.056-0.38595-0.2433-0.84395-0.3851-1.3337-0.3851-1.3827 0-2.5038 1.1212-2.5038 2.5038 0 0.025 9.429e-4 0.052 0.00186 0.076-0.24143-0.066-0.50017-0.087-0.77011-0.05-0.90619 0.1242-1.606 0.8888-1.65 1.8025-0.01982 0.412 0.090971 0.7971 0.29391 1.1179-0.30729 0.2005-0.50397 0.5573-0.47434 0.958 0.038391 0.5206 0.47018 0.9423 0.99147 0.9691 0.59979 0.031 1.0949-0.4432 1.1031-1.0342 0.25422 0 0.49792-0.05 0.71988-0.1395 0.50911-0.1378 1.6954-0.3836 2.8051-0.058 0.95393 0.2801 1.6904 1.2434 1.7039 1.2612 0.40625 0.85 1.6928 1.6006 1.6928 2.3587 0 0.9811-1.2078 1.5598-3.3929 2.4517l7.7848-0.067s-1.2938-0.5572-2.1504-2.9427c-0.64483-1.796-2.2226-1.9845-2.2285-2.6322-0.0091-1.0095 1.6881-1.0327 1.7188-2.275 0.0045-0.1645-0.01416-0.3113-0.04837-0.4427 0.54355-0.047 1.0406-0.2536 1.4453-0.5729 0.0045 0.01 0.01015 0.02 0.01488 0.03-0.3231 0.2451-0.51483 0.6541-0.44272 1.105 0.07884 0.493 0.48176 0.8837 0.97659 0.9505 0.48874 0.066 0.92632-0.1741 1.1514-0.5562 0.32828 0.1199 0.68315 0.1861 1.0529 0.1861 1.4932 0 2.7358-1.0685 3.0097-2.4815 0.6867-0.1089 1.2028-0.7329 1.1366-1.464-0.05751-0.6344-0.56633-1.1516-1.1998-1.2202-0.22564-0.024-0.44003 0.01-0.63432 0.082-0.56227-0.6443-1.3899-1.0528-2.3122-1.0528-0.82581 0-1.5747 0.3268-2.1262 0.8575-0.35881-0.5764-0.92777-1.008-1.5997-1.1886 0.38888-0.1963 0.65685-0.5972 0.6585-1.0622 0.0018-0.6295-0.46639-1.1439-1.0938-1.1961-0.24813-0.021-0.4818 0.035-0.68082 0.1451-0.46648-0.9376-1.4338-1.5811-2.5521-1.5811z"/>
</svg>
