<?xml version="1.0" encoding="UTF-8" standalone="no"?>
<!-- Created with Inkscape (http://www.inkscape.org/) -->

<svg
   xmlns:dc="http://purl.org/dc/elements/1.1/"
   xmlns:cc="http://creativecommons.org/ns#"
   xmlns:rdf="http://www.w3.org/1999/02/22-rdf-syntax-ns#"
   xmlns:svg="http://www.w3.org/2000/svg"
   xmlns="http://www.w3.org/2000/svg"
   xmlns:xlink="http://www.w3.org/1999/xlink"
   xmlns:sodipodi="http://sodipodi.sourceforge.net/DTD/sodipodi-0.dtd"
   xmlns:inkscape="http://www.inkscape.org/namespaces/inkscape"
   width="30"
   height="30"
   id="svg2985"
   version="1.1"
   inkscape:version="0.92.3 (2405546, 2018-03-11)"
   sodipodi:docname="Bonsai.Expressions.WorkflowOutputBuilder.svg">
  <defs
     id="defs2987">
    <linearGradient
       gradientTransform="matrix(0.02925754,0,0,0.02094792,-2337.0601,1645.8972)"
       y2="-606.33649"
       x2="-1680.355"
       y1="1441.4624"
       x1="-628.78992"
       gradientUnits="userSpaceOnUse"
       id="linearGradient4041-8"
       xlink:href="#linearGradient3809-4"
       inkscape:collect="always" />
    <linearGradient
       gradientTransform="matrix(0.03422298,0,0,0.02450309,88.4659,41.2573)"
       y2="460.91336"
       x2="-1426.9924"
       y1="1110.484"
       x1="-1231.092"
       gradientUnits="userSpaceOnUse"
       id="linearGradient4039-2"
       xlink:href="#linearGradient3817-1"
       inkscape:collect="always" />
    <linearGradient
       id="linearGradient3809-4">
      <stop
         id="stop3811-5"
         offset="0"
         style="stop-color:#000000;stop-opacity:1;" />
      <stop
         id="stop3813-5"
         offset="1"
         style="stop-color:#00b200;stop-opacity:1;" />
    </linearGradient>
    <linearGradient
       id="linearGradient3817-1">
      <stop
         id="stop3819-7"
         offset="0"
         style="stop-color:#4c2710;stop-opacity:1;" />
      <stop
         id="stop3821-1"
         offset="1"
         style="stop-color:#2e170a;stop-opacity:1;" />
    </linearGradient>
    <linearGradient
       inkscape:collect="always"
       xlink:href="#linearGradient3817-1"
       id="linearGradient3039-1"
       gradientUnits="userSpaceOnUse"
       gradientTransform="matrix(0.03422298,0,0,0.02450309,88.4659,41.2573)"
       x1="-1231.092"
       y1="1110.484"
       x2="-1426.9924"
       y2="460.91336" />
    <linearGradient
       inkscape:collect="always"
       xlink:href="#linearGradient3809-4"
       id="linearGradient3041-5"
       gradientUnits="userSpaceOnUse"
       gradientTransform="matrix(0.02925754,0,0,0.02094792,-2337.0601,1645.8972)"
       x1="-628.78992"
       y1="1441.4624"
       x2="-1680.355"
       y2="-606.33649" />
    <linearGradient
       inkscape:collect="always"
       xlink:href="#linearGradient3809-4"
       id="linearGradient3045-2"
       gradientUnits="userSpaceOnUse"
       gradientTransform="matrix(0.00989025,0,0,0.00708125,7.7769837,1036.5091)"
       x1="-628.78992"
       y1="1441.4624"
       x2="-1680.355"
       y2="-606.33649" />
    <linearGradient
       y2="-606.33649"
       x2="-1680.355"
       y1="1441.4624"
       x1="-628.78992"
       gradientTransform="matrix(0.00989025,0,0,0.00708125,7.7769837,1036.5091)"
       gradientUnits="userSpaceOnUse"
       id="linearGradient3045"
       xlink:href="#linearGradient3809"
       inkscape:collect="always" />
    <linearGradient
       y2="-606.33649"
       x2="-1680.355"
       y1="1441.4624"
       x1="-628.78992"
       gradientTransform="matrix(0.02925754,0,0,0.02094792,-2337.0601,1645.8972)"
       gradientUnits="userSpaceOnUse"
       id="linearGradient3041"
       xlink:href="#linearGradient3809"
       inkscape:collect="always" />
    <linearGradient
       y2="460.91336"
       x2="-1426.9924"
       y1="1110.484"
       x1="-1231.092"
       gradientTransform="matrix(0.03422298,0,0,0.02450309,88.4659,41.2573)"
       gradientUnits="userSpaceOnUse"
       id="linearGradient3039"
       xlink:href="#linearGradient3817"
       inkscape:collect="always" />
    <linearGradient
       id="linearGradient3817">
      <stop
         style="stop-color:#4c2710;stop-opacity:1;"
         offset="0"
         id="stop3819" />
      <stop
         style="stop-color:#2e170a;stop-opacity:1;"
         offset="1"
         id="stop3821" />
    </linearGradient>
    <linearGradient
       id="linearGradient3809">
      <stop
         style="stop-color:#000000;stop-opacity:1;"
         offset="0"
         id="stop3811" />
      <stop
         style="stop-color:#00b200;stop-opacity:1;"
         offset="1"
         id="stop3813" />
    </linearGradient>
    <linearGradient
       inkscape:collect="always"
       xlink:href="#linearGradient3817"
       id="linearGradient4039"
       gradientUnits="userSpaceOnUse"
       x1="-1231.092"
       y1="1110.484"
       x2="-1426.9924"
       y2="460.91336"
       gradientTransform="matrix(0.03422298,0,0,0.02450309,88.4659,41.2573)" />
    <linearGradient
       inkscape:collect="always"
       xlink:href="#linearGradient3809"
       id="linearGradient4041"
       gradientUnits="userSpaceOnUse"
       x1="-628.78992"
       y1="1441.4624"
       x2="-1680.355"
       y2="-606.33649"
       gradientTransform="matrix(0.02925754,0,0,0.02094792,-2337.0601,1645.8972)" />
    <linearGradient
       gradientTransform="matrix(0.02925754,0,0,0.02094792,-2337.0601,1645.8972)"
       y2="-606.33649"
       x2="-1680.355"
       y1="1441.4624"
       x1="-628.78992"
       gradientUnits="userSpaceOnUse"
       id="linearGradient4041-8-7"
       xlink:href="#linearGradient3809-4-9"
       inkscape:collect="always" />
    <linearGradient
       gradientTransform="matrix(0.03422298,0,0,0.02450309,88.4659,41.2573)"
       y2="460.91336"
       x2="-1426.9924"
       y1="1110.484"
       x1="-1231.092"
       gradientUnits="userSpaceOnUse"
       id="linearGradient4039-2-0"
       xlink:href="#linearGradient3817-1-1"
       inkscape:collect="always" />
    <linearGradient
       id="linearGradient3809-4-9">
      <stop
         id="stop3811-5-8"
         offset="0"
         style="stop-color:#000000;stop-opacity:1;" />
      <stop
         id="stop3813-5-4"
         offset="1"
         style="stop-color:#00b200;stop-opacity:1;" />
    </linearGradient>
    <linearGradient
       id="linearGradient3817-1-1">
      <stop
         id="stop3819-7-3"
         offset="0"
         style="stop-color:#4c2710;stop-opacity:1;" />
      <stop
         id="stop3821-1-5"
         offset="1"
         style="stop-color:#2e170a;stop-opacity:1;" />
    </linearGradient>
    <linearGradient
       inkscape:collect="always"
       xlink:href="#linearGradient3817-1-1"
       id="linearGradient3039-1-9"
       gradientUnits="userSpaceOnUse"
       gradientTransform="matrix(0.03422298,0,0,0.02450309,88.4659,41.2573)"
       x1="-1231.092"
       y1="1110.484"
       x2="-1426.9924"
       y2="460.91336" />
    <linearGradient
       inkscape:collect="always"
       xlink:href="#linearGradient3809-4-9"
       id="linearGradient3041-5-2"
       gradientUnits="userSpaceOnUse"
       gradientTransform="matrix(0.02925754,0,0,0.02094792,-2337.0601,1645.8972)"
       x1="-628.78992"
       y1="1441.4624"
       x2="-1680.355"
       y2="-606.33649" />
    <linearGradient
       inkscape:collect="always"
       xlink:href="#linearGradient3809-4-9"
       id="linearGradient3045-2-8"
       gradientUnits="userSpaceOnUse"
       gradientTransform="matrix(0.00989025,0,0,0.00708125,7.7769837,1036.5091)"
       x1="-628.78992"
       y1="1441.4624"
       x2="-1680.355"
       y2="-606.33649" />
    <linearGradient
       y2="-606.33649"
       x2="-1680.355"
       y1="1441.4624"
       x1="-628.78992"
       gradientTransform="matrix(0.00989025,0,0,0.00708125,7.7769837,1036.5091)"
       gradientUnits="userSpaceOnUse"
       id="linearGradient3045-8"
       xlink:href="#linearGradient3809-6"
       inkscape:collect="always" />
    <linearGradient
       y2="-606.33649"
       x2="-1680.355"
       y1="1441.4624"
       x1="-628.78992"
       gradientTransform="matrix(0.02925754,0,0,0.02094792,-2337.0601,1645.8972)"
       gradientUnits="userSpaceOnUse"
       id="linearGradient3041-7"
       xlink:href="#linearGradient3809-6"
       inkscape:collect="always" />
    <linearGradient
       y2="460.91336"
       x2="-1426.9924"
       y1="1110.484"
       x1="-1231.092"
       gradientTransform="matrix(0.03422298,0,0,0.02450309,88.4659,41.2573)"
       gradientUnits="userSpaceOnUse"
       id="linearGradient3039-3"
       xlink:href="#linearGradient3817-4"
       inkscape:collect="always" />
    <linearGradient
       id="linearGradient3817-4">
      <stop
         style="stop-color:#4c2710;stop-opacity:1;"
         offset="0"
         id="stop3819-9" />
      <stop
         style="stop-color:#2e170a;stop-opacity:1;"
         offset="1"
         id="stop3821-6" />
    </linearGradient>
    <linearGradient
       id="linearGradient3809-6">
      <stop
         style="stop-color:#000000;stop-opacity:1;"
         offset="0"
         id="stop3811-1" />
      <stop
         style="stop-color:#00b200;stop-opacity:1;"
         offset="1"
         id="stop3813-8" />
    </linearGradient>
    <linearGradient
       inkscape:collect="always"
       xlink:href="#linearGradient3817-4"
       id="linearGradient4039-6"
       gradientUnits="userSpaceOnUse"
       x1="-1231.092"
       y1="1110.484"
       x2="-1426.9924"
       y2="460.91336"
       gradientTransform="matrix(0.03422298,0,0,0.02450309,88.4659,41.2573)" />
    <linearGradient
       inkscape:collect="always"
       xlink:href="#linearGradient3809-6"
       id="linearGradient4041-0"
       gradientUnits="userSpaceOnUse"
       x1="-628.78992"
       y1="1441.4624"
       x2="-1680.355"
       y2="-606.33649"
       gradientTransform="matrix(0.02925754,0,0,0.02094792,-2337.0601,1645.8972)" />
    <linearGradient
       gradientTransform="matrix(0.02925754,0,0,0.02094792,-2337.0601,1645.8972)"
       y2="-606.33649"
       x2="-1680.355"
       y1="1441.4624"
       x1="-628.78992"
       gradientUnits="userSpaceOnUse"
       id="linearGradient4041-8-77"
       xlink:href="#linearGradient3809-4-7"
       inkscape:collect="always" />
    <linearGradient
       gradientTransform="matrix(0.03422298,0,0,0.02450309,88.4659,41.2573)"
       y2="460.91336"
       x2="-1426.9924"
       y1="1110.484"
       x1="-1231.092"
       gradientUnits="userSpaceOnUse"
       id="linearGradient4039-2-7"
       xlink:href="#linearGradient3817-1-14"
       inkscape:collect="always" />
    <linearGradient
       id="linearGradient3809-4-7">
      <stop
         id="stop3811-5-1"
         offset="0"
         style="stop-color:#000000;stop-opacity:1;" />
      <stop
         id="stop3813-5-7"
         offset="1"
         style="stop-color:#00b200;stop-opacity:1;" />
    </linearGradient>
    <linearGradient
       id="linearGradient3817-1-14">
      <stop
         id="stop3819-7-6"
         offset="0"
         style="stop-color:#4c2710;stop-opacity:1;" />
      <stop
         id="stop3821-1-0"
         offset="1"
         style="stop-color:#2e170a;stop-opacity:1;" />
    </linearGradient>
    <linearGradient
       inkscape:collect="always"
       xlink:href="#linearGradient3817-1-14"
       id="linearGradient3039-1-0"
       gradientUnits="userSpaceOnUse"
       gradientTransform="matrix(0.03422298,0,0,0.02450309,88.4659,41.2573)"
       x1="-1231.092"
       y1="1110.484"
       x2="-1426.9924"
       y2="460.91336" />
    <linearGradient
       inkscape:collect="always"
       xlink:href="#linearGradient3809-4-7"
       id="linearGradient3041-5-20"
       gradientUnits="userSpaceOnUse"
       gradientTransform="matrix(0.02925754,0,0,0.02094792,-2337.0601,1645.8972)"
       x1="-628.78992"
       y1="1441.4624"
       x2="-1680.355"
       y2="-606.33649" />
    <linearGradient
       inkscape:collect="always"
       xlink:href="#linearGradient3809-4-7"
       id="linearGradient3045-2-1"
       gradientUnits="userSpaceOnUse"
       gradientTransform="matrix(0.00989025,0,0,0.00708125,7.7769837,1036.5091)"
       x1="-628.78992"
       y1="1441.4624"
       x2="-1680.355"
       y2="-606.33649" />
    <linearGradient
       y2="-606.33649"
       x2="-1680.355"
       y1="1441.4624"
       x1="-628.78992"
       gradientTransform="matrix(0.00989025,0,0,0.00708125,7.7769837,1036.5091)"
       gradientUnits="userSpaceOnUse"
       id="linearGradient3045-4"
       xlink:href="#linearGradient3809-3"
       inkscape:collect="always" />
    <linearGradient
       y2="-606.33649"
       x2="-1680.355"
       y1="1441.4624"
       x1="-628.78992"
       gradientTransform="matrix(0.02925754,0,0,0.02094792,-2337.0601,1645.8972)"
       gradientUnits="userSpaceOnUse"
       id="linearGradient3041-75"
       xlink:href="#linearGradient3809-3"
       inkscape:collect="always" />
    <linearGradient
       y2="460.91336"
       x2="-1426.9924"
       y1="1110.484"
       x1="-1231.092"
       gradientTransform="matrix(0.03422298,0,0,0.02450309,88.4659,41.2573)"
       gradientUnits="userSpaceOnUse"
       id="linearGradient3039-5"
       xlink:href="#linearGradient3817-6"
       inkscape:collect="always" />
    <linearGradient
       id="linearGradient3817-6">
      <stop
         style="stop-color:#4c2710;stop-opacity:1;"
         offset="0"
         id="stop3819-0" />
      <stop
         style="stop-color:#2e170a;stop-opacity:1;"
         offset="1"
         id="stop3821-16" />
    </linearGradient>
    <linearGradient
       id="linearGradient3809-3">
      <stop
         style="stop-color:#000000;stop-opacity:1;"
         offset="0"
         id="stop3811-7" />
      <stop
         style="stop-color:#00b200;stop-opacity:1;"
         offset="1"
         id="stop3813-2" />
    </linearGradient>
    <linearGradient
       inkscape:collect="always"
       xlink:href="#linearGradient3817-6"
       id="linearGradient4039-7"
       gradientUnits="userSpaceOnUse"
       x1="-1231.092"
       y1="1110.484"
       x2="-1426.9924"
       y2="460.91336"
       gradientTransform="matrix(0.03422298,0,0,0.02450309,88.4659,41.2573)" />
    <linearGradient
       inkscape:collect="always"
       xlink:href="#linearGradient3809-3"
       id="linearGradient4041-9"
       gradientUnits="userSpaceOnUse"
       x1="-628.78992"
       y1="1441.4624"
       x2="-1680.355"
       y2="-606.33649"
       gradientTransform="matrix(0.02925754,0,0,0.02094792,-2337.0601,1645.8972)" />
    <linearGradient
       gradientTransform="matrix(0.02925754,0,0,0.02094792,-2337.0601,1645.8972)"
       y2="-606.33649"
       x2="-1680.355"
       y1="1441.4624"
       x1="-628.78992"
       gradientUnits="userSpaceOnUse"
       id="linearGradient4041-1"
       xlink:href="#linearGradient3809-2"
       inkscape:collect="always" />
    <linearGradient
       gradientTransform="matrix(0.03422298,0,0,0.02450309,88.4659,41.2573)"
       y2="460.91336"
       x2="-1426.9924"
       y1="1110.484"
       x1="-1231.092"
       gradientUnits="userSpaceOnUse"
       id="linearGradient4039-76"
       xlink:href="#linearGradient3817-2"
       inkscape:collect="always" />
    <linearGradient
       id="linearGradient3809-2">
      <stop
         id="stop3811-16"
         offset="0"
         style="stop-color:#000000;stop-opacity:1;" />
      <stop
         id="stop3813-85"
         offset="1"
         style="stop-color:#00b200;stop-opacity:1;" />
    </linearGradient>
    <linearGradient
       id="linearGradient3817-2">
      <stop
         id="stop3819-3"
         offset="0"
         style="stop-color:#4c2710;stop-opacity:1;" />
      <stop
         id="stop3821-2"
         offset="1"
         style="stop-color:#2e170a;stop-opacity:1;" />
    </linearGradient>
    <linearGradient
       inkscape:collect="always"
       xlink:href="#linearGradient3817-2"
       id="linearGradient3039-14"
       gradientUnits="userSpaceOnUse"
       gradientTransform="matrix(0.03422298,0,0,0.02450309,88.4659,41.2573)"
       x1="-1231.092"
       y1="1110.484"
       x2="-1426.9924"
       y2="460.91336" />
    <linearGradient
       inkscape:collect="always"
       xlink:href="#linearGradient3809-2"
       id="linearGradient3041-6"
       gradientUnits="userSpaceOnUse"
       gradientTransform="matrix(0.02925754,0,0,0.02094792,-2337.0601,1645.8972)"
       x1="-628.78992"
       y1="1441.4624"
       x2="-1680.355"
       y2="-606.33649" />
    <linearGradient
       inkscape:collect="always"
       xlink:href="#linearGradient3809-2"
       id="linearGradient3045-27"
       gradientUnits="userSpaceOnUse"
       gradientTransform="matrix(0.00989025,0,0,0.00708125,7.7769837,1036.5091)"
       x1="-628.78992"
       y1="1441.4624"
       x2="-1680.355"
       y2="-606.33649" />
    <linearGradient
       y2="-606.33649"
       x2="-1680.355"
       y1="1441.4624"
       x1="-628.78992"
       gradientTransform="matrix(0.00989025,0,0,0.00708125,7.7769837,1036.5091)"
       gradientUnits="userSpaceOnUse"
       id="linearGradient3045-2-15"
       xlink:href="#linearGradient3809-4-4"
       inkscape:collect="always" />
    <linearGradient
       y2="-606.33649"
       x2="-1680.355"
       y1="1441.4624"
       x1="-628.78992"
       gradientTransform="matrix(0.02925754,0,0,0.02094792,-2337.0601,1645.8972)"
       gradientUnits="userSpaceOnUse"
       id="linearGradient3041-5-1"
       xlink:href="#linearGradient3809-4-4"
       inkscape:collect="always" />
    <linearGradient
       y2="460.91336"
       x2="-1426.9924"
       y1="1110.484"
       x1="-1231.092"
       gradientTransform="matrix(0.03422298,0,0,0.02450309,88.4659,41.2573)"
       gradientUnits="userSpaceOnUse"
       id="linearGradient3039-1-7"
       xlink:href="#linearGradient3817-1-4"
       inkscape:collect="always" />
    <linearGradient
       id="linearGradient3817-1-4">
      <stop
         style="stop-color:#4c2710;stop-opacity:1;"
         offset="0"
         id="stop3819-7-5" />
      <stop
         style="stop-color:#2e170a;stop-opacity:1;"
         offset="1"
         id="stop3821-1-51" />
    </linearGradient>
    <linearGradient
       id="linearGradient3809-4-4">
      <stop
         style="stop-color:#000000;stop-opacity:1;"
         offset="0"
         id="stop3811-5-88" />
      <stop
         style="stop-color:#00b200;stop-opacity:1;"
         offset="1"
         id="stop3813-5-2" />
    </linearGradient>
    <linearGradient
       inkscape:collect="always"
       xlink:href="#linearGradient3817-1-4"
       id="linearGradient4039-2-09"
       gradientUnits="userSpaceOnUse"
       x1="-1231.092"
       y1="1110.484"
       x2="-1426.9924"
       y2="460.91336"
       gradientTransform="matrix(0.03422298,0,0,0.02450309,88.4659,41.2573)" />
    <linearGradient
       inkscape:collect="always"
       xlink:href="#linearGradient3809-4-4"
       id="linearGradient4041-8-4"
       gradientUnits="userSpaceOnUse"
       x1="-628.78992"
       y1="1441.4624"
       x2="-1680.355"
       y2="-606.33649"
       gradientTransform="matrix(0.02925754,0,0,0.02094792,-2337.0601,1645.8972)" />
  </defs>
  <sodipodi:namedview
     id="base"
     pagecolor="#ffffff"
     bordercolor="#666666"
     borderopacity="1.0"
     inkscape:pageopacity="0.0"
     inkscape:pageshadow="2"
     inkscape:zoom="10.24"
     inkscape:cx="-3.4166953"
     inkscape:cy="7.5068337"
     inkscape:document-units="mm"
     inkscape:current-layer="layer1"
     showgrid="false"
     inkscape:window-width="3000"
     inkscape:window-height="1875"
     inkscape:window-x="-13"
     inkscape:window-y="-13"
     inkscape:window-maximized="1"
     units="px"
     showguides="true"
     inkscape:guide-bbox="true">
    <sodipodi:guide
       orientation="0,1"
       position="-17.285156,15.039062"
       id="guide4444"
       inkscape:locked="false" />
    <sodipodi:guide
       orientation="1,0"
       position="14.941406,41.796875"
       id="guide4446"
       inkscape:locked="false" />
  </sodipodi:namedview>
  <metadata
     id="metadata2990">
    <rdf:RDF>
      <cc:Work
         rdf:about="">
        <dc:format>image/svg+xml</dc:format>
        <dc:type
           rdf:resource="http://purl.org/dc/dcmitype/StillImage" />
        <dc:title />
      </cc:Work>
    </rdf:RDF>
  </metadata>
  <g
     inkscape:label="Layer 1"
     inkscape:groupmode="layer"
     id="layer1"
     transform="translate(0,-1022.3622)">
    <path
       inkscape:connector-curvature="0"
       style="font-size:medium;font-style:normal;font-variant:normal;font-weight:normal;font-stretch:normal;text-indent:0;text-align:start;text-decoration:none;line-height:normal;letter-spacing:normal;word-spacing:normal;text-transform:none;direction:ltr;block-progression:tb;writing-mode:lr-tb;text-anchor:start;baseline-shift:baseline;color:#000000;fill-opacity:1;fill-rule:nonzero;stroke:none;stroke-width:0.0436381;marker:none;visibility:visible;display:inline;overflow:visible;enable-background:accumulate;font-family:Sans;-inkscape-font-specification:Sans"
       d="M 12.906258,1027.4247 C 12.899748,1027.4276 12.912631,1027.4528 12.906258,1027.456 L 12.875008,1027.456 C 12.699855,1027.5476 12.563062,1027.6907 12.437508,1027.831 12.302349,1027.9818 12.158848,1028.118 11.968758,1028.1435 11.685104,1028.1553 11.335986,1028.1086 11.000008,1028.1435 10.688544,1028.1759 10.416184,1028.3266 10.250008,1028.6122 9.9278375,1028.5377 9.6266645,1028.5737 9.4375085,1028.7372 9.2483515,1028.9007 9.1752655,1029.1954 9.2187585,1029.5185 8.7458255,1029.8621 8.1647995,1030.222 8.0312585,1030.6747 7.9589865,1030.7211 7.8800085,1030.7492 7.8437585,1030.7997 7.8004905,1030.86 7.7736585,1030.9247 7.7812585,1030.9872 7.7964575,1031.1122 7.9005035,1031.2175 8.0312585,1031.2997 8.2653165,1031.4468 8.6087285,1031.5191 8.8437585,1031.5185 8.7673245,1031.6528 8.7403575,1031.8072 8.7500085,1031.9247 8.7612445,1032.0615 8.8073925,1032.1778 8.9062585,1032.2685 9.0972385,1032.4439 9.4292495,1032.5122 9.7500085,1032.456 9.7613485,1032.454 9.7699015,1032.4583 9.7812585,1032.456 10.013282,1032.5293 10.376396,1032.4963 10.687508,1032.3935 10.848404,1032.3404 11.001135,1032.27 11.093758,1032.1747 11.186381,1032.0794 11.221236,1031.9605 11.156258,1031.831 L 11.156258,1031.7997 11.125008,1031.7997 C 10.976499,1031.7672 10.890532,1031.7243 10.875008,1031.706 10.875296,1031.7052 10.888716,1031.6851 10.906258,1031.6747 10.941341,1031.6539 11.017714,1031.6469 11.093758,1031.6435 11.169802,1031.6402 11.246539,1031.6446 11.312508,1031.6747 11.48301,1031.7128 11.59949,1031.764 11.656258,1031.831 11.713026,1031.8979 11.726419,1031.9885 11.718758,1032.081 11.703437,1032.2658 11.569066,1032.5008 11.468758,1032.706 L 11.468758,1032.7372 C 11.539832,1032.9249 11.757643,1032.9757 11.843758,1033.0185 11.865287,1033.0293 11.872495,1033.0464 11.875008,1033.0497 11.868444,1033.0663 11.815918,1033.1188 11.687508,1033.206 L 11.656258,1033.206 11.656258,1033.2372 C 11.650583,1033.2737 11.648966,1033.3112 11.625008,1033.331 11.60105,1033.3507 11.545171,1033.3512 11.500008,1033.3622 11.409681,1033.3843 11.28066,1033.3886 11.156258,1033.3935 11.031856,1033.3985 10.912719,1033.4138 10.812508,1033.456 10.762403,1033.477 10.7176,1033.5035 10.687508,1033.5497 10.657416,1033.5959 10.651215,1033.6378 10.656258,1033.706 10.353058,1033.6815 10.090154,1033.7451 9.9687585,1033.9247 9.8417685,1034.1126 9.8463275,1034.3621 9.9687585,1034.581 9.7936985,1034.5739 9.6159705,1034.6158 9.5000085,1034.7372 9.4338885,1034.8064 9.3560275,1034.9007 9.3437585,1034.9872 9.3314885,1035.0737 9.3621025,1035.1359 9.4375085,1035.206 9.4453325,1035.2606 9.4610205,1035.2957 9.5000085,1035.331 9.5389955,1035.3662 9.6042725,1035.4016 9.6562585,1035.4247 9.7602295,1035.4709 9.8737905,1035.4876 9.9687585,1035.5185 10.016242,1035.534 10.067257,1035.5662 10.093758,1035.581 10.120259,1035.5957 10.125038,1035.5811 10.125008,1035.581 10.124978,1035.5808 10.121828,1035.6172 10.093758,1035.6435 10.069816,1035.666 10.031001,1035.7025 9.9687585,1035.7372 9.9586135,1035.7351 9.9477005,1035.7392 9.9375085,1035.7372 9.6212275,1035.6751 9.2827945,1035.6403 8.9687585,1035.706 8.6531985,1035.7719 8.3658145,1035.9392 8.1562585,1036.2372 8.1505485,1036.2453 8.1305945,1036.2289 8.1250085,1036.2372 7.8545945,1036.258 7.5520935,1036.3539 7.3750085,1036.5185 7.2832155,1036.6039 7.2140255,1036.7138 7.2500085,1036.831 7.2859905,1036.9481 7.4168135,1037.0689 7.6250085,1037.1747 L 7.6562585,1037.1747 C 7.8136585,1037.1514 7.9449125,1037.1462 8.0312585,1037.1747 8.1176035,1037.2032 8.1470845,1037.2679 8.1562585,1037.2997 8.1654315,1037.3315 8.1584375,1037.3538 8.0937585,1037.3935 8.0290785,1037.4333 7.8937565,1037.4815 7.7187585,1037.4872 7.4741135,1037.6004 7.2008465,1037.7715 7.0937575,1037.956 7.0669855,1038.0021 7.0638535,1038.0312 7.0625075,1038.081 7.0611615,1038.1307 7.0600175,1038.1944 7.0937575,1038.2372 7.1612375,1038.3227 7.2937485,1038.3853 7.5000085,1038.4247 7.8933735,1038.6612 8.4532895,1038.9473 9.0312585,1039.0497 9.5673235,1039.1939 10.102252,1039.4082 10.687508,1039.2997 10.697631,1039.3008 10.708742,1039.2991 10.718758,1039.2997 10.959138,1039.314 11.187557,1039.1728 11.312508,1038.9872 11.442666,1038.7939 11.48079,1038.5598 11.375008,1038.3622 11.337412,1038.2171 11.235249,1038.0971 11.125008,1038.0185 11.014767,1037.94 10.902498,1037.8829 10.781258,1037.831 10.660018,1037.779 10.546464,1037.7339 10.468758,1037.6747 10.429905,1037.6451 10.396893,1037.6161 10.375008,1037.581 10.561808,1037.6055 10.752337,1037.6327 10.937508,1037.6747 11.327897,1037.7632 11.69346,1037.8693 11.968758,1038.0185 12.244056,1038.1678 12.420533,1038.3613 12.437508,1038.5497 L 12.437508,1038.581 C 12.840156,1039.2251 13.525675,1039.6361 14.218758,1039.9247 14.38913,1040.0251 14.487112,1040.1307 14.531258,1040.2685 14.575404,1040.4064 14.575606,1040.5512 14.531258,1040.706 14.442562,1041.0154 14.206865,1041.3433 13.968758,1041.5185 L 13.937508,1041.5185 13.937508,1041.5497 C 13.954046,1041.7039 13.911856,1041.8762 13.812508,1041.9872 13.71316,1042.0982 13.550994,1042.1682 13.343758,1042.1435 12.961018,1042.2523 12.688526,1042.5207 12.375008,1042.706 L 12.343758,1042.7372 C 12.311992,1042.8753 12.245608,1042.9733 12.156258,1043.0185 12.066908,1043.0638 11.945726,1043.0681 11.812508,1043.0497 11.452831,1042.9898 11.244344,1043.243 11.093758,1043.3622 11.088201,1043.3666 11.067856,1043.3582 11.062508,1043.3622 10.956765,1043.3559 10.861456,1043.3606 10.781258,1043.3622 10.692149,1043.364 10.615184,1043.3688 10.562508,1043.3935 L 10.562508,1043.4247 C 10.560235,1043.4449 10.534267,1043.4716 10.500008,1043.4872 10.48973,1043.4919 10.480599,1043.4813 10.468758,1043.4872 10.295052,1043.5085 10.124372,1043.5236 9.9375085,1043.5185 9.9263455,1043.5182 9.9174745,1043.519 9.9062585,1043.5185 L 9.9062585,1043.5497 C 9.7796585,1043.5547 9.6720065,1043.582 9.5312585,1043.581 9.2619555,1043.5788 8.9794295,1043.5832 8.7500085,1043.581 8.6352975,1043.5798 8.5218115,1043.5759 8.4375085,1043.581 8.3532055,1043.586 8.2985335,1043.5917 8.2500085,1043.6122 8.1855805,1043.624 8.1313285,1043.6536 8.0937585,1043.706 8.0561875,1043.7583 8.0382395,1043.8485 8.0312585,1043.9247 8.0172945,1044.0771 8.0757025,1044.2503 8.1875085,1044.456 8.4111185,1044.8672 8.8933445,1045.3309 9.7812585,1045.6122 10.786287,1046.0647 13.545756,1046.477 14.625008,1046.4247 15.529405,1046.3927 17.136199,1046.3498 18.031258,1046.0497 18.890721,1045.807 19.830997,1045.4429 20.375008,1044.8935 20.389553,1044.8789 20.42355,1044.8772 20.437508,1044.8622 L 20.500008,1044.7997 20.406258,1044.7997 C 20.391965,1044.7962 20.381865,1044.8043 20.375008,1044.7997 20.368151,1044.7951 20.378083,1044.774 20.375008,1044.7685 20.368857,1044.7576 20.369324,1044.7369 20.375008,1044.706 20.386375,1044.6441 20.423732,1044.5391 20.500008,1044.4247 20.652561,1044.196 20.89835,1043.9082 21.156258,1043.6122 21.414166,1043.3162 21.685173,1043.0287 21.843758,1042.7997 21.923051,1042.6852 21.983279,1042.5716 22.000008,1042.4872 22.008373,1042.445 21.992737,1042.3978 21.968758,1042.3622 21.944779,1042.3266 21.921627,1042.3055 21.875008,1042.2997 L 21.875008,1042.3622 21.843758,1042.3622 21.843758,1042.3935 C 21.859093,1042.4041 21.843962,1042.4272 21.843758,1042.4247 21.820435,1042.4493 21.746697,1042.4812 21.656258,1042.5185 21.475379,1042.5932 21.174428,1042.6681 20.875008,1042.7372 20.575588,1042.8063 20.283714,1042.8857 20.031258,1042.9247 19.90503,1042.9442 19.770787,1042.9483 19.687508,1042.956 19.645868,1042.9598 19.619902,1042.9556 19.593758,1042.956 19.567614,1042.9563 19.561698,1042.9557 19.562508,1042.956 L 19.531258,1042.956 C 19.504996,1042.958 19.465705,1042.9838 19.437508,1042.9872 19.428696,1042.9883 19.415248,1042.986 19.406258,1042.9872 18.8165,1042.8076 18.255977,1042.634 17.656258,1042.4872 L 17.625008,1042.4872 17.593758,1042.4872 C 17.580183,1042.4983 17.588901,1042.4963 17.562508,1042.4872 17.536115,1042.4781 17.485133,1042.4813 17.437508,1042.456 17.349214,1042.409 17.223103,1042.3424 17.062508,1042.3622 17.056681,1042.359 17.037089,1042.3655 17.031258,1042.3622 16.768628,1042.2117 16.511896,1041.929 16.312508,1041.6435 16.187082,1041.3745 16.216888,1041.075 16.218758,1040.7685 16.220567,1040.4721 16.181024,1040.1657 16.000008,1039.8935 L 16.000008,1039.8622 C 15.877895,1039.4599 15.557826,1039.257 15.218758,1039.081 14.872776,1038.9013 14.522353,1038.7349 14.312508,1038.456 14.263372,1038.3425 14.229104,1038.2381 14.250008,1038.1435 14.272929,1038.0398 14.328633,1037.9254 14.406258,1037.831 14.561508,1037.6421 14.804127,1037.4699 14.968758,1037.2997 15.207061,1037.067 15.503361,1036.6358 15.625008,1036.1747 15.685831,1035.9441 15.694097,1035.698 15.625008,1035.4872 15.602521,1035.4186 15.570021,1035.359 15.531258,1035.2997 15.551137,1035.2885 15.577432,1035.2887 15.593758,1035.2685 15.607023,1035.2521 15.61387,1035.2279 15.625008,1035.206 15.812533,1035.2244 16.049312,1035.3491 16.281258,1035.4872 16.403954,1035.5603 16.526877,1035.6254 16.656258,1035.6435 16.785639,1035.6617 16.943044,1035.6269 17.062508,1035.5185 L 17.062508,1035.4872 C 17.064153,1035.4423 17.073915,1035.4402 17.093758,1035.4247 17.113601,1035.4092 17.14538,1035.3944 17.187508,1035.3935 17.271764,1035.3918 17.380712,1035.4112 17.468758,1035.456 17.512781,1035.4783 17.57122,1035.5292 17.593758,1035.5497 17.553689,1035.554 17.476612,1035.5655 17.375008,1035.5497 L 17.343758,1035.5497 17.312508,1035.5497 C 17.180588,1035.7112 17.015914,1035.8595 16.875008,1036.0185 16.734102,1036.1776 16.628899,1036.3522 16.625008,1036.6122 L 16.625008,1036.6435 C 16.869406,1036.9045 17.210449,1036.9066 17.531258,1036.8935 17.852067,1036.8805 18.151364,1036.8821 18.375008,1037.081 L 18.406258,1037.081 C 19.209563,1037.1274 19.958099,1036.9989 20.656258,1036.6122 21.044224,1036.6009 21.31201,1036.4681 21.531258,1036.2685 21.750506,1036.069 21.9111,1035.8008 22.062508,1035.5185 22.088345,1035.4145 22.172798,1035.333 22.281258,1035.2685 22.389718,1035.2041 22.505655,1035.1377 22.625008,1035.081 22.744361,1035.0242 22.858716,1034.9683 22.906258,1034.8622 22.930029,1034.8091 22.955752,1034.7415 22.937508,1034.6747 22.921228,1034.6151 22.864438,1034.5582 22.812508,1034.4872 22.806241,1034.4786 22.819328,1034.4647 22.812508,1034.456 22.844461,1034.3915 22.886436,1034.3259 22.875008,1034.2685 22.860064,1034.1936 22.811259,1034.1304 22.750008,1034.081 22.627505,1033.982 22.434117,1033.92 22.281258,1033.8622 22.204828,1033.8333 22.14318,1033.825 22.093758,1033.7997 22.044336,1033.7744 22.031466,1033.738 22.031258,1033.7372 22.036751,1033.7294 22.035895,1033.7223 22.062508,1033.706 22.115733,1033.6732 22.226571,1033.6284 22.375008,1033.581 22.664536,1033.5154 22.938143,1033.2808 23.062508,1033.0185 23.12469,1032.8874 23.126649,1032.7519 23.093758,1032.6122 23.060867,1032.4725 22.97173,1032.3446 22.812508,1032.2372 22.353553,1032.0209 21.737222,1032.0206 21.343758,1032.3935 21.33643,1032.4005 21.319676,1032.3863 21.312508,1032.3935 21.20528,1032.4287 21.104698,1032.4353 21.062508,1032.4247 21.015117,1032.4128 21.002546,1032.4019 21.000008,1032.3622 20.994933,1032.2828 21.08759,1032.1291 21.250008,1032.0185 L 21.281258,1031.9872 21.281258,1031.956 C 21.29829,1031.8036 21.262096,1031.6962 21.187508,1031.6122 21.11292,1031.5282 20.992452,1031.4823 20.875008,1031.456 20.64012,1031.4032 20.35945,1031.4405 20.156258,1031.456 19.793616,1031.6205 19.302651,1031.4563 18.906258,1031.3935 18.899763,1031.2641 18.878629,1031.1403 18.781258,1031.081 18.663717,1031.0093 18.51486,1030.9894 18.343758,1030.9872 18.001554,1030.9828 17.584838,1031.0626 17.375008,1031.1122 17.101708,1031.1769 16.870795,1031.044 16.625008,1030.8935 16.407786,1030.7606 16.167164,1030.6586 15.906258,1030.6747 16.020964,1030.6276 16.124512,1030.5722 16.156258,1030.4872 16.196932,1030.3782 16.179622,1030.2555 16.125008,1030.1435 16.070394,1030.0316 15.996615,1029.9486 15.906258,1029.8622 15.834436,1029.7935 15.757821,1029.7407 15.687508,1029.706 15.816306,1029.6212 15.937273,1029.5272 15.968758,1029.4247 16.00724,1029.2994 15.98133,1029.1832 15.906258,1029.081 15.756115,1028.8763 15.428043,1028.7449 15.125008,1028.831 15.01271,1028.8568 14.950329,1028.8428 14.906258,1028.7997 14.862187,1028.7566 14.848118,1028.6684 14.812508,1028.581 14.776898,1028.4935 14.728046,1028.38 14.656258,1028.2997 14.590659,1028.2264 14.506887,1028.1896 14.375008,1028.1747 14.368529,1028.1694 14.350315,1028.1799 14.343758,1028.1747 14.005658,1027.9047 13.552456,1027.6898 13.156258,1027.456 L 12.968758,1027.4247 12.906258,1027.4247 z M 14.187508,1035.831 C 14.177991,1035.8965 14.174826,1035.9561 14.156258,1036.0185 14.069895,1036.3084 13.919024,1036.5802 13.750008,1036.706 13.535065,1036.8568 13.367041,1037.1159 13.187508,1037.2997 13.097742,1037.3916 13.009307,1037.477 12.906258,1037.5185 12.803209,1037.5601 12.671223,1037.5599 12.531258,1037.5185 12.317343,1037.5039 12.002265,1037.4344 11.656258,1037.3622 11.719489,1037.3576 11.787132,1037.3773 11.843758,1037.3622 11.972086,1037.3279 12.056938,1037.223 12.125008,1037.1122 12.137348,1037.0921 12.178498,1037.1042 12.187508,1037.081 12.479684,1037.0857 12.891557,1036.9765 13.125008,1036.7997 13.187484,1036.7524 13.249014,1036.6983 13.281258,1036.6435 13.313502,1036.5888 13.304394,1036.5152 13.281258,1036.456 13.258122,1036.3967 13.204298,1036.3693 13.125008,1036.331 13.062449,1036.3007 12.976469,1036.2893 12.875008,1036.2685 12.903064,1036.1983 12.940736,1036.1178 13.000008,1036.081 13.070752,1036.037 13.148063,1036.0353 13.250008,1036.0185 13.453899,1035.985 13.697267,1035.9848 13.875008,1035.9247 14.005139,1035.9062 14.104909,1035.8918 14.187508,1035.831 z"
       id="path3847" />
  </g>
</svg>
