<?xml version="1.0" encoding="UTF-8" standalone="no"?>
<svg
   xmlns:dc="http://purl.org/dc/elements/1.1/"
   xmlns:cc="http://creativecommons.org/ns#"
   xmlns:rdf="http://www.w3.org/1999/02/22-rdf-syntax-ns#"
   xmlns:svg="http://www.w3.org/2000/svg"
   xmlns="http://www.w3.org/2000/svg"
   xmlns:sodipodi="http://sodipodi.sourceforge.net/DTD/sodipodi-0.dtd"
   xmlns:inkscape="http://www.inkscape.org/namespaces/inkscape"
   width="30"
   height="30"
   version="1.1"
   id="svg4"
   sodipodi:docname="Bonsai.NeuroSeeker.svg"
   inkscape:version="0.92.4 (5da689c313, 2019-01-14)">
  <metadata
     id="metadata10">
    <rdf:RDF>
      <cc:Work
         rdf:about="">
        <dc:format>image/svg+xml</dc:format>
        <dc:type
           rdf:resource="http://purl.org/dc/dcmitype/StillImage" />
        <dc:title></dc:title>
      </cc:Work>
    </rdf:RDF>
  </metadata>
  <defs
     id="defs8" />
  <sodipodi:namedview
     pagecolor="#ffffff"
     bordercolor="#666666"
     borderopacity="1"
     objecttolerance="10"
     gridtolerance="10"
     guidetolerance="10"
     inkscape:pageopacity="0"
     inkscape:pageshadow="2"
     inkscape:window-width="1819"
     inkscape:window-height="1057"
     id="namedview6"
     showgrid="false"
     inkscape:zoom="15.733333"
     inkscape:cx="-10.170982"
     inkscape:cy="11.414777"
     inkscape:window-x="93"
     inkscape:window-y="-8"
     inkscape:window-maximized="1"
     inkscape:current-layer="svg4" />
  <path
     style="color:#000000;font-style:normal;font-variant:normal;font-weight:normal;font-stretch:normal;font-size:medium;line-height:normal;font-family:sans-serif;font-variant-ligatures:normal;font-variant-position:normal;font-variant-caps:normal;font-variant-numeric:normal;font-variant-alternates:normal;font-feature-settings:normal;text-indent:0;text-align:start;text-decoration:none;text-decoration-line:none;text-decoration-style:solid;text-decoration-color:#000000;letter-spacing:normal;word-spacing:normal;text-transform:none;writing-mode:lr-tb;direction:ltr;text-orientation:mixed;dominant-baseline:auto;baseline-shift:baseline;text-anchor:start;white-space:normal;shape-padding:0;clip-rule:nonzero;display:inline;overflow:visible;visibility:visible;opacity:1;isolation:auto;mix-blend-mode:normal;color-interpolation:sRGB;color-interpolation-filters:linearRGB;solid-color:#000000;solid-opacity:1;vector-effect:none;fill-opacity:1;fill-rule:evenodd;stroke:none;stroke-width:2;stroke-linecap:round;stroke-linejoin:round;stroke-miterlimit:4;stroke-dasharray:none;stroke-dashoffset:0;stroke-opacity:1;color-rendering:auto;image-rendering:auto;shape-rendering:auto;text-rendering:auto;enable-background:accumulate"
     d="M 12.099609,6.6269531 C 11.32642,6.645013 11.091167,7.4817253 11.051498,8.1135039 10.585216,10.443626 10.1885,12.811128 9.3480719,15.042307 9.114789,16.017271 8.0825834,16.071743 7.2632566,16.005802 6.6153865,15.951438 5.6982435,15.833863 5.4290712,16.613047 5.1418551,17.290256 5.7772128,18.062833 6.4919548,17.972978 7.8675347,18.043359 9.5347517,18.142719 10.501953,16.960938 11.337603,16.000877 11.546813,14.710349 11.847656,13.517578 12.24235,16.600416 12.608241,19.68952 12.959562,22.775791 13.177522,23.616562 14.427103,23.711695 14.814562,22.953069 15.408244,21.92823 15.759517,20.77261 16.423115,19.779669 17.22536,18.404843 18.455546,16.959073 20.186581,16.952107 22.072214,16.805669 23.942709,17.330311 25.820535,17.247033 26.680029,17.06404 26.819775,15.752256 26.018122,15.392298 25.018271,15.143329 23.943571,15.209593 22.921295,15.02734 20.878601,14.819781 18.552554,14.719092 16.880105,16.136067 15.872956,16.943867 15.152653,18.040495 14.529297,19.15625 14.061042,15.204999 13.630159,11.245403 13.103357,7.3035154 12.968318,6.8861385 12.537193,6.5955273 12.099609,6.6269531 Z"
     id="path815"
     inkscape:connector-curvature="0"
     sodipodi:nodetypes="ccccccccccccccccccc" />
</svg>
