<?xml version="1.0" encoding="UTF-8" standalone="no"?>
<!-- Created with Inkscape (http://www.inkscape.org/) -->

<svg
   xmlns:dc="http://purl.org/dc/elements/1.1/"
   xmlns:cc="http://creativecommons.org/ns#"
   xmlns:rdf="http://www.w3.org/1999/02/22-rdf-syntax-ns#"
   xmlns:svg="http://www.w3.org/2000/svg"
   xmlns="http://www.w3.org/2000/svg"
   xmlns:sodipodi="http://sodipodi.sourceforge.net/DTD/sodipodi-0.dtd"
   xmlns:inkscape="http://www.inkscape.org/namespaces/inkscape"
   width="30"
   height="30"
   id="svg2985"
   version="1.1"
   inkscape:version="0.48.4 r9939"
   sodipodi:docname="Bonsai.Editor.Scripting.svg">
  <defs
     id="defs2987" />
  <sodipodi:namedview
     id="base"
     pagecolor="#ffffff"
     bordercolor="#666666"
     borderopacity="1.0"
     inkscape:pageopacity="0.0"
     inkscape:pageshadow="2"
     inkscape:zoom="10.24"
     inkscape:cx="29.739858"
     inkscape:cy="8.0883459"
     inkscape:document-units="mm"
     inkscape:current-layer="layer1"
     showgrid="false"
     inkscape:window-width="2048"
     inkscape:window-height="1017"
     inkscape:window-x="-8"
     inkscape:window-y="-8"
     inkscape:window-maximized="1"
     units="px"
     showguides="true"
     inkscape:guide-bbox="true">
    <sodipodi:guide
       orientation="1,0"
       position="14.941406,30.664063"
       id="guide2998" />
    <sodipodi:guide
       orientation="0,1"
       position="0.87890625,14.941406"
       id="guide3000" />
    <sodipodi:guide
       orientation="0,1"
       position="21.786347,21.682767"
       id="guide3758" />
    <sodipodi:guide
       orientation="0,1"
       position="19.507585,8.1828275"
       id="guide3760" />
    <sodipodi:guide
       orientation="1,0"
       position="25.584283,16.745449"
       id="guide3762" />
  </sodipodi:namedview>
  <metadata
     id="metadata2990">
    <rdf:RDF>
      <cc:Work
         rdf:about="">
        <dc:format>image/svg+xml</dc:format>
        <dc:type
           rdf:resource="http://purl.org/dc/dcmitype/StillImage" />
        <dc:title />
      </cc:Work>
    </rdf:RDF>
  </metadata>
  <g
     inkscape:label="Layer 1"
     inkscape:groupmode="layer"
     id="layer1"
     transform="translate(0,-1022.3622)">
    <g
       id="g9669"
       transform="matrix(0.09447108,0,0,0.09447108,2.7574049,1025.8677)"
       style="fill:#ed0090;fill-opacity:1" />
    <path
       inkscape:connector-curvature="0"
       id="path2993"
       style="font-size:40px;font-style:normal;font-weight:normal;line-height:125%;letter-spacing:0px;word-spacing:0px;fill:#999999;fill-opacity:1;stroke:#999999;stroke-width:0.86426097;stroke-miterlimit:4;stroke-dasharray:none;font-family:Sans"
       d="m 14.732864,1041.9914 c -0.227585,0.3005 -0.489295,0.5727 -0.785129,0.8162 -0.971153,0.7997 -2.163747,1.1996 -3.577787,1.1996 -1.7716316,0 -3.1958375,-0.5505 -4.2726242,-1.6516 -1.0767916,-1.101 -1.6151863,-2.6791 -1.6151855,-4.7343 -8e-7,-1.329 0.2316102,-2.4917 0.6948344,-3.4884 0.4632214,-0.9967 1.1682136,-1.7443 2.1149785,-2.2426 0.9467588,-0.4983 1.9768198,-0.7476 3.0901848,-0.7476 1.405915,0 2.555839,0.3381 3.449793,1.0142 0.283777,0.2146 0.535207,0.4579 0.754287,0.7296 l -1.603873,1.3545 c -0.177316,-0.3012 -0.391882,-0.5535 -0.643698,-0.7571 -0.516055,-0.4173 -1.139781,-0.6258 -1.871177,-0.6259 -1.105241,10e-5 -2.0032413,0.3767 -2.6940079,1.13 -0.690775,0.7534 -1.0361609,1.9451 -1.0361573,3.5754 -3.6e-6,1.6534 0.3331925,2.8548 0.9995871,3.6044 0.6663855,0.7494 1.5359434,1.1241 2.6086771,1.1241 0.861425,0 1.580638,-0.2511 2.157644,-0.7533 0.26754,-0.2329 0.489652,-0.5239 0.666338,-0.8731 z"
       sodipodi:nodetypes="ccsssscsscccccscsccc" />
    <path
       style="fill:none;stroke:#999999;stroke-width:1.72852194;stroke-linecap:butt;stroke-linejoin:miter;stroke-miterlimit:4;stroke-opacity:1;stroke-dasharray:none"
       d="m 14.91015,1035.7193 9.490856,0"
       id="path2999"
       inkscape:connector-curvature="0" />
    <path
       style="fill:#999999;fill-opacity:0.85490196;stroke:#999999;stroke-width:1.72852194;stroke-linecap:butt;stroke-linejoin:miter;stroke-miterlimit:4;stroke-opacity:1;stroke-dasharray:none"
       d="m 18.85384,1031.9798 -2.773584,10.9719"
       id="path3001"
       inkscape:connector-curvature="0" />
    <path
       style="fill:#999999;fill-opacity:0.85490196;stroke:#999999;stroke-width:1.73502803;stroke-linecap:butt;stroke-linejoin:miter;stroke-miterlimit:4;stroke-opacity:1;stroke-dasharray:none"
       d="m 23.054211,1031.949 -2.680228,11.0406"
       id="path3003"
       inkscape:connector-curvature="0" />
    <path
       style="fill:none;stroke:#999999;stroke-width:1.72852194;stroke-linecap:butt;stroke-linejoin:miter;stroke-miterlimit:4;stroke-opacity:1;stroke-dasharray:none"
       d="m 14.91015,1039.3355 9.447519,0"
       id="path3005"
       inkscape:connector-curvature="0" />
  </g>
</svg>
