<?xml version="1.0" encoding="UTF-8" standalone="no"?>
<!-- Created with Inkscape (http://www.inkscape.org/) -->

<svg
   xmlns:dc="http://purl.org/dc/elements/1.1/"
   xmlns:cc="http://creativecommons.org/ns#"
   xmlns:rdf="http://www.w3.org/1999/02/22-rdf-syntax-ns#"
   xmlns:svg="http://www.w3.org/2000/svg"
   xmlns="http://www.w3.org/2000/svg"
   xmlns:sodipodi="http://sodipodi.sourceforge.net/DTD/sodipodi-0.dtd"
   xmlns:inkscape="http://www.inkscape.org/namespaces/inkscape"
   width="30"
   height="30"
   id="svg2985"
   version="1.1"
   inkscape:version="0.92.3 (2405546, 2018-03-11)"
   sodipodi:docname="Bonsai.Expressions.ExpressionBuilder.svg">
  <defs
     id="defs2987" />
  <sodipodi:namedview
     id="base"
     pagecolor="#ffffff"
     bordercolor="#666666"
     borderopacity="1.0"
     inkscape:pageopacity="0.0"
     inkscape:pageshadow="2"
     inkscape:zoom="26.527143"
     inkscape:cx="6.2202709"
     inkscape:cy="13.553292"
     inkscape:document-units="mm"
     inkscape:current-layer="layer2"
     showgrid="false"
     inkscape:window-width="3000"
     inkscape:window-height="1875"
     inkscape:window-x="-13"
     inkscape:window-y="-13"
     inkscape:window-maximized="1"
     units="px"
     showguides="true"
     inkscape:guide-bbox="true"
     inkscape:snap-bbox="true"
     inkscape:snap-bbox-midpoints="true"
     inkscape:snap-object-midpoints="true"
     inkscape:snap-center="true"
     inkscape:object-nodes="true"
     inkscape:snap-intersection-paths="true"
     inkscape:object-paths="true"
     inkscape:snap-bbox-edge-midpoints="true"
     inkscape:bbox-nodes="true"
     inkscape:bbox-paths="true"
     inkscape:snap-smooth-nodes="true"
     inkscape:snap-midpoints="true">
    <sodipodi:guide
       orientation="1,0"
       position="31.347656,36.914062"
       id="guide3878"
       inkscape:locked="false" />
    <sodipodi:guide
       orientation="0,1"
       position="41.015625,25.585937"
       id="guide3899"
       inkscape:locked="false" />
    <sodipodi:guide
       orientation="0,1"
       position="38.476562,4.4921875"
       id="guide3901"
       inkscape:locked="false" />
  </sodipodi:namedview>
  <metadata
     id="metadata2990">
    <rdf:RDF>
      <cc:Work
         rdf:about="">
        <dc:format>image/svg+xml</dc:format>
        <dc:type
           rdf:resource="http://purl.org/dc/dcmitype/StillImage" />
        <dc:title />
      </cc:Work>
    </rdf:RDF>
  </metadata>
  <g
     inkscape:groupmode="layer"
     id="layer2"
     inkscape:label="Layer 1">
    <path
       style="color:#000000;-inkscape-font-specification:Sans;stroke-width:2"
       d="M 22.385148,14.6493 C 20.514423,14.6493 18.986463,16.1773 18.986463,18.048 18.986463,19.9187 20.514423,21.4751 22.385148,21.4751 24.255873,21.4751 25.812155,19.9187 25.812155,18.048 25.812155,16.1773 24.255873,14.6493 22.385148,14.6493 Z"
       id="path3814"
       inkscape:connector-curvature="0" />
    <path
       style="fill:none;stroke:#000000;stroke-width:2"
       d="M 23.45867,8.949 C 23.45867,10.3299 22.339232,11.4494 20.958335,11.4494 19.577438,11.4494 18.458001,10.3299 18.458001,8.949 18.458001,7.5682 19.577438,6.4487 20.958335,6.4487 22.339232,6.4487 23.45867,7.5682 23.45867,8.949 Z"
       id="path4179"
       inkscape:connector-curvature="0" />
    <path
       style="fill:none;stroke:#000000;stroke-width:2"
       d="M 14.891767,22.189 C 14.891767,23.5698 13.772329,24.6893 12.391433,24.6893 11.010535,24.6893 9.8910979,23.5698 9.8910979,22.189 9.8910979,20.8081 11.010535,19.6886 12.391433,19.6886 13.772329,19.6886 14.891767,20.8081 14.891767,22.189 Z"
       id="path4181"
       inkscape:connector-curvature="0" />
    <path
       inkscape:connector-curvature="0"
       id="path4213"
       d="M 16.898597,14.3697 C 16.898597,15.7506 15.779159,16.8701 14.398262,16.8701 13.017365,16.8701 11.897928,15.7506 11.897928,14.3697 11.897928,12.9889 13.017365,11.8694 14.398262,11.8694 15.779159,11.8694 16.898597,12.9889 16.898597,14.3697 Z"
       style="fill:none;stroke:#000000;stroke-width:2" />
    <path
       style="fill:none;fill-rule:evenodd;stroke:#000000;stroke-width:2"
       d="M 19.212392,9.7015 16.584801,12.0373"
       id="path4219"
       inkscape:connector-curvature="0"
       sodipodi:nodetypes="cc" />
    <path
       style="fill:none;fill-rule:evenodd;stroke:#000000;stroke-width:2"
       d="M 12.851553,20.5071 13.567691,16.7288"
       id="path4227"
       inkscape:connector-curvature="0"
       sodipodi:nodetypes="cc" />
    <path
       inkscape:connector-curvature="0"
       id="path4229"
       d="M 11.71683,4.0436 C 9.8461048,4.0436 8.3181448,5.5716 8.3181448,7.4423 8.3181448,9.313 9.8461048,10.8694 11.71683,10.8694 13.587555,10.8694 15.143837,9.313 15.143837,7.4423 15.143837,5.5716 13.587555,4.0436 11.71683,4.0436 Z"
       style="color:#000000;-inkscape-font-specification:Sans;stroke-width:2" />
    <path
       style="color:#000000;-inkscape-font-specification:Sans;stroke-width:2"
       d="M 6.3261251,11.8628 C 4.4553999,11.8628 2.9274399,13.3908 2.9274399,15.2615 2.9274399,17.1322 4.4553999,18.6886 6.3261251,18.6886 8.1968501,18.6886 9.7531321,17.1322 9.7531321,15.2615 9.7531321,13.3908 8.1968501,11.8628 6.3261251,11.8628 Z"
       id="path4233"
       inkscape:connector-curvature="0" />
  </g>
</svg>
