<?xml version="1.0" encoding="UTF-8" standalone="no"?>
<!-- Created with Inkscape (http://www.inkscape.org/) -->

<svg
   xmlns:dc="http://purl.org/dc/elements/1.1/"
   xmlns:cc="http://creativecommons.org/ns#"
   xmlns:rdf="http://www.w3.org/1999/02/22-rdf-syntax-ns#"
   xmlns:svg="http://www.w3.org/2000/svg"
   xmlns="http://www.w3.org/2000/svg"
   xmlns:sodipodi="http://sodipodi.sourceforge.net/DTD/sodipodi-0.dtd"
   xmlns:inkscape="http://www.inkscape.org/namespaces/inkscape"
   width="30"
   height="30"
   id="svg2985"
   version="1.1"
   inkscape:version="0.92.3 (2405546, 2018-03-11)"
   sodipodi:docname="Bonsai.Design.ElementCategory.Workflow.svg">
  <defs
     id="defs2987" />
  <sodipodi:namedview
     id="base"
     pagecolor="#ffffff"
     bordercolor="#666666"
     borderopacity="1.0"
     inkscape:pageopacity="0.0"
     inkscape:pageshadow="2"
     inkscape:zoom="8"
     inkscape:cx="22.837719"
     inkscape:cy="10.877531"
     inkscape:document-units="mm"
     inkscape:current-layer="layer1"
     showgrid="false"
     inkscape:window-width="3000"
     inkscape:window-height="1875"
     inkscape:window-x="-13"
     inkscape:window-y="-13"
     inkscape:window-maximized="1"
     units="px"
     showguides="true"
     inkscape:guide-bbox="true">
    <sodipodi:guide
       orientation="0,1"
       position="-17.285156,15.039062"
       id="guide4444"
       inkscape:locked="false" />
    <sodipodi:guide
       orientation="1,0"
       position="14.941406,41.796875"
       id="guide4446"
       inkscape:locked="false" />
  </sodipodi:namedview>
  <metadata
     id="metadata2990">
    <rdf:RDF>
      <cc:Work
         rdf:about="">
        <dc:format>image/svg+xml</dc:format>
        <dc:type
           rdf:resource="http://purl.org/dc/dcmitype/StillImage" />
        <dc:title />
      </cc:Work>
    </rdf:RDF>
  </metadata>
  <g
     inkscape:label="Layer 1"
     inkscape:groupmode="layer"
     id="layer1"
     transform="translate(0,-1022.3622)">
    <path
       inkscape:connector-curvature="0"
       style="fill:none;stroke:#a9a9a9;stroke-width:1.99842525;stroke-miterlimit:4;stroke-opacity:1"
       d="m 9.1945428,1018.5672 c 1.2977622,-0.401 2.6054202,-0.6602 3.9063262,-0.7886 1.301148,-0.1276 2.595462,-0.123 3.866925,0 1.27151,0.1282 2.519856,0.3799 3.728756,0.7465"
       id="path3901" />
    <path
       inkscape:connector-curvature="0"
       style="fill:none;stroke:#a9a9a9;stroke-width:1.99842525;stroke-miterlimit:4;stroke-opacity:1"
       d="m 24.187753,1019.961 c 1.11316,0.5876 2.170387,1.2815 3.15499,2.0727 0.984651,0.7914 1.896678,1.6802 2.71975,2.6576 0.822964,0.9776 1.557129,2.0438 2.185589,3.1902"
       id="path3899" />
    <path
       inkscape:connector-curvature="0"
       style="fill:none;stroke:#a9a9a9;stroke-width:1.99842525;stroke-miterlimit:4;stroke-opacity:1"
       d="m 33.800495,1031.5519 c 0.400982,1.2977 0.66028,2.6055 0.788668,3.9064 0.127766,1.3011 0.123018,2.5957 -0.0051,3.867 -0.1282,1.2715 -0.379898,2.5198 -0.746548,3.7286"
       id="path3897" />
    <path
       inkscape:connector-curvature="0"
       style="fill:none;stroke:#a9a9a9;stroke-width:1.99842525;stroke-miterlimit:4;stroke-opacity:1"
       d="m 32.401665,1046.5451 c -0.587645,1.1131 -1.281491,2.1704 -2.072881,3.155 -0.791234,0.9846 -1.680169,1.8967 -2.657585,2.7198 -0.977417,0.823 -2.043674,1.557 -3.190068,2.1855"
       id="path3895" />
    <path
       inkscape:connector-curvature="0"
       style="fill:none;stroke:#a9a9a9;stroke-width:1.99842525;stroke-miterlimit:4;stroke-opacity:1"
       d="m 20.810799,1056.1578 c -1.297763,0.401 -2.605575,0.6603 -3.906482,0.7887 -1.301099,0.1277 -2.595414,0.1231 -3.866924,-0.01 -1.271462,-0.128 -2.519701,-0.3799 -3.7286002,-0.7465"
       id="path3893" />
    <path
       inkscape:connector-curvature="0"
       style="fill:none;stroke:#a9a9a9;stroke-width:1.99842525;stroke-miterlimit:4;stroke-opacity:1"
       d="m 5.8175908,1054.7541 c -1.1131605,-0.5876 -2.1703865,-1.2815 -3.1549895,-2.0727 -0.984651,-0.7914 -1.89663008,-1.68 -2.71975008,-2.6576 -0.822916,-0.9775 -1.55692592,-2.0437 -2.18554092,-3.1901"
       id="path3891" />
    <path
       inkscape:connector-curvature="0"
       style="fill:none;stroke:#a9a9a9;stroke-width:1.99842525;stroke-miterlimit:4;stroke-opacity:1"
       d="m -3.7951507,1043.1632 c -0.400934,-1.2976 -0.660281,-2.6055 -0.78862,-3.9063 -0.127611,-1.3011 -0.123018,-2.5956 0.005,-3.8671 0.128247,-1.2713 0.379946,-2.5197 0.746596,-3.7284"
       id="path3889" />
    <path
       inkscape:connector-curvature="0"
       style="fill:none;stroke:#a9a9a9;stroke-width:1.99842525;stroke-miterlimit:4;stroke-opacity:1"
       d="m -2.3963437,1028.17 c 0.587646,-1.1131 1.28154,-2.1702 2.07277392,-3.1548 0.79139,-0.9846 1.67996608,-1.8968 2.65753708,-2.7199 0.977417,-0.8231 2.043674,-1.5571 3.1900675,-2.1855"
       id="circle6558-1" />
  </g>
</svg>
