<?xml version="1.0" encoding="UTF-8" standalone="no"?>
<!-- Created with Inkscape (http://www.inkscape.org/) -->

<svg
   xmlns:dc="http://purl.org/dc/elements/1.1/"
   xmlns:cc="http://creativecommons.org/ns#"
   xmlns:rdf="http://www.w3.org/1999/02/22-rdf-syntax-ns#"
   xmlns:svg="http://www.w3.org/2000/svg"
   xmlns="http://www.w3.org/2000/svg"
   xmlns:sodipodi="http://sodipodi.sourceforge.net/DTD/sodipodi-0.dtd"
   xmlns:inkscape="http://www.inkscape.org/namespaces/inkscape"
   width="30"
   height="30"
   id="svg2985"
   version="1.1"
   inkscape:version="0.92.3 (2405546, 2018-03-11)"
   sodipodi:docname="Bonsai.Expressions.ConditionBuilder.svg">
  <defs
     id="defs2987" />
  <sodipodi:namedview
     id="base"
     pagecolor="#ffffff"
     bordercolor="#666666"
     borderopacity="1.0"
     inkscape:pageopacity="0.0"
     inkscape:pageshadow="2"
     inkscape:zoom="32"
     inkscape:cx="3.744035"
     inkscape:cy="15.335713"
     inkscape:document-units="mm"
     inkscape:current-layer="layer1"
     showgrid="false"
     inkscape:window-width="3000"
     inkscape:window-height="1875"
     inkscape:window-x="-13"
     inkscape:window-y="-13"
     inkscape:window-maximized="1"
     units="px"
     showguides="true"
     inkscape:guide-bbox="true"
     inkscape:object-nodes="false"
     inkscape:snap-object-midpoints="true"
     inkscape:snap-nodes="true"
     inkscape:snap-global="false"
     inkscape:snap-bbox="true"
     inkscape:snap-grids="true"
     inkscape:snap-to-guides="true"
     inkscape:snap-center="true"
     inkscape:snap-intersection-paths="true">
    <sodipodi:guide
       position="10.098369,11.203223"
       orientation="1,0"
       id="guide912"
       inkscape:locked="false" />
    <sodipodi:guide
       position="12.573242,10.650796"
       orientation="1,0"
       id="guide914"
       inkscape:locked="false" />
    <sodipodi:guide
       position="19.875,16.0625"
       orientation="1,0"
       id="guide922"
       inkscape:locked="false" />
  </sodipodi:namedview>
  <metadata
     id="metadata2990">
    <rdf:RDF>
      <cc:Work
         rdf:about="">
        <dc:format>image/svg+xml</dc:format>
        <dc:type
           rdf:resource="http://purl.org/dc/dcmitype/StillImage" />
        <dc:title />
      </cc:Work>
    </rdf:RDF>
  </metadata>
  <g
     inkscape:label="Layer 1"
     inkscape:groupmode="layer"
     id="layer1"
     transform="translate(0,-1022.3622)">
    <path
       style="color:#000000;-inkscape-font-specification:Sans;stroke-width:1.83261335"
       d="M 11.051513,1036.4299 H 4.3671359 v 1.9956 h 5.1455513"
       id="path6774"
       inkscape:connector-curvature="0"
       sodipodi:nodetypes="cccc" />
    <path
       style="color:#000000;-inkscape-font-specification:Sans;stroke-width:1.72489202"
       d="m 19.495799,1033.2645 v 3.1511 h -2.219541 l -1.522034,2.0221 h 3.741575 v 3.1197 l 7.063139,-4.1307 z"
       id="path3020"
       inkscape:connector-curvature="0"
       sodipodi:nodetypes="cccccccc" />
    <path
       style="color:#000000;-inkscape-font-specification:'Sans Bold';stroke-width:0.83217394"
       d="m 12.063461,1029.6799 c -1.265699,10e-5 -2.3550094,0.3791 -3.1585925,1.1492 -0.3032092,0.2906 -0.5882344,0.6582 -0.8188943,1.0609 l -0.2047236,0.3537 0.3509547,0.2062 1.3745727,0.7663 0.3309424,0.1795 0.049258,0.026 0.2047236,-0.383 c 0.131531,-0.2578 0.303603,-0.4518 0.497185,-0.6483 0.352183,-0.3576 0.753951,-0.4715 1.374573,-0.4715 0.595617,0 1.052571,0.1875 1.462313,0.6187 0.415937,0.438 0.614164,0.9085 0.614169,1.4735 -5e-6,0.3056 -0.07292,0.5747 -0.204724,0.8251 -0.119202,0.2266 -0.433689,0.6402 -0.965124,1.1493 -0.552981,0.5299 -0.96096,0.9289 -1.199096,1.2378 -0.308021,0.4026 -0.526777,0.8199 -0.672664,1.2375 -0.195919,0.5461 -0.277842,1.1772 -0.277839,1.8861 -3e-6,0.1213 -0.006,0.2709 0,0.5009 v 0.4126 h 0.424071 1.520805 0.394823 v -0.4126 c 0.01143,-0.6704 0.07237,-1.1474 0.131608,-1.3849 0.06554,-0.2628 0.164084,-0.4868 0.292463,-0.6779 0.116329,-0.1729 0.430218,-0.5447 0.935879,-1.0313 0.78291,-0.7529 1.336783,-1.3862 1.637788,-1.9745 0.293414,-0.5735 0.438684,-1.2165 0.438694,-1.8858 -10e-6,-1.1526 -0.440086,-2.1652 -1.257588,-2.9765 -0.830359,-0.8243 -1.938715,-1.2375 -3.275578,-1.2376 z"
       id="path3830"
       inkscape:connector-curvature="0"
       sodipodi:nodetypes="ccccccccccsccccccccccccccccccccc" />
    <path
       style="color:#000000;-inkscape-font-specification:'Sans Bold';stroke-width:0.70885664"
       d="m 10.815999,1043.0962 v 0.3422 1.637 0.3418 h 0.358327 1.586879 0.358326 v -0.3418 -1.637 -0.3422 h -0.358326 -1.586879 z"
       id="path3834"
       inkscape:connector-curvature="0" />
  </g>
</svg>
