<?xml version="1.0" encoding="UTF-8"?>
<svg width="30" height="30" version="1.1" xmlns="http://www.w3.org/2000/svg">
 <path d="m13.758 21.9 2.3736-3.39-2.2745-3.1918h2.1257l1.1651 1.8097 1.2271-1.8097h2.0452l-2.2311 3.1174 2.4356 3.4644h-2.1382l-1.3386-2.0389-1.351 2.0389zm-5.3807 1.9 2.2445-10.722h-1.8841l0.33747-1.6283h1.884l0.36043-1.756c0.18602-0.8761 0.37804-1.5077 0.57567-1.8955 0.19776-0.3876 0.51941-0.7075 0.9652-0.9594s1.0525-0.378 1.82-0.378c0.53497 0 1.3103 0.1123 2.3259 0.3373l-0.38378 1.8373c-0.71321-0.1859-1.3102-0.279-1.7909-0.279-0.41096 0-0.72291 0.102-0.93611 0.3081-0.21333 0.2055-0.39731 0.6921-0.55245 1.4596l-0.27903 1.3256h2.3491l-0.33734 1.6283h-2.3491l-2.2445 10.722z"/>
</svg>
