<?xml version="1.0" encoding="UTF-8" standalone="no"?>
<!-- Created with Inkscape (http://www.inkscape.org/) -->

<svg
   xmlns:dc="http://purl.org/dc/elements/1.1/"
   xmlns:cc="http://creativecommons.org/ns#"
   xmlns:rdf="http://www.w3.org/1999/02/22-rdf-syntax-ns#"
   xmlns:svg="http://www.w3.org/2000/svg"
   xmlns="http://www.w3.org/2000/svg"
   xmlns:sodipodi="http://sodipodi.sourceforge.net/DTD/sodipodi-0.dtd"
   xmlns:inkscape="http://www.inkscape.org/namespaces/inkscape"
   width="30"
   height="30"
   id="svg2985"
   version="1.1"
   inkscape:version="0.92.3 (2405546, 2018-03-11)"
   sodipodi:docname="Bonsai.Numerics.svg">
  <defs
     id="defs2987" />
  <sodipodi:namedview
     id="base"
     pagecolor="#ffffff"
     bordercolor="#666666"
     borderopacity="1.0"
     inkscape:pageopacity="0.0"
     inkscape:pageshadow="2"
     inkscape:zoom="20.48"
     inkscape:cx="-2.9656406"
     inkscape:cy="15.271915"
     inkscape:document-units="mm"
     inkscape:current-layer="layer2"
     showgrid="false"
     inkscape:window-width="3000"
     inkscape:window-height="1875"
     inkscape:window-x="-13"
     inkscape:window-y="-13"
     inkscape:window-maximized="1"
     units="px"
     showguides="true"
     inkscape:guide-bbox="true">
    <sodipodi:guide
       position="14.990234,22.998047"
       orientation="1,0"
       id="guide831"
       inkscape:locked="false" />
    <sodipodi:guide
       position="-0.73242187,14.990234"
       orientation="0,1"
       id="guide833"
       inkscape:locked="false" />
    <sodipodi:guide
       position="12.792969,12.744141"
       orientation="0.70710678,-0.70710678"
       id="guide829"
       inkscape:locked="false" />
    <sodipodi:guide
       position="6.0546875,13.134766"
       orientation="1,0"
       id="guide832"
       inkscape:locked="false" />
    <sodipodi:guide
       position="23.144531,10.546875"
       orientation="1,0"
       id="guide834"
       inkscape:locked="false" />
  </sodipodi:namedview>
  <metadata
     id="metadata2990">
    <rdf:RDF>
      <cc:Work
         rdf:about="">
        <dc:format>image/svg+xml</dc:format>
        <dc:type
           rdf:resource="http://purl.org/dc/dcmitype/StillImage" />
        <dc:title />
      </cc:Work>
    </rdf:RDF>
  </metadata>
  <g
     inkscape:groupmode="layer"
     id="layer2"
     inkscape:label="Layer 1">
    <path
       inkscape:connector-curvature="0"
       id="path9311"
       style="stroke-width:1.10048378"
       d="M 16.305068,15.0098 17.739034,9.7022 H 16.535342 L 16.750941,8.8961 H 17.954555 L 18.184827,8.0269 C 18.303675,7.5933 18.426351,7.2808 18.552615,7.0886 18.678939,6.8969 18.884452,6.7385 19.169257,6.6138 19.454065,6.4884 19.841655,6.4265 20.332033,6.4265 20.673816,6.4265 21.16917,6.4815 21.818012,6.5936 L 21.572822,7.5031 C 21.117164,7.4121 20.735768,7.3648 20.42863,7.3648 20.166078,7.3648 19.966777,7.4168 19.830573,7.5174 19.694299,7.6187 19.576739,7.86 19.477619,8.24 L 19.299353,8.8961 H 20.800163 L 20.584644,9.7022 H 19.083833 L 17.649864,15.0098 Z" />
    <path
       style="color:#000000;stroke-width:0.27512094"
       d="M 9.0685325,8.9087 V 9.0462 L 9.0104995,21.1581 H 7.3554748 V 22.351 H 9.0062005 L 8.9997505,23.8534 H 10.194807 L 10.201307,22.351 H 23.164236 V 21.1581 H 10.205555 L 10.261435,8.9087 Z"
       id="path827"
       inkscape:connector-curvature="0" />
    <path
       style="color:#000000;stroke-width:0.26155698"
       d="M 11.694322,8.8893 11.692322,9.0234 C 11.615542,13.3615 13.197719,16.3805 15.439303,18.1514 17.68003,19.9215 20.529719,20.4617 23.018966,20.0495 L 23.144531,20.0285 22.971133,18.8803 22.84557,18.9013 C 20.634361,19.2675 18.066869,18.7725 16.102997,17.2211 14.138153,15.6687 12.727029,13.0813 12.798479,9.0441 L 12.800479,8.9101 Z"
       id="path823"
       inkscape:connector-curvature="0" />
  </g>
</svg>
