<?xml version="1.0" encoding="UTF-8" standalone="no"?>
<!-- Created with Inkscape (http://www.inkscape.org/) -->

<svg
   xmlns:dc="http://purl.org/dc/elements/1.1/"
   xmlns:cc="http://creativecommons.org/ns#"
   xmlns:rdf="http://www.w3.org/1999/02/22-rdf-syntax-ns#"
   xmlns:svg="http://www.w3.org/2000/svg"
   xmlns="http://www.w3.org/2000/svg"
   xmlns:xlink="http://www.w3.org/1999/xlink"
   xmlns:sodipodi="http://sodipodi.sourceforge.net/DTD/sodipodi-0.dtd"
   xmlns:inkscape="http://www.inkscape.org/namespaces/inkscape"
   width="30"
   height="30"
   id="svg2985"
   version="1.1"
   inkscape:version="0.48.4 r9939"
   sodipodi:docname="Bonsai.Expressions.NestedWorkflowBuilder.svg">
  <defs
     id="defs2987">
    <linearGradient
       gradientTransform="matrix(0.02925754,0,0,0.02094792,-2337.0601,1645.8972)"
       y2="-606.33649"
       x2="-1680.355"
       y1="1441.4624"
       x1="-628.78992"
       gradientUnits="userSpaceOnUse"
       id="linearGradient4041-8"
       xlink:href="#linearGradient3809-4"
       inkscape:collect="always" />
    <linearGradient
       gradientTransform="matrix(0.03422298,0,0,0.02450309,88.4659,41.2573)"
       y2="460.91336"
       x2="-1426.9924"
       y1="1110.484"
       x1="-1231.092"
       gradientUnits="userSpaceOnUse"
       id="linearGradient4039-2"
       xlink:href="#linearGradient3817-1"
       inkscape:collect="always" />
    <linearGradient
       id="linearGradient3809-4">
      <stop
         id="stop3811-5"
         offset="0"
         style="stop-color:#000000;stop-opacity:1;" />
      <stop
         id="stop3813-5"
         offset="1"
         style="stop-color:#00b200;stop-opacity:1;" />
    </linearGradient>
    <linearGradient
       id="linearGradient3817-1">
      <stop
         id="stop3819-7"
         offset="0"
         style="stop-color:#4c2710;stop-opacity:1;" />
      <stop
         id="stop3821-1"
         offset="1"
         style="stop-color:#2e170a;stop-opacity:1;" />
    </linearGradient>
    <linearGradient
       inkscape:collect="always"
       xlink:href="#linearGradient3817-1"
       id="linearGradient3039-1"
       gradientUnits="userSpaceOnUse"
       gradientTransform="matrix(0.03422298,0,0,0.02450309,88.4659,41.2573)"
       x1="-1231.092"
       y1="1110.484"
       x2="-1426.9924"
       y2="460.91336" />
    <linearGradient
       inkscape:collect="always"
       xlink:href="#linearGradient3809-4"
       id="linearGradient3041-5"
       gradientUnits="userSpaceOnUse"
       gradientTransform="matrix(0.02925754,0,0,0.02094792,-2337.0601,1645.8972)"
       x1="-628.78992"
       y1="1441.4624"
       x2="-1680.355"
       y2="-606.33649" />
    <linearGradient
       inkscape:collect="always"
       xlink:href="#linearGradient3809-4"
       id="linearGradient3045-2"
       gradientUnits="userSpaceOnUse"
       gradientTransform="matrix(0.00989025,0,0,0.00708125,7.7769837,1036.5091)"
       x1="-628.78992"
       y1="1441.4624"
       x2="-1680.355"
       y2="-606.33649" />
    <linearGradient
       y2="-606.33649"
       x2="-1680.355"
       y1="1441.4624"
       x1="-628.78992"
       gradientTransform="matrix(0.00989025,0,0,0.00708125,7.7769837,1036.5091)"
       gradientUnits="userSpaceOnUse"
       id="linearGradient3045"
       xlink:href="#linearGradient3809"
       inkscape:collect="always" />
    <linearGradient
       y2="-606.33649"
       x2="-1680.355"
       y1="1441.4624"
       x1="-628.78992"
       gradientTransform="matrix(0.02925754,0,0,0.02094792,-2337.0601,1645.8972)"
       gradientUnits="userSpaceOnUse"
       id="linearGradient3041"
       xlink:href="#linearGradient3809"
       inkscape:collect="always" />
    <linearGradient
       y2="460.91336"
       x2="-1426.9924"
       y1="1110.484"
       x1="-1231.092"
       gradientTransform="matrix(0.03422298,0,0,0.02450309,88.4659,41.2573)"
       gradientUnits="userSpaceOnUse"
       id="linearGradient3039"
       xlink:href="#linearGradient3817"
       inkscape:collect="always" />
    <linearGradient
       id="linearGradient3817">
      <stop
         style="stop-color:#4c2710;stop-opacity:1;"
         offset="0"
         id="stop3819" />
      <stop
         style="stop-color:#2e170a;stop-opacity:1;"
         offset="1"
         id="stop3821" />
    </linearGradient>
    <linearGradient
       id="linearGradient3809">
      <stop
         style="stop-color:#000000;stop-opacity:1;"
         offset="0"
         id="stop3811" />
      <stop
         style="stop-color:#00b200;stop-opacity:1;"
         offset="1"
         id="stop3813" />
    </linearGradient>
    <linearGradient
       inkscape:collect="always"
       xlink:href="#linearGradient3817"
       id="linearGradient4039"
       gradientUnits="userSpaceOnUse"
       x1="-1231.092"
       y1="1110.484"
       x2="-1426.9924"
       y2="460.91336"
       gradientTransform="matrix(0.03422298,0,0,0.02450309,88.4659,41.2573)" />
    <linearGradient
       inkscape:collect="always"
       xlink:href="#linearGradient3809"
       id="linearGradient4041"
       gradientUnits="userSpaceOnUse"
       x1="-628.78992"
       y1="1441.4624"
       x2="-1680.355"
       y2="-606.33649"
       gradientTransform="matrix(0.02925754,0,0,0.02094792,-2337.0601,1645.8972)" />
    <linearGradient
       gradientTransform="matrix(0.02925754,0,0,0.02094792,-2337.0601,1645.8972)"
       y2="-606.33649"
       x2="-1680.355"
       y1="1441.4624"
       x1="-628.78992"
       gradientUnits="userSpaceOnUse"
       id="linearGradient4041-8-7"
       xlink:href="#linearGradient3809-4-9"
       inkscape:collect="always" />
    <linearGradient
       gradientTransform="matrix(0.03422298,0,0,0.02450309,88.4659,41.2573)"
       y2="460.91336"
       x2="-1426.9924"
       y1="1110.484"
       x1="-1231.092"
       gradientUnits="userSpaceOnUse"
       id="linearGradient4039-2-0"
       xlink:href="#linearGradient3817-1-1"
       inkscape:collect="always" />
    <linearGradient
       id="linearGradient3809-4-9">
      <stop
         id="stop3811-5-8"
         offset="0"
         style="stop-color:#000000;stop-opacity:1;" />
      <stop
         id="stop3813-5-4"
         offset="1"
         style="stop-color:#00b200;stop-opacity:1;" />
    </linearGradient>
    <linearGradient
       id="linearGradient3817-1-1">
      <stop
         id="stop3819-7-3"
         offset="0"
         style="stop-color:#4c2710;stop-opacity:1;" />
      <stop
         id="stop3821-1-5"
         offset="1"
         style="stop-color:#2e170a;stop-opacity:1;" />
    </linearGradient>
    <linearGradient
       inkscape:collect="always"
       xlink:href="#linearGradient3817-1-1"
       id="linearGradient3039-1-9"
       gradientUnits="userSpaceOnUse"
       gradientTransform="matrix(0.03422298,0,0,0.02450309,88.4659,41.2573)"
       x1="-1231.092"
       y1="1110.484"
       x2="-1426.9924"
       y2="460.91336" />
    <linearGradient
       inkscape:collect="always"
       xlink:href="#linearGradient3809-4-9"
       id="linearGradient3041-5-2"
       gradientUnits="userSpaceOnUse"
       gradientTransform="matrix(0.02925754,0,0,0.02094792,-2337.0601,1645.8972)"
       x1="-628.78992"
       y1="1441.4624"
       x2="-1680.355"
       y2="-606.33649" />
    <linearGradient
       inkscape:collect="always"
       xlink:href="#linearGradient3809-4-9"
       id="linearGradient3045-2-8"
       gradientUnits="userSpaceOnUse"
       gradientTransform="matrix(0.00989025,0,0,0.00708125,7.7769837,1036.5091)"
       x1="-628.78992"
       y1="1441.4624"
       x2="-1680.355"
       y2="-606.33649" />
    <linearGradient
       y2="-606.33649"
       x2="-1680.355"
       y1="1441.4624"
       x1="-628.78992"
       gradientTransform="matrix(0.00989025,0,0,0.00708125,7.7769837,1036.5091)"
       gradientUnits="userSpaceOnUse"
       id="linearGradient3045-8"
       xlink:href="#linearGradient3809-6"
       inkscape:collect="always" />
    <linearGradient
       y2="-606.33649"
       x2="-1680.355"
       y1="1441.4624"
       x1="-628.78992"
       gradientTransform="matrix(0.02925754,0,0,0.02094792,-2337.0601,1645.8972)"
       gradientUnits="userSpaceOnUse"
       id="linearGradient3041-7"
       xlink:href="#linearGradient3809-6"
       inkscape:collect="always" />
    <linearGradient
       y2="460.91336"
       x2="-1426.9924"
       y1="1110.484"
       x1="-1231.092"
       gradientTransform="matrix(0.03422298,0,0,0.02450309,88.4659,41.2573)"
       gradientUnits="userSpaceOnUse"
       id="linearGradient3039-3"
       xlink:href="#linearGradient3817-4"
       inkscape:collect="always" />
    <linearGradient
       id="linearGradient3817-4">
      <stop
         style="stop-color:#4c2710;stop-opacity:1;"
         offset="0"
         id="stop3819-9" />
      <stop
         style="stop-color:#2e170a;stop-opacity:1;"
         offset="1"
         id="stop3821-6" />
    </linearGradient>
    <linearGradient
       id="linearGradient3809-6">
      <stop
         style="stop-color:#000000;stop-opacity:1;"
         offset="0"
         id="stop3811-1" />
      <stop
         style="stop-color:#00b200;stop-opacity:1;"
         offset="1"
         id="stop3813-8" />
    </linearGradient>
    <linearGradient
       inkscape:collect="always"
       xlink:href="#linearGradient3817-4"
       id="linearGradient4039-6"
       gradientUnits="userSpaceOnUse"
       x1="-1231.092"
       y1="1110.484"
       x2="-1426.9924"
       y2="460.91336"
       gradientTransform="matrix(0.03422298,0,0,0.02450309,88.4659,41.2573)" />
    <linearGradient
       inkscape:collect="always"
       xlink:href="#linearGradient3809-6"
       id="linearGradient4041-0"
       gradientUnits="userSpaceOnUse"
       x1="-628.78992"
       y1="1441.4624"
       x2="-1680.355"
       y2="-606.33649"
       gradientTransform="matrix(0.02925754,0,0,0.02094792,-2337.0601,1645.8972)" />
    <linearGradient
       gradientTransform="matrix(0.02925754,0,0,0.02094792,-2337.0601,1645.8972)"
       y2="-606.33649"
       x2="-1680.355"
       y1="1441.4624"
       x1="-628.78992"
       gradientUnits="userSpaceOnUse"
       id="linearGradient4041-8-77"
       xlink:href="#linearGradient3809-4-7"
       inkscape:collect="always" />
    <linearGradient
       gradientTransform="matrix(0.03422298,0,0,0.02450309,88.4659,41.2573)"
       y2="460.91336"
       x2="-1426.9924"
       y1="1110.484"
       x1="-1231.092"
       gradientUnits="userSpaceOnUse"
       id="linearGradient4039-2-7"
       xlink:href="#linearGradient3817-1-14"
       inkscape:collect="always" />
    <linearGradient
       id="linearGradient3809-4-7">
      <stop
         id="stop3811-5-1"
         offset="0"
         style="stop-color:#000000;stop-opacity:1;" />
      <stop
         id="stop3813-5-7"
         offset="1"
         style="stop-color:#00b200;stop-opacity:1;" />
    </linearGradient>
    <linearGradient
       id="linearGradient3817-1-14">
      <stop
         id="stop3819-7-6"
         offset="0"
         style="stop-color:#4c2710;stop-opacity:1;" />
      <stop
         id="stop3821-1-0"
         offset="1"
         style="stop-color:#2e170a;stop-opacity:1;" />
    </linearGradient>
    <linearGradient
       inkscape:collect="always"
       xlink:href="#linearGradient3817-1-14"
       id="linearGradient3039-1-0"
       gradientUnits="userSpaceOnUse"
       gradientTransform="matrix(0.03422298,0,0,0.02450309,88.4659,41.2573)"
       x1="-1231.092"
       y1="1110.484"
       x2="-1426.9924"
       y2="460.91336" />
    <linearGradient
       inkscape:collect="always"
       xlink:href="#linearGradient3809-4-7"
       id="linearGradient3041-5-20"
       gradientUnits="userSpaceOnUse"
       gradientTransform="matrix(0.02925754,0,0,0.02094792,-2337.0601,1645.8972)"
       x1="-628.78992"
       y1="1441.4624"
       x2="-1680.355"
       y2="-606.33649" />
    <linearGradient
       inkscape:collect="always"
       xlink:href="#linearGradient3809-4-7"
       id="linearGradient3045-2-1"
       gradientUnits="userSpaceOnUse"
       gradientTransform="matrix(0.00989025,0,0,0.00708125,7.7769837,1036.5091)"
       x1="-628.78992"
       y1="1441.4624"
       x2="-1680.355"
       y2="-606.33649" />
    <linearGradient
       y2="-606.33649"
       x2="-1680.355"
       y1="1441.4624"
       x1="-628.78992"
       gradientTransform="matrix(0.00989025,0,0,0.00708125,7.7769837,1036.5091)"
       gradientUnits="userSpaceOnUse"
       id="linearGradient3045-4"
       xlink:href="#linearGradient3809-3"
       inkscape:collect="always" />
    <linearGradient
       y2="-606.33649"
       x2="-1680.355"
       y1="1441.4624"
       x1="-628.78992"
       gradientTransform="matrix(0.02925754,0,0,0.02094792,-2337.0601,1645.8972)"
       gradientUnits="userSpaceOnUse"
       id="linearGradient3041-75"
       xlink:href="#linearGradient3809-3"
       inkscape:collect="always" />
    <linearGradient
       y2="460.91336"
       x2="-1426.9924"
       y1="1110.484"
       x1="-1231.092"
       gradientTransform="matrix(0.03422298,0,0,0.02450309,88.4659,41.2573)"
       gradientUnits="userSpaceOnUse"
       id="linearGradient3039-5"
       xlink:href="#linearGradient3817-6"
       inkscape:collect="always" />
    <linearGradient
       id="linearGradient3817-6">
      <stop
         style="stop-color:#4c2710;stop-opacity:1;"
         offset="0"
         id="stop3819-0" />
      <stop
         style="stop-color:#2e170a;stop-opacity:1;"
         offset="1"
         id="stop3821-16" />
    </linearGradient>
    <linearGradient
       id="linearGradient3809-3">
      <stop
         style="stop-color:#000000;stop-opacity:1;"
         offset="0"
         id="stop3811-7" />
      <stop
         style="stop-color:#00b200;stop-opacity:1;"
         offset="1"
         id="stop3813-2" />
    </linearGradient>
    <linearGradient
       inkscape:collect="always"
       xlink:href="#linearGradient3817-6"
       id="linearGradient4039-7"
       gradientUnits="userSpaceOnUse"
       x1="-1231.092"
       y1="1110.484"
       x2="-1426.9924"
       y2="460.91336"
       gradientTransform="matrix(0.03422298,0,0,0.02450309,88.4659,41.2573)" />
    <linearGradient
       inkscape:collect="always"
       xlink:href="#linearGradient3809-3"
       id="linearGradient4041-9"
       gradientUnits="userSpaceOnUse"
       x1="-628.78992"
       y1="1441.4624"
       x2="-1680.355"
       y2="-606.33649"
       gradientTransform="matrix(0.02925754,0,0,0.02094792,-2337.0601,1645.8972)" />
  </defs>
  <sodipodi:namedview
     id="base"
     pagecolor="#ffffff"
     bordercolor="#666666"
     borderopacity="1.0"
     inkscape:pageopacity="0.0"
     inkscape:pageshadow="2"
     inkscape:zoom="32"
     inkscape:cx="20.538986"
     inkscape:cy="13.48999"
     inkscape:document-units="mm"
     inkscape:current-layer="layer1"
     showgrid="false"
     inkscape:window-width="2048"
     inkscape:window-height="1017"
     inkscape:window-x="-8"
     inkscape:window-y="-8"
     inkscape:window-maximized="1"
     units="px"
     showguides="true"
     inkscape:guide-bbox="true">
    <sodipodi:guide
       orientation="0,1"
       position="-17.285156,15.039062"
       id="guide4444" />
    <sodipodi:guide
       orientation="1,0"
       position="14.941406,41.796875"
       id="guide4446" />
  </sodipodi:namedview>
  <metadata
     id="metadata2990">
    <rdf:RDF>
      <cc:Work
         rdf:about="">
        <dc:format>image/svg+xml</dc:format>
        <dc:type
           rdf:resource="http://purl.org/dc/dcmitype/StillImage" />
        <dc:title />
      </cc:Work>
    </rdf:RDF>
  </metadata>
  <g
     inkscape:label="Layer 1"
     inkscape:groupmode="layer"
     id="layer1"
     transform="translate(0,-1022.3622)">
    <path
       style="font-size:medium;font-style:normal;font-variant:normal;font-weight:normal;font-stretch:normal;text-indent:0;text-align:start;text-decoration:none;line-height:normal;letter-spacing:normal;word-spacing:normal;text-transform:none;direction:ltr;block-progression:tb;writing-mode:lr-tb;text-anchor:start;baseline-shift:baseline;color:#000000;fill:#a9a9a9;fill-opacity:1;fill-rule:nonzero;stroke:none;stroke-width:0.04363810000000000;marker:none;visibility:visible;display:inline;overflow:visible;enable-background:accumulate;font-family:Sans;-inkscape-font-specification:Sans"
       d="M 12.90625 5.0625 C 12.89974 5.0654 12.912623 5.09065 12.90625 5.09375 L 12.875 5.09375 C 12.699847 5.18545 12.563054 5.32855 12.4375 5.46875 C 12.302341 5.61955 12.15884 5.75575 11.96875 5.78125 C 11.685096 5.79305 11.335978 5.74645 11 5.78125 C 10.688536 5.81365 10.416176 5.9644 10.25 6.25 C 9.9278294 6.1755 9.6266563 6.2115 9.4375 6.375 C 9.2483437 6.5385 9.1752576 6.83315 9.21875 7.15625 C 8.7458175 7.49985 8.1647911 7.8598 8.03125 8.3125 C 7.9589787 8.3589 7.8800009 8.387 7.84375 8.4375 C 7.8004829 8.4978 7.7736501 8.5625 7.78125 8.625 C 7.7964498 8.75 7.900495 8.8553 8.03125 8.9375 C 8.2653087 9.0846 8.6087204 9.15685 8.84375 9.15625 C 8.7673166 9.29055 8.7403492 9.445 8.75 9.5625 C 8.761236 9.6993 8.8073841 9.81555 8.90625 9.90625 C 9.09723 10.08165 9.4292416 10.14995 9.75 10.09375 C 9.7613399 10.09175 9.7698935 10.09605 9.78125 10.09375 C 10.013274 10.16705 10.376388 10.13405 10.6875 10.03125 C 10.848396 9.97815 11.001127 9.9078 11.09375 9.8125 C 11.186373 9.7172 11.221228 9.59825 11.15625 9.46875 L 11.15625 9.4375 L 11.125 9.4375 C 10.976491 9.405 10.890524 9.36205 10.875 9.34375 C 10.875288 9.34295 10.888708 9.3229 10.90625 9.3125 C 10.941333 9.2917 11.017706 9.28465 11.09375 9.28125 C 11.169794 9.27795 11.246531 9.2824 11.3125 9.3125 C 11.483002 9.3506 11.599482 9.40175 11.65625 9.46875 C 11.713018 9.53565 11.726411 9.62625 11.71875 9.71875 C 11.703429 9.90355 11.569058 10.13855 11.46875 10.34375 L 11.46875 10.375 C 11.539824 10.5627 11.757635 10.61345 11.84375 10.65625 C 11.865279 10.66705 11.872487 10.6842 11.875 10.6875 C 11.868436 10.7041 11.81591 10.75655 11.6875 10.84375 L 11.65625 10.84375 L 11.65625 10.875 C 11.650575 10.9115 11.648958 10.94895 11.625 10.96875 C 11.601042 10.98845 11.545163 10.989 11.5 11 C 11.409673 11.0221 11.280652 11.02635 11.15625 11.03125 C 11.031848 11.03625 10.912711 11.05155 10.8125 11.09375 C 10.762395 11.11475 10.717592 11.1413 10.6875 11.1875 C 10.657408 11.2337 10.651207 11.27555 10.65625 11.34375 C 10.35305 11.31925 10.090146 11.3829 9.96875 11.5625 C 9.8417602 11.7504 9.8463194 11.99985 9.96875 12.21875 C 9.7936906 12.21165 9.6159628 12.2536 9.5 12.375 C 9.4338808 12.4442 9.3560194 12.5385 9.34375 12.625 C 9.3314806 12.7115 9.3620946 12.77365 9.4375 12.84375 C 9.445324 12.89835 9.4610127 12.93345 9.5 12.96875 C 9.5389873 13.00395 9.6042645 13.0394 9.65625 13.0625 C 9.760221 13.1087 9.8737827 13.12535 9.96875 13.15625 C 10.016234 13.17175 10.067249 13.20395 10.09375 13.21875 C 10.120251 13.23345 10.12503 13.21885 10.125 13.21875 C 10.12497 13.21855 10.12182 13.25495 10.09375 13.28125 C 10.069808 13.30375 10.030993 13.3403 9.96875 13.375 C 9.9586049 13.3729 9.9476923 13.377 9.9375 13.375 C 9.6212196 13.3129 9.2827867 13.27805 8.96875 13.34375 C 8.6531908 13.40965 8.3658066 13.577 8.15625 13.875 C 8.1505406 13.8831 8.1305864 13.8667 8.125 13.875 C 7.8545867 13.8958 7.552085 13.99165 7.375 14.15625 C 7.2832071 14.24165 7.2140172 14.35155 7.25 14.46875 C 7.2859828 14.58585 7.4168052 14.7067 7.625 14.8125 L 7.65625 14.8125 C 7.8136509 14.7892 7.9449043 14.784 8.03125 14.8125 C 8.1175957 14.841 8.1470763 14.9057 8.15625 14.9375 C 8.1654237 14.9693 8.1584298 14.99155 8.09375 15.03125 C 8.0290702 15.07105 7.8937487 15.1193 7.71875 15.125 C 7.4741058 15.2382 7.2008387 15.40925 7.09375 15.59375 C 7.0669778 15.63985 7.0638462 15.66895 7.0625 15.71875 C 7.0611538 15.76845 7.06001 15.8322 7.09375 15.875 C 7.1612299 15.9605 7.2937405 16.0231 7.5 16.0625 C 7.8933655 16.299 8.4532815 16.5851 9.03125 16.6875 C 9.5673157 16.8317 10.102244 17.046 10.6875 16.9375 C 10.697623 16.9386 10.708734 16.9369 10.71875 16.9375 C 10.95913 16.9518 11.187549 16.8106 11.3125 16.625 C 11.442658 16.4317 11.480782 16.1976 11.375 16 C 11.337404 15.8549 11.235241 15.73485 11.125 15.65625 C 11.014759 15.57775 10.90249 15.52065 10.78125 15.46875 C 10.66001 15.41675 10.546456 15.3717 10.46875 15.3125 C 10.429897 15.2829 10.396885 15.253887 10.375 15.21875 C 10.5618 15.243298 10.752329 15.270522 10.9375 15.3125 C 11.327889 15.401 11.693452 15.50705 11.96875 15.65625 C 12.244048 15.80555 12.420525 15.9991 12.4375 16.1875 L 12.4375 16.21875 C 12.840148 16.86285 13.525667 17.2739 14.21875 17.5625 C 14.389122 17.6629 14.487104 17.76845 14.53125 17.90625 C 14.575396 18.04415 14.575598 18.18895 14.53125 18.34375 C 14.442554 18.65315 14.206857 18.98105 13.96875 19.15625 L 13.9375 19.15625 L 13.9375 19.1875 C 13.954038 19.3417 13.911848 19.514 13.8125 19.625 C 13.713152 19.736 13.550986 19.80595 13.34375 19.78125 C 12.96101 19.89005 12.688518 20.15845 12.375 20.34375 L 12.34375 20.375 C 12.311984 20.5131 12.2456 20.61105 12.15625 20.65625 C 12.0669 20.70155 11.945718 20.7059 11.8125 20.6875 C 11.452823 20.627571 11.244336 20.880815 11.09375 21 C 11.088193 21.004398 11.067848 20.99599 11.0625 21 C 10.956757 20.993714 10.861448 20.99838 10.78125 21 C 10.692141 21.0018 10.615176 21.00655 10.5625 21.03125 L 10.5625 21.0625 C 10.560227 21.082731 10.534259 21.109376 10.5 21.125 C 10.489722 21.129687 10.480591 21.119092 10.46875 21.125 C 10.295044 21.146251 10.124364 21.161351 9.9375 21.15625 C 9.9263377 21.15595 9.917466 21.15675 9.90625 21.15625 L 9.90625 21.1875 C 9.7796499 21.192467 9.6719986 21.219848 9.53125 21.21875 C 9.2619477 21.21655 8.9794212 21.22095 8.75 21.21875 C 8.6352894 21.21755 8.521803 21.21365 8.4375 21.21875 C 8.353197 21.22375 8.2985255 21.2295 8.25 21.25 C 8.1855724 21.2618 8.1313201 21.29135 8.09375 21.34375 C 8.0561799 21.39605 8.0382318 21.4863 8.03125 21.5625 C 8.0172864 21.7149 8.0756948 21.88805 8.1875 22.09375 C 8.4111105 22.50495 8.8933365 22.9687 9.78125 23.25 C 10.786279 23.7025 13.545748 24.1148 14.625 24.0625 C 15.529397 24.0305 17.136191 23.9876 18.03125 23.6875 C 18.890713 23.4448 19.830989 23.08065 20.375 22.53125 C 20.389545 22.51665 20.423542 22.515 20.4375 22.5 L 20.5 22.4375 L 20.40625 22.4375 C 20.391957 22.434 20.381857 22.4421 20.375 22.4375 C 20.368143 22.4329 20.378075 22.41175 20.375 22.40625 C 20.368849 22.39535 20.369316 22.37465 20.375 22.34375 C 20.386367 22.28185 20.423724 22.1769 20.5 22.0625 C 20.652553 21.8338 20.898342 21.546 21.15625 21.25 C 21.414158 20.954 21.685165 20.6665 21.84375 20.4375 C 21.923043 20.323 21.983271 20.2094 22 20.125 C 22.008365 20.0828 21.992729 20.0356 21.96875 20 C 21.944771 19.9644 21.921619 19.9433 21.875 19.9375 L 21.875 20 L 21.84375 20 L 21.84375 20.03125 C 21.859085 20.04185 21.843954 20.065 21.84375 20.0625 C 21.820427 20.0871 21.746689 20.11895 21.65625 20.15625 C 21.475371 20.23095 21.17442 20.3059 20.875 20.375 C 20.57558 20.4441 20.283706 20.5235 20.03125 20.5625 C 19.905022 20.582 19.770779 20.58605 19.6875 20.59375 C 19.64586 20.59755 19.619894 20.59335 19.59375 20.59375 C 19.567606 20.59405 19.56169 20.59345 19.5625 20.59375 L 19.53125 20.59375 C 19.504988 20.595788 19.465697 20.621596 19.4375 20.625 C 19.428688 20.626064 19.41524 20.623807 19.40625 20.625 C 18.816492 20.4454 18.255969 20.2718 17.65625 20.125 L 17.625 20.125 L 17.59375 20.125 C 17.580175 20.1361 17.588893 20.1341 17.5625 20.125 C 17.536107 20.1159 17.485125 20.11905 17.4375 20.09375 C 17.349206 20.04675 17.223095 19.9802 17.0625 20 C 17.056673 19.9968 17.037081 20.0033 17.03125 20 C 16.76862 19.8495 16.511888 19.56675 16.3125 19.28125 C 16.187074 19.01225 16.21688 18.71275 16.21875 18.40625 C 16.220559 18.10985 16.181016 17.80345 16 17.53125 L 16 17.5 C 15.877887 17.0977 15.557818 16.89475 15.21875 16.71875 C 14.872768 16.53905 14.522345 16.37265 14.3125 16.09375 C 14.263364 15.98025 14.229096 15.87585 14.25 15.78125 C 14.272921 15.67755 14.328625 15.56315 14.40625 15.46875 C 14.5615 15.27985 14.804119 15.1077 14.96875 14.9375 C 15.207053 14.7048 15.503353 14.2736 15.625 13.8125 C 15.685823 13.5819 15.694089 13.3358 15.625 13.125 C 15.602513 13.056391 15.570013 12.996774 15.53125 12.9375 C 15.551129 12.926308 15.577424 12.926496 15.59375 12.90625 C 15.607015 12.88985 15.613862 12.86565 15.625 12.84375 C 15.812525 12.86215 16.049304 12.9869 16.28125 13.125 C 16.403946 13.1981 16.526869 13.26315 16.65625 13.28125 C 16.785631 13.29945 16.943036 13.26465 17.0625 13.15625 L 17.0625 13.125 C 17.064145 13.0801 17.073907 13.078 17.09375 13.0625 C 17.113593 13.047 17.145372 13.03215 17.1875 13.03125 C 17.271756 13.02955 17.380704 13.04895 17.46875 13.09375 C 17.512773 13.11605 17.571212 13.167 17.59375 13.1875 C 17.553681 13.1918 17.476604 13.2033 17.375 13.1875 L 17.34375 13.1875 L 17.3125 13.1875 C 17.18058 13.349 17.015906 13.49725 16.875 13.65625 C 16.734094 13.81535 16.628891 13.99 16.625 14.25 L 16.625 14.28125 C 16.869398 14.54225 17.210441 14.54435 17.53125 14.53125 C 17.852059 14.51825 18.151356 14.51985 18.375 14.71875 L 18.40625 14.71875 C 19.209555 14.76515 19.958091 14.6367 20.65625 14.25 C 21.044216 14.2387 21.312002 14.10585 21.53125 13.90625 C 21.750498 13.70675 21.911092 13.43855 22.0625 13.15625 C 22.088337 13.05225 22.17279 12.97075 22.28125 12.90625 C 22.38971 12.84185 22.505647 12.77545 22.625 12.71875 C 22.744353 12.66195 22.858708 12.6061 22.90625 12.5 C 22.930021 12.4469 22.955744 12.3793 22.9375 12.3125 C 22.92122 12.2529 22.86443 12.196 22.8125 12.125 C 22.806233 12.1164 22.81932 12.10245 22.8125 12.09375 C 22.844453 12.02925 22.886428 11.96365 22.875 11.90625 C 22.860056 11.83135 22.811251 11.76815 22.75 11.71875 C 22.627497 11.61975 22.434109 11.5578 22.28125 11.5 C 22.20482 11.4711 22.143172 11.4628 22.09375 11.4375 C 22.044328 11.4122 22.031458 11.3758 22.03125 11.375 C 22.036743 11.3672 22.035887 11.36005 22.0625 11.34375 C 22.115725 11.31095 22.226563 11.26615 22.375 11.21875 C 22.664528 11.15315 22.938135 10.91855 23.0625 10.65625 C 23.124682 10.52515 23.126641 10.3897 23.09375 10.25 C 23.060859 10.1103 22.971722 9.9824 22.8125 9.875 C 22.353545 9.6587 21.737214 9.65835 21.34375 10.03125 C 21.336422 10.03825 21.319668 10.02405 21.3125 10.03125 C 21.205272 10.06645 21.10469 10.0731 21.0625 10.0625 C 21.015109 10.0506 21.002538 10.0397 21 10 C 20.994925 9.9206 21.087582 9.76685 21.25 9.65625 L 21.28125 9.625 L 21.28125 9.59375 C 21.298282 9.44135 21.262088 9.334 21.1875 9.25 C 21.112912 9.166 20.992444 9.12005 20.875 9.09375 C 20.640112 9.04095 20.359442 9.07825 20.15625 9.09375 C 19.793608 9.25825 19.302643 9.09405 18.90625 9.03125 C 18.899755 8.90185 18.878621 8.77805 18.78125 8.71875 C 18.663709 8.64705 18.514852 8.6272 18.34375 8.625 C 18.001546 8.6206 17.58483 8.7004 17.375 8.75 C 17.1017 8.8147 16.870787 8.68175 16.625 8.53125 C 16.407778 8.39835 16.167156 8.2964 15.90625 8.3125 C 16.020956 8.2654 16.124504 8.21 16.15625 8.125 C 16.196924 8.016 16.179614 7.89325 16.125 7.78125 C 16.070386 7.66935 15.996607 7.5864 15.90625 7.5 C 15.834428 7.4313 15.757813 7.37845 15.6875 7.34375 C 15.816298 7.25895 15.937265 7.165 15.96875 7.0625 C 16.007232 6.9372 15.981322 6.82095 15.90625 6.71875 C 15.756107 6.51415 15.428035 6.38265 15.125 6.46875 C 15.012702 6.49465 14.950321 6.4806 14.90625 6.4375 C 14.862179 6.3944 14.84811 6.30615 14.8125 6.21875 C 14.77689 6.13125 14.728038 6.0178 14.65625 5.9375 C 14.590651 5.8642 14.506879 5.8274 14.375 5.8125 C 14.368521 5.8072 14.350307 5.8177 14.34375 5.8125 C 14.00565 5.5425 13.552448 5.32765 13.15625 5.09375 L 12.96875 5.0625 L 12.90625 5.0625 z M 14.1875 13.46875 C 14.177983 13.534299 14.174818 13.593943 14.15625 13.65625 C 14.069887 13.94615 13.919016 14.21795 13.75 14.34375 C 13.535057 14.49455 13.367033 14.7537 13.1875 14.9375 C 13.097734 15.0294 13.009299 15.11475 12.90625 15.15625 C 12.803201 15.19785 12.671215 15.19765 12.53125 15.15625 C 12.317335 15.141743 12.002257 15.072152 11.65625 15 C 11.719481 14.995357 11.787124 15.015128 11.84375 15 C 11.972078 14.9657 12.05693 14.8608 12.125 14.75 C 12.13734 14.7299 12.17849 14.74195 12.1875 14.71875 C 12.479676 14.72345 12.891549 14.6143 13.125 14.4375 C 13.187476 14.3902 13.249006 14.33605 13.28125 14.28125 C 13.313494 14.22655 13.304386 14.15295 13.28125 14.09375 C 13.258114 14.03445 13.20429 14.00705 13.125 13.96875 C 13.062441 13.93845 12.976461 13.92705 12.875 13.90625 C 12.903056 13.83605 12.940728 13.75555 13 13.71875 C 13.070744 13.67475 13.148055 13.67305 13.25 13.65625 C 13.453891 13.62275 13.697259 13.6226 13.875 13.5625 C 14.005131 13.543971 14.104901 13.529624 14.1875 13.46875 z "
       transform="translate(0,1022.3622)"
       id="path3847" />
  </g>
</svg>
