<?xml version="1.0" encoding="UTF-8"?>
<svg width="30" height="30" version="1.1" xmlns="http://www.w3.org/2000/svg">
 <path d="M 15,1 C 15.37448,1 15.74063,1 16.1077,1.0305 L 17.09232,3.7382 C 17.69948,3.8503 18.27652,3.9964 18.84612,4.1999 L 20.99992,2.3845 C 21.66358,2.7017 22.30682,3.0784 22.90762,3.4922 L 22.47685,6.2307 C 22.93759,6.6239 23.3758,7.0623 23.76915,7.523 L 26.50765,7.0614 C 26.92094,7.6618 27.29842,8.3367 27.61535,8.9998 L 25.76915,11.1537 C 25.97269,11.7233 26.1495,12.3004 26.26146,12.9074 L 28.96916,13.8921 C 28.998048,14.259 28.999929,14.6255 28.999929,14.9998 28.999929,15.366 28.996778,15.7177 28.96916,16.0768 L 26.26146,17.0614 C 26.15145,17.6582 25.99843,18.2548 25.79992,18.8151 L 27.61532,20.9998 C 27.2974,21.6664 26.92284,22.3044 26.50762,22.9075 L 23.76912,22.446 C 23.37576,22.9067 22.93755,23.3448 22.47682,23.7382 L 22.90759,26.5075 C 22.30644,26.9217 21.66399,27.2978 20.99989,27.6151 L 18.81529,25.769 C 18.25388,25.9681 17.68999,26.151 17.09219,26.2614 L 16.10757,28.9383 C 15.74051,28.9669 15.37436,28.9994 14.99987,28.9994 14.62539,28.9994 14.22847,28.9679 13.86137,28.9383 L 12.93829,26.2614 C 12.34833,26.1526 11.73909,25.9642 11.18449,25.769 L 8.99989,27.6151 C 8.33245,27.2968 7.69619,26.9234 7.09219,26.5075 L 7.52296,23.7076 C 7.07226,23.3204 6.64723,22.8979 6.26146,22.446 L 3.49226,22.9075 C 3.07705,22.3044 2.70249,21.6664 2.38456,20.9998 L 4.23076,18.8151 C 4.03541,18.2605 3.84723,17.6515 3.73845,17.0614 L 1.06155,16.1075 C 1.032666,15.7406 1.000012,15.3744 1.000012,14.9998 1.000012,14.6255 1.032667,14.259 1.06155,13.8921 L 3.73845,12.9074 C 3.84867,12.3097 4.03172,11.7459 4.23076,11.1845 L 2.38456,8.9998 C 2.70148,8.3367 3.07897,7.6618 3.49226,7.0614 L 6.26146,7.523 C 6.64727,7.071 7.0723,6.6486 7.52296,6.2614 L 7.09219,3.4922 C 7.69579,3.0765 8.33289,2.7027 8.99989,2.3845 L 11.18449,4.1999 C 11.74492,4.0014 12.34169,3.8484 12.93829,3.7382 L 13.92291,1.0305 C 14.282,1.0029 14.63366,1 14.99981,1 Z" fill="#808080"/>
</svg>
