<?xml version="1.0" encoding="UTF-8" standalone="no"?>
<!-- Created with Inkscape (http://www.inkscape.org/) -->

<svg
   xmlns:dc="http://purl.org/dc/elements/1.1/"
   xmlns:cc="http://creativecommons.org/ns#"
   xmlns:rdf="http://www.w3.org/1999/02/22-rdf-syntax-ns#"
   xmlns:svg="http://www.w3.org/2000/svg"
   xmlns="http://www.w3.org/2000/svg"
   xmlns:sodipodi="http://sodipodi.sourceforge.net/DTD/sodipodi-0.dtd"
   xmlns:inkscape="http://www.inkscape.org/namespaces/inkscape"
   width="30"
   height="30"
   id="svg2985"
   version="1.1"
   inkscape:version="0.92.3 (2405546, 2018-03-11)"
   sodipodi:docname="Bonsai.Expressions.ExpressionBuilder.svg">
  <defs
     id="defs2987" />
  <sodipodi:namedview
     id="base"
     pagecolor="#ffffff"
     bordercolor="#666666"
     borderopacity="1.0"
     inkscape:pageopacity="0.0"
     inkscape:pageshadow="2"
     inkscape:zoom="26.527143"
     inkscape:cx="6.2202709"
     inkscape:cy="13.553292"
     inkscape:document-units="mm"
     inkscape:current-layer="layer1"
     showgrid="false"
     inkscape:window-width="3000"
     inkscape:window-height="1875"
     inkscape:window-x="-13"
     inkscape:window-y="-13"
     inkscape:window-maximized="1"
     units="px"
     showguides="true"
     inkscape:guide-bbox="true"
     inkscape:snap-bbox="true"
     inkscape:snap-bbox-midpoints="true"
     inkscape:snap-object-midpoints="true"
     inkscape:snap-center="true"
     inkscape:object-nodes="true"
     inkscape:snap-intersection-paths="true"
     inkscape:object-paths="true"
     inkscape:snap-bbox-edge-midpoints="true"
     inkscape:bbox-nodes="true"
     inkscape:bbox-paths="true"
     inkscape:snap-smooth-nodes="true"
     inkscape:snap-midpoints="true">
    <sodipodi:guide
       orientation="1,0"
       position="31.347656,36.914062"
       id="guide3878"
       inkscape:locked="false" />
    <sodipodi:guide
       orientation="0,1"
       position="41.015625,25.585937"
       id="guide3899"
       inkscape:locked="false" />
    <sodipodi:guide
       orientation="0,1"
       position="38.476562,4.4921875"
       id="guide3901"
       inkscape:locked="false" />
  </sodipodi:namedview>
  <metadata
     id="metadata2990">
    <rdf:RDF>
      <cc:Work
         rdf:about="">
        <dc:format>image/svg+xml</dc:format>
        <dc:type
           rdf:resource="http://purl.org/dc/dcmitype/StillImage" />
        <dc:title />
      </cc:Work>
    </rdf:RDF>
  </metadata>
  <g
     inkscape:label="Layer 1"
     inkscape:groupmode="layer"
     id="layer1"
     transform="translate(0,-1022.3622)">
    <path
       style="color:#000000;-inkscape-font-specification:Sans;stroke-width:2"
       d="m 22.385148,1037.0115 c -1.870725,0 -3.398685,1.528 -3.398685,3.3987 0,1.8707 1.52796,3.4271 3.398685,3.4271 1.870725,0 3.427007,-1.5564 3.427007,-3.4271 0,-1.8707 -1.556282,-3.3987 -3.427007,-3.3987 z"
       id="path3814"
       inkscape:connector-curvature="0" />
    <path
       style="fill:none"
       d="m 23.45867,1031.3112 c 0,1.3809 -1.119438,2.5004 -2.500335,2.5004 -1.380897,0 -2.500334,-1.1195 -2.500334,-2.5004 0,-1.3808 1.119437,-2.5003 2.500334,-2.5003 1.380897,0 2.500335,1.1195 2.500335,2.5003 z"
       id="path4179"
       inkscape:connector-curvature="0" />
    <path
       style="fill:none"
       d="m 14.891767,1044.5512 c 0,1.3808 -1.119438,2.5003 -2.500334,2.5003 -1.380898,0 -2.5003351,-1.1195 -2.5003351,-2.5003 0,-1.3809 1.1194371,-2.5004 2.5003351,-2.5004 1.380896,0 2.500334,1.1195 2.500334,2.5004 z"
       id="path4181"
       inkscape:connector-curvature="0" />
    <g
       id="g9669"
       transform="matrix(0.09447214,0,0,0.09447108,2.7574149,1025.8677)"
       style="fill:#ed0090" />
    <path
       inkscape:connector-curvature="0"
       id="path4213"
       d="m 16.898597,1036.7319 c 0,1.3809 -1.119438,2.5004 -2.500335,2.5004 -1.380897,0 -2.500334,-1.1195 -2.500334,-2.5004 0,-1.3808 1.119437,-2.5003 2.500334,-2.5003 1.380897,0 2.500335,1.1195 2.500335,2.5003 z"
       style="fill:none" />
    <path
       style="fill:none;fill-rule:evenodd"
       d="m 19.212392,1032.0637 -2.627591,2.3358"
       id="path4219"
       inkscape:connector-curvature="0"
       sodipodi:nodetypes="cc" />
    <path
       style="fill:none;fill-rule:evenodd"
       d="m 12.851553,1042.8693 0.716138,-3.7783"
       id="path4227"
       inkscape:connector-curvature="0"
       sodipodi:nodetypes="cc" />
    <path
       inkscape:connector-curvature="0"
       id="path4229"
       d="m 11.71683,1026.4058 c -1.8707252,0 -3.3986852,1.528 -3.3986852,3.3987 0,1.8707 1.52796,3.4271 3.3986852,3.4271 1.870725,0 3.427007,-1.5564 3.427007,-3.4271 0,-1.8707 -1.556282,-3.3987 -3.427007,-3.3987 z"
       style="color:#000000;-inkscape-font-specification:Sans;stroke-width:2" />
    <path
       style="color:#000000;-inkscape-font-specification:Sans;stroke-width:2"
       d="m 6.3261251,1034.225 c -1.8707252,0 -3.3986852,1.528 -3.3986852,3.3987 0,1.8707 1.52796,3.4271 3.3986852,3.4271 1.870725,0 3.427007,-1.5564 3.427007,-3.4271 0,-1.8707 -1.556282,-3.3987 -3.427007,-3.3987 z"
       id="path4233"
       inkscape:connector-curvature="0" />
  </g>
</svg>
