<?xml version="1.0" encoding="UTF-8" standalone="no"?>
<!-- Created with Inkscape (http://www.inkscape.org/) -->

<svg
   xmlns:dc="http://purl.org/dc/elements/1.1/"
   xmlns:cc="http://creativecommons.org/ns#"
   xmlns:rdf="http://www.w3.org/1999/02/22-rdf-syntax-ns#"
   xmlns:svg="http://www.w3.org/2000/svg"
   xmlns="http://www.w3.org/2000/svg"
   xmlns:sodipodi="http://sodipodi.sourceforge.net/DTD/sodipodi-0.dtd"
   xmlns:inkscape="http://www.inkscape.org/namespaces/inkscape"
   width="30"
   height="30"
   id="svg2985"
   version="1.1"
   inkscape:version="0.48.4 r9939"
   sodipodi:docname="Bonsai.Editor.Scripting.svg">
  <defs
     id="defs2987" />
  <sodipodi:namedview
     id="base"
     pagecolor="#ffffff"
     bordercolor="#666666"
     borderopacity="1.0"
     inkscape:pageopacity="0.0"
     inkscape:pageshadow="2"
     inkscape:zoom="40.96"
     inkscape:cx="14.756226"
     inkscape:cy="13.730927"
     inkscape:document-units="mm"
     inkscape:current-layer="layer1"
     showgrid="false"
     inkscape:window-width="2048"
     inkscape:window-height="1017"
     inkscape:window-x="-8"
     inkscape:window-y="-8"
     inkscape:window-maximized="1"
     units="px"
     showguides="true"
     inkscape:guide-bbox="true">
    <sodipodi:guide
       orientation="1,0"
       position="14.941406,30.664063"
       id="guide2998" />
    <sodipodi:guide
       orientation="0,1"
       position="0.87890625,14.941406"
       id="guide3000" />
    <sodipodi:guide
       orientation="0,1"
       position="21.786347,21.682767"
       id="guide3758" />
    <sodipodi:guide
       orientation="0,1"
       position="23.193359,7.9589844"
       id="guide3760" />
    <sodipodi:guide
       orientation="1,0"
       position="25.584283,16.745449"
       id="guide3762" />
  </sodipodi:namedview>
  <metadata
     id="metadata2990">
    <rdf:RDF>
      <cc:Work
         rdf:about="">
        <dc:format>image/svg+xml</dc:format>
        <dc:type
           rdf:resource="http://purl.org/dc/dcmitype/StillImage" />
        <dc:title />
      </cc:Work>
    </rdf:RDF>
  </metadata>
  <g
     inkscape:label="Layer 1"
     inkscape:groupmode="layer"
     id="layer1"
     transform="translate(0,-1022.3622)">
    <g
       id="g9669"
       transform="matrix(0.09447108,0,0,0.09447108,2.7574049,1025.8677)"
       style="fill:#ed0090;fill-opacity:1" />
    <path
       style="font-size:40px;font-style:normal;font-variant:normal;font-weight:normal;font-stretch:normal;text-indent:0;text-align:start;text-decoration:none;line-height:125%;letter-spacing:0px;word-spacing:0px;text-transform:none;direction:ltr;block-progression:tb;writing-mode:lr-tb;text-anchor:start;baseline-shift:baseline;color:#000000;fill:#a9a9a9;fill-opacity:1;fill-rule:nonzero;stroke:none;stroke-width:0.86426097;marker:none;visibility:visible;display:inline;overflow:visible;enable-background:accumulate;font-family:Sans;-inkscape-font-specification:Sans"
       d="M 10.375,1030.7188 C 9.1971278,1030.7188 8.1022573,1030.9692 7.09375,1031.5 6.0675868,1032.0401 5.2802902,1032.8637 4.78125,1033.9375 4.2870936,1035.0008 4.0624992,1036.2458 4.0625,1037.625 4.0624992,1039.7557 4.6104802,1041.4592 5.78125,1042.6562 6.9408698,1043.8421 8.513851,1044.4375 10.375,1044.4375 11.870513,1044.4375 13.168155,1044.0214 14.21875,1043.1562 14.540037,1042.8918 14.814479,1042.5775 15.0625,1042.25 L 12.78125,1040.4688 C 12.626767,1040.7741 12.441174,1041.0251 12.21875,1041.2188 11.722074,1041.651 11.121199,1041.875 10.34375,1041.875 9.3716435,1041.875 8.6523716,1041.5384 8.0625,1040.875 7.5009141,1040.2433 7.1562465,1039.1578 7.15625,1037.5625 7.1562465,1035.9932 7.5078851,1034.9202 8.09375,1034.2812 8.7069194,1033.6126 9.4616506,1033.2813 10.46875,1033.2812 11.118054,1033.2813 11.624099,1033.458 12.0625,1033.8125 12.271915,1033.9818 12.47148,1034.208 12.625,1034.4688 L 14.9375,1032.625 C 14.696136,1032.3257 14.404912,1032.0478 14.09375,1031.8125 13.112878,1031.0707 11.850195,1030.7188 10.375,1030.7188 z"
       id="path3782"
       inkscape:connector-curvature="0"
       sodipodi:nodetypes="sssscsccccscsccccccs" />
    <path
       style="fill:none;stroke:#a9a9a9;stroke-width:1.72852194;stroke-linecap:butt;stroke-linejoin:miter;stroke-miterlimit:4;stroke-opacity:1;stroke-dasharray:none"
       d="M 14.91015,1035.7193 24.401006,1035.7193"
       id="path2999"
       inkscape:connector-curvature="0" />
    <path
       style="fill:none;stroke:#a9a9a9;stroke-width:1.72852194;stroke-linecap:butt;stroke-linejoin:miter;stroke-miterlimit:4;stroke-opacity:1;stroke-dasharray:none"
       d="M 18.85384,1031.9798 16.080256,1042.9517"
       id="path3001"
       inkscape:connector-curvature="0" />
    <path
       style="fill:none;stroke:#a9a9a9;stroke-width:1.73502803;stroke-linecap:butt;stroke-linejoin:miter;stroke-miterlimit:4;stroke-opacity:1;stroke-dasharray:none"
       d="M 23.054211,1031.949 20.373983,1042.9896"
       id="path3003"
       inkscape:connector-curvature="0" />
    <path
       style="fill:none;stroke:#a9a9a9;stroke-width:1.72852194;stroke-linecap:butt;stroke-linejoin:miter;stroke-miterlimit:4;stroke-opacity:1;stroke-dasharray:none"
       d="M 14.91015,1039.3355 24.357669,1039.3355"
       id="path3005"
       inkscape:connector-curvature="0" />
  </g>
</svg>
