<?xml version="1.0" encoding="UTF-8" standalone="no"?>
<!-- Created with Inkscape (http://www.inkscape.org/) -->

<svg
   xmlns:dc="http://purl.org/dc/elements/1.1/"
   xmlns:cc="http://creativecommons.org/ns#"
   xmlns:rdf="http://www.w3.org/1999/02/22-rdf-syntax-ns#"
   xmlns:svg="http://www.w3.org/2000/svg"
   xmlns="http://www.w3.org/2000/svg"
   xmlns:sodipodi="http://sodipodi.sourceforge.net/DTD/sodipodi-0.dtd"
   xmlns:inkscape="http://www.inkscape.org/namespaces/inkscape"
   width="30"
   height="30"
   id="svg2985"
   version="1.1"
   inkscape:version="0.92.4 (5da689c313, 2019-01-14)"
   sodipodi:docname="Bonsai.Vision.svg">
  <defs
     id="defs2987" />
  <sodipodi:namedview
     id="base"
     pagecolor="#ffffff"
     bordercolor="#666666"
     borderopacity="1.0"
     inkscape:pageopacity="0.0"
     inkscape:pageshadow="2"
     inkscape:zoom="81.92"
     inkscape:cx="15.639815"
     inkscape:cy="21.473789"
     inkscape:document-units="mm"
     inkscape:current-layer="layer1"
     showgrid="false"
     inkscape:window-width="2048"
     inkscape:window-height="1017"
     inkscape:window-x="-8"
     inkscape:window-y="-8"
     inkscape:window-maximized="1"
     units="px"
     showguides="true"
     inkscape:guide-bbox="true">
    <sodipodi:guide
       position="14.990234,36.71875"
       orientation="1,0"
       id="guide815"
       inkscape:locked="false" />
    <sodipodi:guide
       position="2.9296875,14.990234"
       orientation="0,1"
       id="guide817"
       inkscape:locked="false" />
  </sodipodi:namedview>
  <metadata
     id="metadata2990">
    <rdf:RDF>
      <cc:Work
         rdf:about="">
        <dc:format>image/svg+xml</dc:format>
        <dc:type
           rdf:resource="http://purl.org/dc/dcmitype/StillImage" />
        <dc:title />
      </cc:Work>
    </rdf:RDF>
  </metadata>
  <g
     inkscape:label="Layer 1"
     inkscape:groupmode="layer"
     id="layer1"
     transform="translate(0,-1022.3622)">
    <path
       style="fill-opacity:1;stroke:none"
       d="m 10.615234,1036.248 c -2.3616081,0 -4.28125,1.9196 -4.28125,4.2813 0,2.3616 1.9196419,4.25 4.28125,4.25 2.295606,0 4.147097,-1.7923 4.25,-4.0625 h -2.5 c -0.09932,0.8899 -0.833547,1.5937 -1.75,1.5937 -0.9840036,0 -1.78125,-0.7972 -1.78125,-1.7812 0,-0.984 0.7972464,-1.7813 1.78125,-1.7813 0.329641,0 0.641412,0.063 0.90625,0.2188 l 1.21875,-2.125 c -0.631669,-0.3682 -1.341161,-0.5938 -2.125,-0.5938 z"
       id="path4652"
       inkscape:connector-curvature="0" />
    <path
       style="fill-opacity:1;stroke:none"
       d="m 14.990234,1027.998 c -2.361608,0 -4.25,1.9197 -4.25,4.2813 0,1.706 0.99243,3.1576 2.4375,3.8437 l 1.25,-2.1875 c -0.69947,-0.2405 -1.21875,-0.8751 -1.21875,-1.6562 0,-0.984 0.797246,-1.7813 1.78125,-1.7813 0.984002,0 1.78125,0.7973 1.78125,1.7813 0,0.695 -0.388203,1.2688 -0.96875,1.5625 l 1.25,2.1562 c 1.322702,-0.7271 2.21875,-2.1027 2.21875,-3.7187 0,-2.3616 -1.919644,-4.2813 -4.28125,-4.2813 z"
       id="path4648"
       inkscape:connector-curvature="0" />
    <path
       style="fill-opacity:1;stroke:none"
       d="m 17.552734,1036.8105 c -1.305519,0.732 -2.1875,2.1155 -2.1875,3.7188 0,2.3616 1.919642,4.25 4.28125,4.25 2.361606,0 4.25,-1.8884 4.25,-4.25 0,-1.5423 -0.806986,-2.9041 -2.03125,-3.6563 l -1.25,2.1563 c 0.473934,0.3202 0.8125,0.885 0.8125,1.5 0,0.984 -0.797248,1.7812 -1.78125,1.7812 -0.984004,0 -1.78125,-0.7972 -1.78125,-1.7812 0,-0.6847 0.371126,-1.2954 0.9375,-1.5938 z"
       id="path4656"
       inkscape:connector-curvature="0" />
  </g>
</svg>
