<?xml version="1.0" encoding="UTF-8" standalone="no"?>
<!-- Created with Inkscape (http://www.inkscape.org/) -->

<svg
   xmlns:dc="http://purl.org/dc/elements/1.1/"
   xmlns:cc="http://creativecommons.org/ns#"
   xmlns:rdf="http://www.w3.org/1999/02/22-rdf-syntax-ns#"
   xmlns:svg="http://www.w3.org/2000/svg"
   xmlns="http://www.w3.org/2000/svg"
   xmlns:sodipodi="http://sodipodi.sourceforge.net/DTD/sodipodi-0.dtd"
   xmlns:inkscape="http://www.inkscape.org/namespaces/inkscape"
   width="30"
   height="30"
   id="svg2985"
   version="1.1"
   inkscape:version="0.92.3 (2405546, 2018-03-11)"
   sodipodi:docname="Bonsai.Expressions.CreateObservableBuilder.svg">
  <defs
     id="defs2987" />
  <sodipodi:namedview
     id="base"
     pagecolor="#ffffff"
     bordercolor="#666666"
     borderopacity="1.0"
     inkscape:pageopacity="0.0"
     inkscape:pageshadow="2"
     inkscape:zoom="28.963094"
     inkscape:cx="9.722903"
     inkscape:cy="17.272826"
     inkscape:document-units="mm"
     inkscape:current-layer="layer1"
     showgrid="false"
     inkscape:window-width="3000"
     inkscape:window-height="1875"
     inkscape:window-x="-13"
     inkscape:window-y="-13"
     inkscape:window-maximized="1"
     units="px"
     showguides="true"
     inkscape:guide-bbox="true">
    <sodipodi:guide
       orientation="1,0"
       position="31.347656,36.914062"
       id="guide3878"
       inkscape:locked="false" />
    <sodipodi:guide
       orientation="0,1"
       position="41.015625,25.585937"
       id="guide3899"
       inkscape:locked="false" />
    <sodipodi:guide
       orientation="0,1"
       position="38.476562,4.4921875"
       id="guide3901"
       inkscape:locked="false" />
  </sodipodi:namedview>
  <metadata
     id="metadata2990">
    <rdf:RDF>
      <cc:Work
         rdf:about="">
        <dc:format>image/svg+xml</dc:format>
        <dc:type
           rdf:resource="http://purl.org/dc/dcmitype/StillImage" />
        <dc:title />
      </cc:Work>
    </rdf:RDF>
  </metadata>
  <g
     inkscape:label="Layer 1"
     inkscape:groupmode="layer"
     id="layer1"
     transform="translate(0,-1022.3622)">
    <path
       style="color:#000000;stroke-width:2;-inkscape-font-specification:Sans"
       d="M 8.8986848,1034.034 C 7.0279597,1034.034 5.5,1035.562 5.5,1037.4327 5.5,1039.3034 7.0279597,1040.8598 8.8986848,1040.8598 10.76941,1040.8598 12.325692,1039.3034 12.325692,1037.4327 12.325692,1035.562 10.76941,1034.034 8.8986848,1034.034 z"
       id="path3814"
       inkscape:connector-curvature="0" />
    <path
       style="fill:none"
       d="M 17.68539,1032.6262 9.8524379,1037.3743 17.740491,1042.1558"
       id="path3817"
       inkscape:connector-curvature="0"
       sodipodi:nodetypes="ccc" />
    <path
       style="fill:none"
       d="M 22.319289,1031.3457 C 22.319289,1032.7266 21.199851,1033.8461 19.818954,1033.8461 18.438057,1033.8461 17.31862,1032.7266 17.31862,1031.3457 17.31862,1029.9649 18.438057,1028.8454 19.818954,1028.8454 21.199851,1028.8454 22.319289,1029.9649 22.319289,1031.3457 z"
       id="path4179"
       inkscape:connector-curvature="0" />
    <path
       style="fill:none"
       d="M 22.393793,1043.4273 C 22.393793,1044.8081 21.274355,1045.9276 19.893459,1045.9276 18.512561,1045.9276 17.393124,1044.8081 17.393124,1043.4273 17.393124,1042.0464 18.512561,1040.9269 19.893459,1040.9269 21.274355,1040.9269 22.393793,1042.0464 22.393793,1043.4273 z"
       id="path4181"
       inkscape:connector-curvature="0" />
    <g
       id="g9669"
       transform="matrix(0.09447214,0,0,0.09447108,2.7574149,1025.8677)"
       style="fill:#ed0090" />
  </g>
</svg>
