<?xml version="1.0" encoding="UTF-8" standalone="no"?>
<!-- Created with Inkscape (http://www.inkscape.org/) -->

<svg
   xmlns:dc="http://purl.org/dc/elements/1.1/"
   xmlns:cc="http://creativecommons.org/ns#"
   xmlns:rdf="http://www.w3.org/1999/02/22-rdf-syntax-ns#"
   xmlns:svg="http://www.w3.org/2000/svg"
   xmlns="http://www.w3.org/2000/svg"
   xmlns:sodipodi="http://sodipodi.sourceforge.net/DTD/sodipodi-0.dtd"
   xmlns:inkscape="http://www.inkscape.org/namespaces/inkscape"
   width="30"
   height="30"
   id="svg2985"
   version="1.1"
   inkscape:version="0.92.4 (5da689c313, 2019-01-14)"
   sodipodi:docname="Bonsai.Osc.svg">
  <defs
     id="defs2987" />
  <sodipodi:namedview
     id="base"
     pagecolor="#ffffff"
     bordercolor="#666666"
     borderopacity="1.0"
     inkscape:pageopacity="0.0"
     inkscape:pageshadow="2"
     inkscape:zoom="40.96"
     inkscape:cx="9.3907658"
     inkscape:cy="13.290612"
     inkscape:document-units="mm"
     inkscape:current-layer="layer1"
     showgrid="false"
     inkscape:window-width="2048"
     inkscape:window-height="1017"
     inkscape:window-x="-8"
     inkscape:window-y="-8"
     inkscape:window-maximized="1"
     units="px" />
  <metadata
     id="metadata2990">
    <rdf:RDF>
      <cc:Work
         rdf:about="">
        <dc:format>image/svg+xml</dc:format>
        <dc:type
           rdf:resource="http://purl.org/dc/dcmitype/StillImage" />
        <dc:title />
      </cc:Work>
    </rdf:RDF>
  </metadata>
  <g
     inkscape:label="Layer 1"
     inkscape:groupmode="layer"
     id="layer1"
     transform="translate(0,-1022.3622)">
    <g
       id="g9669"
       transform="matrix(0.09447108,0,0,0.09447108,2.7574049,1025.8677)"
       style="fill:#ed0090;fill-opacity:1" />
    <path
       style="font-size:8.00042629px;font-style:normal;font-variant:normal;font-weight:bold;font-stretch:normal;text-align:start;line-height:125%;letter-spacing:0px;word-spacing:0px;writing-mode:lr-tb;text-anchor:start;fill-opacity:1;stroke:none;font-family:Sans;-inkscape-font-specification:Sans Bold"
       d="M 8.375 11.71875 C 7.8199111 11.71875 7.33108 11.8202 6.90625 12 C 6.5869131 12.1333 6.2993882 12.349 6.03125 12.625 C 5.7629927 12.9009 5.5613939 13.2152 5.40625 13.5625 C 5.1982405 14.0338 5.09375 14.6178 5.09375 15.3125 C 5.09375 16.3978 5.4014517 17.22505 6 17.84375 C 6.5984292 18.46225 7.392278 18.78125 8.40625 18.78125 C 9.4078391 18.78125 10.214071 18.46545 10.8125 17.84375 C 11.411048 17.22195 11.6875 16.3509 11.6875 15.25 C 11.6875 14.14 11.415573 13.27955 10.8125 12.65625 C 10.209308 12.03305 9.3796849 11.71875 8.375 11.71875 z M 8.40625 12.90625 C 8.9737219 12.90625 9.4073261 13.1154 9.75 13.5 C 10.092555 13.8845 10.28125 14.43725 10.28125 15.21875 C 10.28125 16.00945 10.101961 16.6047 9.75 17 C 9.3980388 17.3954 8.9551475 17.59375 8.40625 17.59375 C 7.8573526 17.59375 7.3878548 17.3985 7.03125 17 C 6.6746452 16.6016 6.5 16.0222 6.5 15.25 C 6.5 14.4655 6.6839324 13.8892 7.03125 13.5 C 7.3785676 13.1109 7.8387782 12.90625 8.40625 12.90625 z "
       transform="translate(0,1022.3622)"
       id="path2988" />
    <path
       d="m 12.422793,1038.8092 1.339619,-0.1302 c 0.08097,0.4496 0.244087,0.7799 0.490674,0.9907 0.246468,0.2109 0.579021,0.3163 0.99766,0.3163 0.443404,0 0.777505,-0.094 1.002422,-0.2814 0.224798,-0.1876 0.337197,-0.4069 0.337197,-0.6582 0,-0.1612 -0.04763,-0.2985 -0.141927,-0.4116 -0.09406,-0.1131 -0.259685,-0.2117 -0.495318,-0.2954 -0.161216,-0.056 -0.528656,-0.155 -1.102319,-0.2977 -0.738095,-0.1828 -1.255916,-0.4076 -1.553583,-0.6743 -0.418638,-0.3752 -0.627957,-0.8327 -0.627957,-1.3722 0,-0.3473 0.09882,-0.6721 0.295404,-0.9744 0.196936,-0.3023 0.480672,-0.5326 0.851208,-0.6907 0.370536,-0.1583 0.817869,-0.2373 1.341882,-0.2373 0.855851,0 1.500002,0.1876 1.932571,0.5628 0.43257,0.3752 0.659749,0.876 0.681419,1.5024 l -1.376768,0.061 c -0.05834,-0.3504 -0.185268,-0.6023 -0.379109,-0.7558 -0.193721,-0.1535 -0.484482,-0.2303 -0.872044,-0.2303 -0.400064,0 -0.71321,0.082 -0.939555,0.2466 -0.145738,0.1048 -0.218607,0.2465 -0.218607,0.4232 0,0.1613 0.06787,0.2993 0.204676,0.4139 0.173599,0.1458 0.595333,0.2977 1.265083,0.456 0.669751,0.1581 1.165187,0.3217 1.486072,0.4906 0.321004,0.169 0.572115,0.4 0.753573,0.693 0.181339,0.2931 0.272067,0.6551 0.272067,1.0861 0,0.3907 -0.10835,0.7567 -0.325647,1.0977 -0.217059,0.3411 -0.524012,0.5946 -0.920862,0.7605 -0.396968,0.166 -0.891571,0.2488 -1.483809,0.2488 -0.862043,0 -1.524054,-0.1992 -1.986152,-0.5977 -0.461978,-0.3984 -0.737975,-0.9791 -0.82787,-1.7418 z"
       style="font-size:8.00042629px;font-style:normal;font-variant:normal;font-weight:bold;font-stretch:normal;text-align:start;line-height:125%;letter-spacing:0px;word-spacing:0px;writing-mode:lr-tb;text-anchor:start;fill-opacity:1;stroke:none;font-family:Sans;-inkscape-font-specification:Sans Bold"
       id="path2997"
       inkscape:connector-curvature="0" />
    <path
       d="m 23.497544,1038.5209 1.334856,0.4233 c -0.204675,0.7441 -0.544968,1.2968 -1.020878,1.6581 -0.476028,0.3612 -1.079935,0.5418 -1.811718,0.5418 -0.905503,0 -1.64967,-0.3093 -2.23262,-0.9278 -0.582951,-0.6187 -0.874426,-1.4644 -0.874426,-2.5374 0,-1.1349 0.293023,-2.0162 0.879069,-2.6442 0.586047,-0.6279 1.356646,-0.9419 2.31168,-0.9419 0.834182,0 1.511671,0.2466 2.032588,0.7396 0.310169,0.2915 0.542706,0.71 0.697731,1.2558 l -1.362838,0.3257 c -0.08096,-0.3535 -0.248849,-0.6326 -0.504604,-0.8373 -0.255875,-0.2047 -0.566758,-0.307 -0.93265,-0.307 -0.505438,0 -0.915504,0.1814 -1.230197,0.5442 -0.314812,0.3628 -0.472218,0.9504 -0.472218,1.7629 0,0.862 0.155144,1.4759 0.465193,1.8418 0.31005,0.3659 0.71321,0.5489 1.209361,0.5489 0.365892,0 0.680585,-0.1167 0.944199,-0.3489 0.263494,-0.2325 0.452691,-0.5984 0.567472,-1.0976 z"
       style="font-size:8.00042629px;font-style:normal;font-variant:normal;font-weight:bold;font-stretch:normal;text-align:start;line-height:125%;letter-spacing:0px;word-spacing:0px;writing-mode:lr-tb;text-anchor:start;fill-opacity:1;stroke:none;font-family:Sans;-inkscape-font-specification:Sans Bold"
       id="path2999"
       inkscape:connector-curvature="0" />
  </g>
</svg>
