<?xml version="1.0" encoding="UTF-8" standalone="no"?>
<!-- Created with Inkscape (http://www.inkscape.org/) -->

<svg
   xmlns:dc="http://purl.org/dc/elements/1.1/"
   xmlns:cc="http://creativecommons.org/ns#"
   xmlns:rdf="http://www.w3.org/1999/02/22-rdf-syntax-ns#"
   xmlns:svg="http://www.w3.org/2000/svg"
   xmlns="http://www.w3.org/2000/svg"
   xmlns:sodipodi="http://sodipodi.sourceforge.net/DTD/sodipodi-0.dtd"
   xmlns:inkscape="http://www.inkscape.org/namespaces/inkscape"
   width="30"
   height="30"
   id="svg2985"
   version="1.1"
   inkscape:version="0.48.4 r9939"
   sodipodi:docname="Bonsai.Expressions.svg">
  <defs
     id="defs2987" />
  <sodipodi:namedview
     id="base"
     pagecolor="#ffffff"
     bordercolor="#666666"
     borderopacity="1.0"
     inkscape:pageopacity="0.0"
     inkscape:pageshadow="2"
     inkscape:zoom="20.48"
     inkscape:cx="12.364626"
     inkscape:cy="16.531526"
     inkscape:document-units="mm"
     inkscape:current-layer="layer1"
     showgrid="false"
     inkscape:window-width="2048"
     inkscape:window-height="1017"
     inkscape:window-x="-8"
     inkscape:window-y="-8"
     inkscape:window-maximized="1"
     units="px"
     showguides="true"
     inkscape:guide-bbox="true" />
  <metadata
     id="metadata2990">
    <rdf:RDF>
      <cc:Work
         rdf:about="">
        <dc:format>image/svg+xml</dc:format>
        <dc:type
           rdf:resource="http://purl.org/dc/dcmitype/StillImage" />
        <dc:title />
      </cc:Work>
    </rdf:RDF>
  </metadata>
  <g
     inkscape:label="Layer 1"
     inkscape:groupmode="layer"
     id="layer1"
     transform="translate(0,-1022.3622)">
    <path
       inkscape:connector-curvature="0"
       id="path3000"
       style="font-size:40px;font-style:normal;font-weight:normal;line-height:125%;letter-spacing:0px;word-spacing:0px;fill:#999999;fill-opacity:1;stroke:#999999;font-family:Sans;stroke-width:0.2;stroke-miterlimit:4;stroke-dasharray:none"
       d="m 9.8858347,1036.4126 0,-2.7596 -2.7390684,0 0,-1.1533 2.7390684,0 0,-2.7391 1.1670213,0 0,2.7391 2.739069,0 0,1.1533 -2.739069,0 0,2.7596 z" />
    <path
       d="m 7.4165137,1043.3383 2.2361555,-2.2361 -2.2194847,-2.2195 0.8143947,-0.8144 2.2194848,2.2195 2.219478,-2.2195 0.835629,0.8356 -2.219479,2.2195 2.219485,2.2195 -0.814395,0.8144 -2.219484,-2.2195 -2.2361556,2.2362 z"
       style="font-size:40px;font-style:normal;font-weight:normal;line-height:125%;letter-spacing:0px;word-spacing:0px;fill:#999999;fill-opacity:1;stroke:#999999;font-family:Sans;stroke-width:0.2;stroke-miterlimit:4;stroke-dasharray:none"
       id="path3003"
       inkscape:connector-curvature="0"
       sodipodi:nodetypes="ccccccccccccc" />
    <path
       inkscape:connector-curvature="0"
       id="path3020"
       d="m 17.017505,1033.7079 0,-1.2426 5.065785,0 0,1.2426 z"
       style="font-size:40px;font-style:normal;font-weight:normal;line-height:125%;letter-spacing:0px;word-spacing:0px;fill:#999999;fill-opacity:1;stroke:#999999;font-family:Sans;stroke-width:0.2;stroke-miterlimit:4;stroke-dasharray:none" />
    <path
       d="m 15.933036,1041.4634 0,-0.6846 7.234722,0 0,0.6846 z"
       id="path3024"
       inkscape:connector-curvature="0"
       style="font-size:40px;font-style:normal;font-weight:normal;line-height:125%;letter-spacing:0px;word-spacing:0px;fill:#999999;fill-opacity:1;stroke:#999999;stroke-width:0.2;stroke-miterlimit:4;stroke-dasharray:none;font-family:Sans" />
    <path
       style="fill:#999999;fill-opacity:1;stroke:#999999;stroke-width:0.2;stroke-miterlimit:4;stroke-dasharray:none"
       d="m 20.753253,1038.9726 c 0,0.6642 -0.538537,1.2027 -1.202855,1.2027 -0.664318,0 -1.202855,-0.5385 -1.202855,-1.2027 0,-0.6642 0.538537,-1.2028 1.202855,-1.2028 0.664318,0 1.202855,0.5386 1.202855,1.2028 z"
       id="path3026"
       inkscape:connector-curvature="0" />
    <path
       inkscape:connector-curvature="0"
       id="path3077"
       d="m 20.753253,1043.2167 c 0,0.6642 -0.538537,1.2027 -1.202855,1.2027 -0.664318,0 -1.202855,-0.5385 -1.202855,-1.2027 0,-0.6642 0.538537,-1.2028 1.202855,-1.2028 0.664318,0 1.202855,0.5386 1.202855,1.2028 z"
       style="fill:#999999;fill-opacity:1;stroke:#999999;stroke-width:0.2;stroke-miterlimit:4;stroke-dasharray:none" />
  </g>
</svg>
