<?xml version="1.0" encoding="UTF-8" standalone="no"?>
<!-- Created with Inkscape (http://www.inkscape.org/) -->

<svg
   xmlns:dc="http://purl.org/dc/elements/1.1/"
   xmlns:cc="http://creativecommons.org/ns#"
   xmlns:rdf="http://www.w3.org/1999/02/22-rdf-syntax-ns#"
   xmlns:svg="http://www.w3.org/2000/svg"
   xmlns="http://www.w3.org/2000/svg"
   xmlns:sodipodi="http://sodipodi.sourceforge.net/DTD/sodipodi-0.dtd"
   xmlns:inkscape="http://www.inkscape.org/namespaces/inkscape"
   width="30"
   height="30"
   id="svg2985"
   version="1.1"
   inkscape:version="0.92.3 (2405546, 2018-03-11)"
   sodipodi:docname="Bonsai.Editor.Scripting.svg">
  <defs
     id="defs2987" />
  <sodipodi:namedview
     id="base"
     pagecolor="#ffffff"
     bordercolor="#666666"
     borderopacity="1.0"
     inkscape:pageopacity="0.0"
     inkscape:pageshadow="2"
     inkscape:zoom="20.48"
     inkscape:cx="20.555834"
     inkscape:cy="15.915896"
     inkscape:document-units="mm"
     inkscape:current-layer="layer2"
     showgrid="false"
     inkscape:window-width="3000"
     inkscape:window-height="1875"
     inkscape:window-x="-13"
     inkscape:window-y="-13"
     inkscape:window-maximized="1"
     units="px"
     showguides="true"
     inkscape:guide-bbox="true">
    <sodipodi:guide
       orientation="1,0"
       position="14.932797,22.787621"
       id="guide2998"
       inkscape:locked="false" />
    <sodipodi:guide
       orientation="0,1"
       position="21.786347,21.682767"
       id="guide3758"
       inkscape:locked="false" />
    <sodipodi:guide
       orientation="0,1"
       position="23.193359,7.9589844"
       id="guide3760"
       inkscape:locked="false" />
    <sodipodi:guide
       orientation="1,0"
       position="25.584283,16.745449"
       id="guide3762"
       inkscape:locked="false" />
  </sodipodi:namedview>
  <metadata
     id="metadata2990">
    <rdf:RDF>
      <cc:Work
         rdf:about="">
        <dc:format>image/svg+xml</dc:format>
        <dc:type
           rdf:resource="http://purl.org/dc/dcmitype/StillImage" />
        <dc:title />
      </cc:Work>
    </rdf:RDF>
  </metadata>
  <g
     inkscape:groupmode="layer"
     id="layer2"
     inkscape:label="Layer 1">
    <path
       style="color:#000000;stroke-width:1.67746973"
       d="M 18.722656,9.5761719 18.166016,11.529297 H 16.09375 L 15.630859,13.158203 H 17.703125 L 17.197266,14.933594 H 15.125 L 14.662109,16.5625 H 16.734375 L 16.177734,18.515625 H 17.90625 L 18.462891,16.5625 H 20.351562 L 19.794922,18.515625 H 21.523438 L 22.080078,16.5625 H 24.109375 L 24.572266,14.933594 H 22.542969 L 23.048828,13.158203 H 25.121094 L 25.583984,11.529297 H 23.511719 L 24.056641,9.6191406 H 22.328125 L 21.783203,11.529297 H 19.894531 L 20.451172,9.5761719 Z M 19.431641,13.158203 H 21.320312 L 20.814453,14.933594 H 18.925781 Z"
       id="path824"
       inkscape:connector-curvature="0" />
    <path
       style="color:#000000;stroke-width:1.75785303"
       d="M 14.941396,10.2889 C 13.22509,8.5385 10.613728,7.9981 8.3438558,8.924 6.0739832,9.85 4.5853378,12.0636 4.5830989,14.515 4.5808589,16.9665 6.065788,19.1812 8.3339711,20.1114 10.602147,21.0414 13.213294,20.5057 14.932797,18.7585 L 13.679885,17.5254 C 12.457476,18.7676 10.613174,19.1454 9.000714,18.4843 7.3882465,17.8231 6.3392318,16.2583 6.3408215,14.5155 6.3424115,12.7727 7.3938867,11.2109 9.0075577,10.5526 10.621229,9.8943 12.466246,10.2759 13.686387,11.5202 Z"
       id="path820"
       inkscape:connector-curvature="0"
       inkscape:transform-center-x="5.1448659"
       inkscape:transform-center-y="4.22944" />
  </g>
</svg>
