<?xml version="1.0" encoding="UTF-8" standalone="no"?>
<!-- Created with Inkscape (http://www.inkscape.org/) -->

<svg
   xmlns:dc="http://purl.org/dc/elements/1.1/"
   xmlns:cc="http://creativecommons.org/ns#"
   xmlns:rdf="http://www.w3.org/1999/02/22-rdf-syntax-ns#"
   xmlns:svg="http://www.w3.org/2000/svg"
   xmlns="http://www.w3.org/2000/svg"
   xmlns:sodipodi="http://sodipodi.sourceforge.net/DTD/sodipodi-0.dtd"
   xmlns:inkscape="http://www.inkscape.org/namespaces/inkscape"
   width="30"
   height="30"
   id="svg2985"
   version="1.1"
   inkscape:version="0.92.3 (2405546, 2018-03-11)"
   sodipodi:docname="Bonsai.Expressions.ReplayBuilder.svg">
  <defs
     id="defs2987" />
  <sodipodi:namedview
     id="base"
     pagecolor="#ffffff"
     bordercolor="#666666"
     borderopacity="1.0"
     inkscape:pageopacity="0.0"
     inkscape:pageshadow="2"
     inkscape:zoom="10.24"
     inkscape:cx="14.530667"
     inkscape:cy="3.2237111"
     inkscape:document-units="mm"
     inkscape:current-layer="layer1"
     showgrid="false"
     inkscape:window-width="3000"
     inkscape:window-height="1875"
     inkscape:window-x="-13"
     inkscape:window-y="-13"
     inkscape:window-maximized="1"
     units="px"
     showguides="true"
     inkscape:guide-bbox="true">
    <sodipodi:guide
       orientation="0,1"
       position="-17.285156,15.039062"
       id="guide4444"
       inkscape:locked="false" />
    <sodipodi:guide
       orientation="1,0"
       position="14.941406,41.796875"
       id="guide4446"
       inkscape:locked="false" />
  </sodipodi:namedview>
  <metadata
     id="metadata2990">
    <rdf:RDF>
      <cc:Work
         rdf:about="">
        <dc:format>image/svg+xml</dc:format>
        <dc:type
           rdf:resource="http://purl.org/dc/dcmitype/StillImage" />
        <dc:title />
      </cc:Work>
    </rdf:RDF>
  </metadata>
  <g
     inkscape:label="Layer 1"
     inkscape:groupmode="layer"
     id="layer1"
     transform="translate(0,-1022.3622)">
    <path
       style="color:#000000;stroke-width:1.99999988;stroke-linecap:round"
       d="m 14.65625,1026.7099 c 2.237631,1.2916 4.47472,2.5842 6.712891,3.875 -2.23763,1.2923 -4.475261,2.5846 -6.712891,3.8769 0,-0.9896 0,-1.9792 0,-2.9687 -3.020628,0.068 -5.7720264,2.4717 -6.2342509,5.4593 -0.5559311,2.8915 1.0838064,6.0132 3.7909809,7.1787 2.733272,1.2838 6.269071,0.3872 8.034578,-2.0702 0.907685,-1.1856 1.326963,-2.6832 1.330989,-4.1632 0.127116,-0.8698 1.427594,-1.0941 1.838749,-0.3171 0.304477,0.6697 0.06721,1.4445 -0.01143,2.144 -0.650617,3.6468 -3.897163,6.6171 -7.585284,6.9445 -3.522277,0.4082 -7.1482465,-1.6271 -8.6462174,-4.8417 -1.5718763,-3.1522 -0.9150831,-7.2313 1.5841659,-9.7206 1.5308455,-1.5896 3.6908235,-2.5526 5.8977215,-2.6157 0,-0.9271 0,-1.8542 0,-2.7812 z"
       id="path3012"
       inkscape:connector-curvature="0" />
  </g>
</svg>
