<?xml version="1.0" encoding="UTF-8" standalone="no"?>
<svg
   xmlns:dc="http://purl.org/dc/elements/1.1/"
   xmlns:cc="http://creativecommons.org/ns#"
   xmlns:rdf="http://www.w3.org/1999/02/22-rdf-syntax-ns#"
   xmlns:svg="http://www.w3.org/2000/svg"
   xmlns="http://www.w3.org/2000/svg"
   xmlns:sodipodi="http://sodipodi.sourceforge.net/DTD/sodipodi-0.dtd"
   xmlns:inkscape="http://www.inkscape.org/namespaces/inkscape"
   width="30"
   height="30"
   version="1.1"
   id="svg4498"
   sodipodi:docname="Bonsai.Design.ElementCategory.Property.svg"
   inkscape:version="0.92.4 (5da689c313, 2019-01-14)">
  <metadata
     id="metadata4504">
    <rdf:RDF>
      <cc:Work
         rdf:about="">
        <dc:format>image/svg+xml</dc:format>
        <dc:type
           rdf:resource="http://purl.org/dc/dcmitype/StillImage" />
      </cc:Work>
    </rdf:RDF>
  </metadata>
  <defs
     id="defs4502" />
  <sodipodi:namedview
     pagecolor="#ffffff"
     bordercolor="#666666"
     borderopacity="1"
     objecttolerance="10"
     gridtolerance="10"
     guidetolerance="10"
     inkscape:pageopacity="0"
     inkscape:pageshadow="2"
     inkscape:window-width="2048"
     inkscape:window-height="1017"
     id="namedview4500"
     showgrid="false"
     inkscape:zoom="16"
     inkscape:cx="24.926598"
     inkscape:cy="10.516153"
     inkscape:window-x="-8"
     inkscape:window-y="-8"
     inkscape:window-maximized="1"
     inkscape:current-layer="svg4498" />
  <path
     d="M 15.000309,0 C 15.401545,0 15.793858,0 16.187155,0.03267927 L 17.476708,1.6712862 C 18.19532,1.8039638 18.878282,1.9768824 19.55244,2.2177376 L 21.428932,1.4834246 C 22.14001,1.8232891 22.829212,2.2269049 23.472939,2.6702715 L 23.849642,4.6213187 C 24.394956,5.086696 24.913605,5.6055703 25.37916,6.1508381 L 27.330198,6.4944962 C 27.773017,7.1377957 28.177468,7.8609183 28.517044,8.5713979 L 27.746287,10.448002 C 27.987191,11.12216 28.196456,11.805195 28.328967,12.523619 L 29.967586,13.81326 C 29.998538,14.206375 30.000553,14.599063 30.000553,15.000107 30.000553,15.392472 29.997178,15.769302 29.967586,16.154061 L 28.328967,17.440142 C 28.198765,18.146493 28.017656,18.852607 27.782706,19.515756 L 28.517012,21.428816 C 28.176376,22.143046 27.775053,22.826632 27.330165,23.472824 L 25.379124,23.813159 C 24.913559,24.358427 24.394909,24.876944 23.849606,25.342559 L 23.472907,27.33005 C 22.828804,27.773844 22.14045,28.176818 21.428899,28.516789 L 19.515951,27.746141 C 18.851487,27.981789 18.184087,28.198262 17.476553,28.328928 L 16.187015,29.934534 C 15.793729,29.965177 15.401416,30 15.000169,30 14.598931,30 14.173651,29.966249 13.78032,29.934534 L 12.560147,28.328928 C 11.861893,28.200155 11.140818,27.977172 10.484414,27.746141 L 8.5714815,28.516789 C 7.8563518,28.175747 7.1746301,27.775666 6.5274733,27.33005 L 6.1507605,25.306343 C 5.6173284,24.848067 5.1142783,24.348012 4.6576949,23.813159 L 2.6703229,23.472824 C 2.2254455,22.826632 1.8241226,22.143046 1.483476,21.428816 L 2.2542321,19.515756 C 2.023023,18.859353 1.8002999,18.138564 1.6715518,17.440142 L 0.06593498,16.186954 C 0.03498717,15.793839 0,15.401472 0,15.000107 0,14.599063 0.03498825,14.206375 0.06593498,13.81326 L 1.6715518,12.523619 C 1.8020042,11.816201 2.0186557,11.14891 2.2542321,10.484457 L 1.483476,8.5713979 C 1.8230404,7.8609183 2.2275027,7.1377957 2.6703229,6.4944962 L 4.6576949,6.1508381 C 5.1143255,5.6158672 5.6173757,5.11593 6.1507605,4.6576542 L 6.5274733,2.6702715 C 7.1742015,2.2248691 7.8568232,1.8243605 8.5714815,1.4834246 L 10.484414,2.2177376 C 11.147718,1.9828002 11.854034,1.801715 12.560147,1.6712862 L 13.846258,0.03267927 C 14.231006,0.00310721 14.607793,0 15.000104,0 Z"
     id="path4496"
     inkscape:connector-curvature="0"
     style="fill:#808080;stroke-width:1.07145154"
     sodipodi:nodetypes="sccccccccccccsccccccccccccsccccccccccccsccccccccccccss" />
</svg>
