<?xml version="1.0" encoding="UTF-8" standalone="no"?>
<!-- Created with Inkscape (http://www.inkscape.org/) -->

<svg
   xmlns:dc="http://purl.org/dc/elements/1.1/"
   xmlns:cc="http://creativecommons.org/ns#"
   xmlns:rdf="http://www.w3.org/1999/02/22-rdf-syntax-ns#"
   xmlns:svg="http://www.w3.org/2000/svg"
   xmlns="http://www.w3.org/2000/svg"
   xmlns:sodipodi="http://sodipodi.sourceforge.net/DTD/sodipodi-0.dtd"
   xmlns:inkscape="http://www.inkscape.org/namespaces/inkscape"
   width="30"
   height="30"
   id="svg2985"
   version="1.1"
   inkscape:version="0.92.3 (2405546, 2018-03-11)"
   sodipodi:docname="Bonsai.Expressions.ReplayBuilder.svg">
  <defs
     id="defs2987" />
  <sodipodi:namedview
     id="base"
     pagecolor="#ffffff"
     bordercolor="#666666"
     borderopacity="1.0"
     inkscape:pageopacity="0.0"
     inkscape:pageshadow="2"
     inkscape:zoom="10.24"
     inkscape:cx="-9.3951143"
     inkscape:cy="3.2237111"
     inkscape:document-units="mm"
     inkscape:current-layer="layer2"
     showgrid="false"
     inkscape:window-width="3000"
     inkscape:window-height="1875"
     inkscape:window-x="-13"
     inkscape:window-y="-13"
     inkscape:window-maximized="1"
     units="px"
     showguides="true"
     inkscape:guide-bbox="true">
    <sodipodi:guide
       orientation="0,1"
       position="-17.285156,15.039062"
       id="guide4444"
       inkscape:locked="false" />
    <sodipodi:guide
       orientation="1,0"
       position="14.941406,41.796875"
       id="guide4446"
       inkscape:locked="false" />
  </sodipodi:namedview>
  <metadata
     id="metadata2990">
    <rdf:RDF>
      <cc:Work
         rdf:about="">
        <dc:format>image/svg+xml</dc:format>
        <dc:type
           rdf:resource="http://purl.org/dc/dcmitype/StillImage" />
        <dc:title />
      </cc:Work>
    </rdf:RDF>
  </metadata>
  <g
     inkscape:groupmode="layer"
     id="layer2"
     inkscape:label="Layer 1">
    <path
       style="color:#000000;stroke-width:1.99999988;stroke-linecap:round"
       d="M 14.65625,4.3477 C 16.893881,5.6393 19.13097,6.9319 21.369141,8.2227 19.131511,9.515 16.89388,10.8073 14.65625,12.0996 14.65625,11.11 14.65625,10.1204 14.65625,9.1309 11.635622,9.1989 8.8842236,11.6026 8.4219991,14.5902 7.866068,17.4817 9.5058055,20.6034 12.21298,21.7689 14.946252,23.0527 18.482051,22.1561 20.247558,19.6987 21.155243,18.5131 21.574521,17.0155 21.578547,15.5355 21.705663,14.6657 23.006141,14.4414 23.417296,15.2184 23.721773,15.8881 23.484506,16.6629 23.405866,17.3624 22.755249,21.0092 19.508703,23.9795 15.820582,24.3069 12.298305,24.7151 8.6723355,22.6798 7.1743646,19.4652 5.6024883,16.313 6.2592815,12.2339 8.7585305,9.7446 10.289376,8.155 12.449354,7.192 14.656252,7.1289 14.656252,6.2018 14.656252,5.2747 14.656252,4.3477 Z"
       id="path3012"
       inkscape:connector-curvature="0" />
  </g>
</svg>
