<?xml version="1.0" encoding="UTF-8" standalone="no"?>
<!-- Created with Inkscape (http://www.inkscape.org/) -->

<svg
   xmlns:dc="http://purl.org/dc/elements/1.1/"
   xmlns:cc="http://creativecommons.org/ns#"
   xmlns:rdf="http://www.w3.org/1999/02/22-rdf-syntax-ns#"
   xmlns:svg="http://www.w3.org/2000/svg"
   xmlns="http://www.w3.org/2000/svg"
   xmlns:sodipodi="http://sodipodi.sourceforge.net/DTD/sodipodi-0.dtd"
   xmlns:inkscape="http://www.inkscape.org/namespaces/inkscape"
   width="30"
   height="30"
   id="svg2985"
   version="1.1"
   inkscape:version="0.92.3 (2405546, 2018-03-11)"
   sodipodi:docname="Bonsai.Expressions.IncludeWorkflowBuilder.svg">
  <defs
     id="defs2987" />
  <sodipodi:namedview
     id="base"
     pagecolor="#ffffff"
     bordercolor="#666666"
     borderopacity="1.0"
     inkscape:pageopacity="0.0"
     inkscape:pageshadow="2"
     inkscape:zoom="16.000001"
     inkscape:cx="11.01675"
     inkscape:cy="9.1110497"
     inkscape:document-units="mm"
     inkscape:current-layer="layer2"
     showgrid="false"
     inkscape:window-width="3000"
     inkscape:window-height="1875"
     inkscape:window-x="-13"
     inkscape:window-y="-13"
     inkscape:window-maximized="1"
     units="px"
     showguides="true"
     inkscape:guide-bbox="true"
     inkscape:object-paths="true"
     inkscape:snap-global="true">
    <sodipodi:guide
       orientation="0,1"
       position="-17.285156,15.039062"
       id="guide4444"
       inkscape:locked="false" />
    <sodipodi:guide
       orientation="1,6.1230318e-17"
       position="14.941406,41.796875"
       id="guide4446"
       inkscape:locked="false" />
  </sodipodi:namedview>
  <metadata
     id="metadata2990">
    <rdf:RDF>
      <cc:Work
         rdf:about="">
        <dc:format>image/svg+xml</dc:format>
        <dc:type
           rdf:resource="http://purl.org/dc/dcmitype/StillImage" />
        <dc:title />
      </cc:Work>
    </rdf:RDF>
  </metadata>
  <g
     inkscape:groupmode="layer"
     id="layer2"
     inkscape:label="Layer 1">
    <path
       id="path821"
       style="stroke-width:2.21644998"
       d="M 17.123047,5.859375 V 10.183594 C 17.123047,10.701271 17.505759,11.082031 18.023438,11.082031 H 22.128906 Z" />
    <path
       id="path837"
       style="stroke-width:2.21644998"
       d="M 12.083984,18.253906 C 13.185359,18.253906 14.082031,19.148624 14.082031,20.25 14.082031,21.351375 13.185359,22.248047 12.083984,22.248047 10.982608,22.248047 10.085938,21.351375 10.085938,20.25 10.085938,19.148624 10.982608,18.253906 12.083984,18.253906 Z M 17.783203,18.238281 C 18.884579,18.238281 19.78125,19.134952 19.78125,20.236328 19.78125,21.337704 18.884579,22.234375 17.783203,22.234375 16.681827,22.234375 15.785156,21.337704 15.785156,20.236328 15.785156,19.134952 16.681827,18.238281 17.783203,18.238281 Z M 14.941406,13.679688 C 16.042782,13.679688 16.939453,14.576358 16.939453,15.677734 16.939453,16.779109 16.042782,17.675781 14.941406,17.675781 13.84003,17.675781 12.943359,16.779109 12.943359,15.677734 12.943359,14.576358 13.84003,13.679688 14.941406,13.679688 Z M 10.882812,5.2050781 C 9.1755606,5.2050781 7.765625,6.6150122 7.765625,8.3222656 V 20.566406 C 7.765625,22.273658 9.1755606,23.681641 10.882812,23.681641 H 19.648438 C 21.35569,23.681641 22.765625,22.273658 22.765625,20.566406 V 13.298828 H 18.023438 C 16.316184,13.298828 14.90625,11.890846 14.90625,10.183594 V 5.2050781 Z" />
  </g>
</svg>
