<?xml version="1.0" encoding="UTF-8"?>
<svg width="30" height="30" version="1.1" xmlns="http://www.w3.org/2000/svg">
 <path d="m20.801 20.8c0 0.6775-0.54931 1.2268-1.2269 1.2268s-1.2269-0.5493-1.2269-1.2268c0-0.6774 0.54931-1.2268 1.2269-1.2268s1.2269 0.5494 1.2269 1.2268zm0-4.3c0 0.6775-0.54931 1.2268-1.2269 1.2268s-1.2269-0.5493-1.2269-1.2268c0-0.6774 0.54931-1.2268 1.2269-1.2268s1.2269 0.5494 1.2269 1.2268zm-4.868 2.6v-0.6983h7.3794v0.6983zm1.085-7.8v-1.2675h5.1671v1.2675zm-9.6015 9.6 2.2809-2.2808-2.2639-2.2639 0.83068-0.8307 2.2639 2.2639 2.2639-2.2639 0.85234 0.8523-2.2639 2.2639 2.2639 2.2639-0.83068 0.8307-2.2639-2.2639-2.2809 2.2809zm2.5241-6.9v-2.8148h-2.7938v-1.1764h2.7938v-2.7938h1.1904v2.7938h2.7938v1.1764h-2.7938v2.8148z"/>
</svg>
