<?xml version="1.0" encoding="UTF-8" standalone="no"?>
<!-- Created with Inkscape (http://www.inkscape.org/) -->

<svg
   xmlns:dc="http://purl.org/dc/elements/1.1/"
   xmlns:cc="http://creativecommons.org/ns#"
   xmlns:rdf="http://www.w3.org/1999/02/22-rdf-syntax-ns#"
   xmlns:svg="http://www.w3.org/2000/svg"
   xmlns="http://www.w3.org/2000/svg"
   xmlns:sodipodi="http://sodipodi.sourceforge.net/DTD/sodipodi-0.dtd"
   xmlns:inkscape="http://www.inkscape.org/namespaces/inkscape"
   width="30"
   height="30"
   id="svg2985"
   version="1.1"
   inkscape:version="0.92.3 (2405546, 2018-03-11)"
   sodipodi:docname="Bonsai.Expressions.ConditionBuilder.svg">
  <defs
     id="defs2987" />
  <sodipodi:namedview
     id="base"
     pagecolor="#ffffff"
     bordercolor="#666666"
     borderopacity="1.0"
     inkscape:pageopacity="0.0"
     inkscape:pageshadow="2"
     inkscape:zoom="32"
     inkscape:cx="-3.912215"
     inkscape:cy="15.335713"
     inkscape:document-units="mm"
     inkscape:current-layer="layer2"
     showgrid="false"
     inkscape:window-width="3000"
     inkscape:window-height="1875"
     inkscape:window-x="-13"
     inkscape:window-y="-13"
     inkscape:window-maximized="1"
     units="px"
     showguides="true"
     inkscape:guide-bbox="true"
     inkscape:object-nodes="false"
     inkscape:snap-object-midpoints="true"
     inkscape:snap-nodes="true"
     inkscape:snap-global="false"
     inkscape:snap-bbox="true"
     inkscape:snap-grids="true"
     inkscape:snap-to-guides="true"
     inkscape:snap-center="true"
     inkscape:snap-intersection-paths="true">
    <sodipodi:guide
       position="10.098369,11.203223"
       orientation="1,0"
       id="guide912"
       inkscape:locked="false" />
    <sodipodi:guide
       position="12.573242,10.650796"
       orientation="1,0"
       id="guide914"
       inkscape:locked="false" />
    <sodipodi:guide
       position="19.875,16.0625"
       orientation="1,0"
       id="guide922"
       inkscape:locked="false" />
  </sodipodi:namedview>
  <metadata
     id="metadata2990">
    <rdf:RDF>
      <cc:Work
         rdf:about="">
        <dc:format>image/svg+xml</dc:format>
        <dc:type
           rdf:resource="http://purl.org/dc/dcmitype/StillImage" />
        <dc:title />
      </cc:Work>
    </rdf:RDF>
  </metadata>
  <g
     inkscape:groupmode="layer"
     id="layer2"
     inkscape:label="Layer 1">
    <path
       style="color:#000000;-inkscape-font-specification:Sans;stroke-width:1.83261335"
       d="M 11.051513,14.0677 H 4.3671359 V 16.0633 H 9.5126872"
       id="path6774"
       inkscape:connector-curvature="0"
       sodipodi:nodetypes="cccc" />
    <path
       style="color:#000000;-inkscape-font-specification:Sans;stroke-width:1.72489202"
       d="M 19.495799,10.9023 V 14.0534 H 17.276258 L 15.754224,16.0755 H 19.495799 V 19.1952 L 26.558938,15.0645 Z"
       id="path3020"
       inkscape:connector-curvature="0"
       sodipodi:nodetypes="cccccccc" />
    <path
       style="color:#000000;-inkscape-font-specification:'Sans Bold';stroke-width:0.83217394"
       d="M 12.063461,7.3177 C 10.797762,7.3178 9.7084516,7.6968 8.9048685,8.4669 8.6016593,8.7575 8.3166341,9.1251 8.0859742,9.5278 L 7.8812506,9.8815 8.2322053,10.0877 9.606778,10.854 9.9377204,11.0335 9.9869784,11.0595 10.191702,10.6765 C 10.323233,10.4187 10.495305,10.2247 10.688887,10.0282 11.04107,9.6706 11.442838,9.5567 12.06346,9.5567 12.659077,9.5567 13.116031,9.7442 13.525773,10.1754 13.94171,10.6134 14.139937,11.0839 14.139942,11.6489 14.139937,11.9545 14.067022,12.2236 13.935218,12.474 13.816016,12.7006 13.501529,13.1142 12.970094,13.6233 12.417113,14.1532 12.009134,14.5522 11.770998,14.8611 11.462977,15.2637 11.244221,15.681 11.098334,16.0986 10.902415,16.6447 10.820492,17.2758 10.820495,17.9847 10.820492,18.106 10.814495,18.2556 10.820495,18.4856 V 18.8982 H 11.244566 12.765371 13.160194 V 18.4856 C 13.171624,17.8152 13.232564,17.3382 13.291802,17.1007 13.357342,16.8379 13.455886,16.6139 13.584265,16.4228 13.700594,16.2499 14.014483,15.8781 14.520144,15.3915 15.303054,14.6386 15.856927,14.0053 16.157932,13.417 16.451346,12.8435 16.596616,12.2005 16.596626,11.5312 16.596616,10.3786 16.15654,9.366 15.339038,8.5547 14.508679,7.7304 13.400323,7.3172 12.06346,7.3171 Z"
       id="path3830"
       inkscape:connector-curvature="0"
       sodipodi:nodetypes="ccccccccccsccccccccccccccccccccc" />
    <path
       style="color:#000000;-inkscape-font-specification:'Sans Bold';stroke-width:0.70885664"
       d="M 10.815999,20.734 V 21.0762 22.7132 23.055 H 11.174326 12.761205 13.119531 V 22.7132 21.0762 20.734 H 12.761205 11.174326 Z"
       id="path3834"
       inkscape:connector-curvature="0" />
  </g>
</svg>
