<?xml version="1.0" encoding="UTF-8"?>
<svg width="30" height="30" version="1.1" xmlns="http://www.w3.org/2000/svg">
 <path d="m21.326 15.8c-1.8674 0-3.4014 1.5323-3.4014 3.3996 0 1.8674 1.534 3.4015 3.4014 3.4015s3.3997-1.5341 3.3997-3.4015c0-1.8673-1.5323-3.3996-3.3997-3.3996zm0-9c-1.8674 0-3.4014 1.5324-3.4014 3.3997 0 1.8674 1.534 3.4014 3.4014 3.4014s3.3997-1.534 3.3997-3.4014c0-1.8673-1.5323-3.3997-3.3997-3.3997zm-7.299-1.1-0.12968 18.404 1.8703 0.01 0.12968-18.404zm-5.5574 1.1c-1.8674 0-3.4014 1.5324-3.4014 3.3997 0 1.8674 1.534 3.4014 3.4014 3.4014s3.3997-1.534 3.3997-3.4014c0-1.8673-1.5323-3.3997-3.3997-3.3997z" color="#000000" stroke-linecap="round" stroke-width="1.8094"/>
</svg>
