<?xml version="1.0" encoding="UTF-8" standalone="no"?>
<!-- Created with Inkscape (http://www.inkscape.org/) -->

<svg
   xmlns:dc="http://purl.org/dc/elements/1.1/"
   xmlns:cc="http://creativecommons.org/ns#"
   xmlns:rdf="http://www.w3.org/1999/02/22-rdf-syntax-ns#"
   xmlns:svg="http://www.w3.org/2000/svg"
   xmlns="http://www.w3.org/2000/svg"
   xmlns:sodipodi="http://sodipodi.sourceforge.net/DTD/sodipodi-0.dtd"
   xmlns:inkscape="http://www.inkscape.org/namespaces/inkscape"
   width="30"
   height="30"
   id="svg2985"
   version="1.1"
   inkscape:version="0.48.4 r9939"
   sodipodi:docname="Bonsai.Design.ElementCategory.Property.svg">
  <defs
     id="defs2987" />
  <sodipodi:namedview
     id="base"
     pagecolor="#ffffff"
     bordercolor="#666666"
     borderopacity="1.0"
     inkscape:pageopacity="0.0"
     inkscape:pageshadow="2"
     inkscape:zoom="20.48"
     inkscape:cx="15.641527"
     inkscape:cy="13.938928"
     inkscape:document-units="mm"
     inkscape:current-layer="layer1"
     showgrid="false"
     inkscape:window-width="2048"
     inkscape:window-height="1017"
     inkscape:window-x="-8"
     inkscape:window-y="-8"
     inkscape:window-maximized="1"
     units="px"
     showguides="true"
     inkscape:guide-bbox="true"
     inkscape:snap-bbox="true"
     inkscape:snap-bbox-midpoints="true"
     inkscape:snap-bbox-edge-midpoints="true"
     inkscape:bbox-nodes="true"
     inkscape:bbox-paths="true"
     inkscape:snap-object-midpoints="true"
     inkscape:snap-center="true">
    <sodipodi:guide
       orientation="0,1"
       position="-17.285156,15.039062"
       id="guide4444" />
    <sodipodi:guide
       orientation="1,0"
       position="14.941406,41.796875"
       id="guide4446" />
  </sodipodi:namedview>
  <metadata
     id="metadata2990">
    <rdf:RDF>
      <cc:Work
         rdf:about="">
        <dc:format>image/svg+xml</dc:format>
        <dc:type
           rdf:resource="http://purl.org/dc/dcmitype/StillImage" />
        <dc:title />
      </cc:Work>
    </rdf:RDF>
  </metadata>
  <g
     inkscape:label="Layer 1"
     inkscape:groupmode="layer"
     id="layer1"
     transform="translate(0,-1022.3622)">
    <g
       id="g3056"
       transform="translate(-223.8937,803.33233)" />
    <g
       id="g3058"
       transform="translate(-223.8937,803.33233)" />
    <g
       id="g3060"
       transform="translate(-223.8937,803.33233)" />
    <g
       id="g3062"
       transform="translate(-223.8937,803.33233)" />
    <g
       id="g3064"
       transform="translate(-223.8937,803.33233)" />
    <g
       id="g3066"
       transform="translate(-223.8937,803.33233)" />
    <g
       id="g3068"
       transform="translate(-223.8937,803.33233)" />
    <g
       id="g3070"
       transform="translate(-223.8937,803.33233)" />
    <g
       id="g3072"
       transform="translate(-223.8937,803.33233)" />
    <g
       id="g3074"
       transform="translate(-223.8937,803.33233)" />
    <g
       id="g3076"
       transform="translate(-223.8937,803.33233)" />
    <g
       id="g3078"
       transform="translate(-223.8937,803.33233)" />
    <g
       id="g3080"
       transform="translate(-223.8937,803.33233)" />
    <g
       id="g3082"
       transform="translate(-223.8937,803.33233)" />
    <g
       id="g3084"
       transform="translate(-223.8937,803.33233)" />
    <path
       style="fill:#999999;fill-opacity:1;stroke:none;stroke-width:0.1;stroke-miterlimit:4;stroke-dasharray:none"
       d="M 15 0 C 6.7156614 0 0 6.7158 0 15 C 0 23.2844 6.7156614 30 15 30 C 23.284338 30 30 23.2844 30 15 C 30 6.7158 23.284338 0 15 0 z M 15 0.78125 C 15.380332 0.78125 15.752205 0.7795 16.125 0.8125 L 17.125 3.5625 C 17.741652 3.6763 18.32774 3.82465 18.90625 4.03125 L 21.09375 2.1875 C 21.76778 2.5097 22.421055 2.8923 23.03125 3.3125 L 22.59375 6.09375 C 23.061685 6.49325 23.506744 6.93835 23.90625 7.40625 L 26.6875 6.9375 C 27.107243 7.5473 27.49063 8.23275 27.8125 8.90625 L 25.9375 11.09375 C 26.144215 11.67225 26.323797 12.2584 26.4375 12.875 L 29.1875 13.875 C 29.21684 14.2477 29.21875 14.6198 29.21875 15 C 29.21875 15.372 29.21553 15.72905 29.1875 16.09375 L 26.4375 17.09375 C 26.325771 17.69985 26.170363 18.3058 25.96875 18.875 L 27.8125 21.09375 C 27.489614 21.77065 27.109197 22.41875 26.6875 23.03125 L 23.90625 22.5625 C 23.506744 23.0305 23.061685 23.4753 22.59375 23.875 L 23.03125 26.6875 C 22.420709 27.1081 21.768211 27.4901 21.09375 27.8125 L 18.875 25.9375 C 18.304818 26.1396 17.732091 26.3255 17.125 26.4375 L 16.125 29.15625 C 15.752205 29.18525 15.380332 29.21875 15 29.21875 C 14.619669 29.21875 14.216545 29.18625 13.84375 29.15625 L 12.90625 26.4375 C 12.307073 26.327 11.688274 26.1357 11.125 25.9375 L 8.90625 27.8125 C 8.2283781 27.4891 7.5821311 27.1099 6.96875 26.6875 L 7.40625 23.84375 C 6.9485052 23.45065 6.5168382 23.0215 6.125 22.5625 L 3.3125 23.03125 C 2.8908022 22.41875 2.5103856 21.77065 2.1875 21.09375 L 4.0625 18.875 C 3.8640937 18.3116 3.6729797 17.69305 3.5625 17.09375 L 0.84375 16.125 C 0.8144142 15.7523 0.78125 15.3804 0.78125 15 C 0.78125 14.6198 0.8144153 14.2477 0.84375 13.875 L 3.5625 12.875 C 3.6744392 12.2679 3.8603473 11.6952 4.0625 11.125 L 2.1875 8.90625 C 2.5093685 8.23275 2.8927569 7.5473 3.3125 6.9375 L 6.125 7.40625 C 6.5168382 6.94725 6.9485052 6.5184 7.40625 6.125 L 6.96875 3.3125 C 7.581784 2.8904 8.2288108 2.5107 8.90625 2.1875 L 11.125 4.03125 C 11.694189 3.82965 12.300296 3.6743 12.90625 3.5625 L 13.90625 0.8125 C 14.270954 0.7845 14.628101 0.78125 15 0.78125 z "
       transform="translate(0,1022.3622)"
       id="path3002" />
  </g>
</svg>
