<?xml version="1.0" encoding="UTF-8"?>
<svg width="30" height="30" version="1.1" xmlns="http://www.w3.org/2000/svg">
 <path d="m11.656 8.2 0.34375 0.5 4.3125 6.0937-4.6562 6.625-0.375 0.5h3.4688l0.09375-0.1563 3.1562-4.75 0.46875 0.6876 2.6875 4.0624 0.09375 0.1563h3.5l-0.34375-0.5-4.75-6.75 4.4062-5.9687 0.34375-0.5h-3.4062l-0.09375 0.125-2.2188 3.0937c-0.22474 0.3098-0.46392 0.6875-0.71875 1.0625-0.19804-0.3265-0.38173-0.6388-0.65625-1.0625l-2.0312-3.0625-0.09375-0.1562h-3.5312z" color="#000000" stroke-width=".63047"/>
 <path d="m11.045 13.384c0.077758 2.0612-2.1632 3.7234-4.1127 3.0595-1.9948-0.51858-2.9471-3.1415-1.748-4.8185 0.56099-0.86283 1.557-1.4151 2.5858-1.4342" fill="none" stroke="currentColor" stroke-linejoin="round" stroke-width="1.3691"/>
 <path d="m7.526 12.389v-4.1074l3.5571 2.0537-1.7786 1.0269z" stroke-width="1.0439"/>
</svg>
