<?xml version="1.0" encoding="UTF-8"?>
<svg width="30" height="30" version="1.1" xmlns="http://www.w3.org/2000/svg">
 <path d="m10.615 13.8c-2.3616 0-4.2812 1.9196-4.2812 4.2813 0 2.3616 1.9196 4.25 4.2812 4.25 2.2956 0 4.1471-1.7923 4.25-4.0625h-2.5c-0.09932 0.8899-0.83355 1.5937-1.75 1.5937-0.984 0-1.7812-0.7972-1.7812-1.7812s0.79725-1.7813 1.7812-1.7813c0.32964 0 0.64141 0.063 0.90625 0.2188l1.2188-2.125c-0.63167-0.3682-1.3412-0.5938-2.125-0.5938zm4.375-8.2c-2.3616 0-4.25 1.9197-4.25 4.2813 0 1.706 0.99243 3.1576 2.4375 3.8437l1.25-2.1875c-0.69947-0.2405-1.2188-0.8751-1.2188-1.6562 0-0.984 0.79725-1.7813 1.7812-1.7813 0.984 0 1.7812 0.7973 1.7812 1.7813 0 0.695-0.3882 1.2688-0.96875 1.5625l1.25 2.1562c1.3227-0.7271 2.2188-2.1027 2.2188-3.7187 0-2.3616-1.9196-4.2813-4.2812-4.2813zm2.563 8.8c-1.3055 0.732-2.1875 2.1155-2.1875 3.7188 0 2.3616 1.9196 4.25 4.2812 4.25s4.25-1.8884 4.25-4.25c0-1.5423-0.80699-2.9041-2.0312-3.6563l-1.25 2.1563c0.47393 0.3202 0.8125 0.885 0.8125 1.5 0 0.984-0.79725 1.7812-1.7812 1.7812-0.984 0-1.7812-0.7972-1.7812-1.7812 0-0.6847 0.37113-1.2954 0.9375-1.5938z"/>
</svg>
