<?xml version="1.0" encoding="UTF-8" standalone="no"?>
<svg
   xmlns:dc="http://purl.org/dc/elements/1.1/"
   xmlns:cc="http://creativecommons.org/ns#"
   xmlns:rdf="http://www.w3.org/1999/02/22-rdf-syntax-ns#"
   xmlns:svg="http://www.w3.org/2000/svg"
   xmlns="http://www.w3.org/2000/svg"
   xmlns:sodipodi="http://sodipodi.sourceforge.net/DTD/sodipodi-0.dtd"
   xmlns:inkscape="http://www.inkscape.org/namespaces/inkscape"
   width="30"
   height="30"
   version="1.1"
   id="svg4085"
   sodipodi:docname="Bonsai.Expressions.MulticastSubjectBuilder.svg"
   inkscape:version="0.92.4 (5da689c313, 2019-01-14)">
  <metadata
     id="metadata4091">
    <rdf:RDF>
      <cc:Work
         rdf:about="">
        <dc:format>image/svg+xml</dc:format>
        <dc:type
           rdf:resource="http://purl.org/dc/dcmitype/StillImage" />
      </cc:Work>
    </rdf:RDF>
  </metadata>
  <defs
     id="defs4089" />
  <sodipodi:namedview
     pagecolor="#ffffff"
     bordercolor="#666666"
     borderopacity="1"
     objecttolerance="10"
     gridtolerance="10"
     guidetolerance="10"
     inkscape:pageopacity="0"
     inkscape:pageshadow="2"
     inkscape:window-width="1819"
     inkscape:window-height="1057"
     id="namedview4087"
     showgrid="false"
     showguides="true"
     inkscape:guide-bbox="true"
     inkscape:zoom="24.39489"
     inkscape:cx="16.080508"
     inkscape:cy="13.283898"
     inkscape:window-x="93"
     inkscape:window-y="-8"
     inkscape:window-maximized="1"
     inkscape:current-layer="svg4085">
    <sodipodi:guide
       position="9.018,15"
       orientation="0,1"
       id="guide5328"
       inkscape:locked="false"
       inkscape:label=""
       inkscape:color="rgb(0,0,255)" />
  </sodipodi:namedview>
  <path
     style="color:#000000;font-style:normal;font-variant:normal;font-weight:normal;font-stretch:normal;font-size:medium;line-height:normal;font-family:sans-serif;font-variant-ligatures:normal;font-variant-position:normal;font-variant-caps:normal;font-variant-numeric:normal;font-variant-alternates:normal;font-feature-settings:normal;text-indent:0;text-align:start;text-decoration:none;text-decoration-line:none;text-decoration-style:solid;text-decoration-color:#000000;letter-spacing:normal;word-spacing:normal;text-transform:none;writing-mode:lr-tb;direction:ltr;text-orientation:mixed;dominant-baseline:auto;baseline-shift:baseline;text-anchor:start;white-space:normal;shape-padding:0;clip-rule:nonzero;display:inline;overflow:visible;visibility:visible;opacity:1;isolation:auto;mix-blend-mode:normal;color-interpolation:sRGB;color-interpolation-filters:linearRGB;solid-color:#000000;solid-opacity:1;vector-effect:none;fill-opacity:1;fill-rule:nonzero;stroke:none;stroke-width:2;stroke-linecap:round;stroke-linejoin:miter;stroke-miterlimit:9;stroke-dasharray:none;stroke-dashoffset:0;stroke-opacity:1;color-rendering:auto;image-rendering:auto;shape-rendering:auto;text-rendering:auto;enable-background:accumulate"
     d="M 22.991988,7.8398434 C 22.314536,7.80651 22.023427,8.4808149 21.661761,8.926485 20.578477,10.390443 19.495194,11.854401 18.41191,13.318359 17.140803,11.606066 15.880014,9.8857381 14.60244,8.1784813 14.103688,7.5700481 13.003445,7.86917 12.881406,8.646377 12.745233,9.2854173 13.309622,9.71994 13.617501,10.203344 14.800924,11.802229 15.984346,13.401115 17.167769,15 15.780246,16.880944 14.381718,18.754167 13.001087,20.639946 12.565956,21.295389 13.175006,22.25927 13.953782,22.147678 14.604165,22.089986 14.854416,21.423572 15.226786,20.987994 16.288494,19.553194 17.350202,18.118393 18.41191,16.683593 19.681833,18.396812 20.946136,20.114305 22.219581,21.824845 22.704193,22.44409 23.810356,22.170076 23.949876,21.396224 24.105009,20.754784 23.536288,20.311811 23.226232,19.82755 22.036171,18.218367 20.846111,16.609183 19.65605,15 21.043685,13.120242 22.439224,11.246112 23.82191,9.3628313 24.235542,8.7384878 23.741443,7.8310331 22.991988,7.8398434 Z"
     id="line188"
     inkscape:connector-curvature="0" />
  <path
     style="clip-rule:evenodd;fill-rule:evenodd"
     d="M 4.9934654,10.2664 C 5.1264359,9.7888969 5.7799482,9.5974643 6.1809653,9.8570983 6.4313925,9.9589053 6.7046046,10.022799 6.9747153,10.011713 7.347928,9.9740259 7.6848993,9.6139513 7.5934409,9.2278015 7.6536176,8.9488214 7.4430873,8.7074603 7.5237876,8.4440368 7.6116654,8.0489406 8.0594364,7.7345149 8.4507315,7.919635 8.754932,8.0389131 8.976451,8.3755457 8.8934409,8.7039001 8.9348597,8.9758714 8.7672041,9.2168339 8.7872153,9.4812439 8.8288669,9.9877876 9.4689725,10.288358 9.8919247,10.01717 10.151718,9.9088851 10.390407,9.6948879 10.690341,9.7460876 10.997358,9.7820304 11.303843,10.00665 11.393466,10.303094 11.447393,10.59812 11.417723,10.946349 11.154403,11.139837 10.795994,11.392101 10.303043,11.354931 9.9637778,11.639838 9.679776,11.892321 9.6026923,12.388955 9.8934653,12.6664 10.024294,12.883734 10.238097,13.036623 10.367459,13.255719 10.58738,13.589024 10.445884,14.079146 10.134994,14.301507 9.7970724,14.504674 9.2882618,14.383439 9.15577,13.9914 9.0166758,13.706964 8.8152383,13.454174 8.5878012,13.237884 8.2148851,12.94077 7.608292,13.121633 7.4442356,13.564859 7.3140261,13.793207 7.2377305,14.059258 7.0526206,14.250531 6.6633879,14.586614 5.9492892,14.318917 5.9184653,13.7914 5.8709607,13.479895 6.041387,13.192712 6.2547202,12.981952 6.413547,12.726497 6.7108005,12.518758 6.6781302,12.184109 6.666226,11.784538 6.3203894,11.449214 5.9235434,11.433197 5.6382336,11.34116 5.2208878,11.404439 5.063607,11.099847 4.9579656,10.837489 4.9695879,10.542814 4.9934654,10.2664 Z"
     id="path158"
     inkscape:connector-curvature="0" />
</svg>
