<?xml version="1.0" encoding="UTF-8" standalone="no"?>
<!-- Created with Inkscape (http://www.inkscape.org/) -->

<svg
   xmlns:dc="http://purl.org/dc/elements/1.1/"
   xmlns:cc="http://creativecommons.org/ns#"
   xmlns:rdf="http://www.w3.org/1999/02/22-rdf-syntax-ns#"
   xmlns:svg="http://www.w3.org/2000/svg"
   xmlns="http://www.w3.org/2000/svg"
   xmlns:sodipodi="http://sodipodi.sourceforge.net/DTD/sodipodi-0.dtd"
   xmlns:inkscape="http://www.inkscape.org/namespaces/inkscape"
   width="30"
   height="30"
   id="svg2985"
   version="1.1"
   inkscape:version="0.92.4 (5da689c313, 2019-01-14)"
   sodipodi:docname="Bonsai.Physics.svg"
   inkscape:export-filename="C:\Users\gonca\Documents\Projects\github\bonsai-rx\bonsai-icons\Bonsai.Physics.png"
   inkscape:export-xdpi="601.59998"
   inkscape:export-ydpi="601.59998">
  <defs
     id="defs2987">
    <inkscape:perspective
       id="perspective8436"
       inkscape:persp3d-origin="15 : 10 : 1"
       inkscape:vp_z="228.82884 : 48.437761 : 1"
       inkscape:vp_y="0 : 1000 : 0"
       inkscape:vp_x="72.628256 : 20.393187 : 1"
       sodipodi:type="inkscape:persp3d" />
  </defs>
  <sodipodi:namedview
     id="base"
     pagecolor="#ffffff"
     bordercolor="#666666"
     borderopacity="1.0"
     inkscape:pageopacity="0.0"
     inkscape:pageshadow="2"
     inkscape:zoom="10.24"
     inkscape:cx="13.675695"
     inkscape:cy="11.555125"
     inkscape:document-units="mm"
     inkscape:current-layer="layer2"
     showgrid="false"
     inkscape:window-width="1827"
     inkscape:window-height="1051"
     inkscape:window-x="84"
     inkscape:window-y="-9"
     inkscape:window-maximized="1"
     units="px"
     showguides="false"
     inkscape:guide-bbox="true">
    <sodipodi:guide
       orientation="1,0"
       position="16.455078,9.4726562"
       id="guide2998"
       inkscape:locked="false" />
    <sodipodi:guide
       orientation="0,1"
       position="0.87890625,14.941406"
       id="guide3000"
       inkscape:locked="false" />
    <sodipodi:guide
       orientation="0,1"
       position="21.786347,21.682767"
       id="guide3758"
       inkscape:locked="false" />
    <sodipodi:guide
       orientation="0,1"
       position="19.507585,8.1828275"
       id="guide3760"
       inkscape:locked="false" />
    <sodipodi:guide
       orientation="1,0"
       position="25.584283,16.745449"
       id="guide3762"
       inkscape:locked="false" />
    <sodipodi:guide
       orientation="1,0"
       position="4.1015625,24.023437"
       id="guide3764"
       inkscape:locked="false" />
  </sodipodi:namedview>
  <metadata
     id="metadata2990">
    <rdf:RDF>
      <cc:Work
         rdf:about="">
        <dc:format>image/svg+xml</dc:format>
        <dc:type
           rdf:resource="http://purl.org/dc/dcmitype/StillImage" />
        <dc:title></dc:title>
      </cc:Work>
    </rdf:RDF>
  </metadata>
  <g
     inkscape:groupmode="layer"
     id="layer2"
     inkscape:label="Layer 1">
    <path
       style="opacity:1;fill:none;fill-opacity:1;stroke:currentColor;stroke-width:1.79999995;stroke-linejoin:round;stroke-miterlimit:4;stroke-dasharray:none;stroke-opacity:1"
       d="m 14.974609,11.105469 c 1.002334,-0.499557 1.99803,-0.926472 2.947266,-1.2636721 C 17.320613,6.5887834 16.194129,4.5760331 14.972656,4.5722656 13.75105,4.5764356 12.624535,6.5899846 12.023438,9.84375 m 10.573889,3.42975 c 1.293487,-1.466403 1.806888,-2.735823 1.363611,-3.5117812 -0.613356,-1.0567509 -2.920219,-1.0261618 -6.039063,0.080078 0.183876,0.9903822 0.31321,2.0666212 0.382813,3.1855472 0.933569,0.618863 1.800605,1.26815 2.566406,1.921875 M 18.304688,16.875 c -0.06906,1.117894 -0.19773,2.193439 -0.38086,3.183594 3.116203,1.105189 5.421838,1.136517 6.03711,0.08203 0.609162,-1.05962 -0.571223,-3.042846 -3.089844,-5.191406 v 10e-7 m -8.336963,7.200125 c 0.62993,2.002063 1.506481,3.176216 2.438525,3.180734 1.222305,-0.002 2.349731,-2.015859 2.951172,-5.271484 -0.949948,-0.336052 -1.947012,-0.762328 -2.951172,-1.261719 -1.002334,0.499557 -1.998029,0.926472 -2.947265,1.263672 M 11.642578,16.875 c -0.933569,-0.618863 -1.8006053,-1.26815 -2.5664061,-1.921875 -2.515398,2.1462 -3.695453,4.12738 -3.0898438,5.1875 0.6133563,1.056751 2.9202186,1.026162 6.0390629,-0.08008 v 4.9e-5 M 10.017485,9.2528438 C 7.9383783,8.7813265 6.4604594,8.949128 5.9863281,9.7617188 5.3771656,10.821339 6.5575508,12.804565 9.0761719,14.953125 c 0.7647116,-0.654142 1.6311031,-1.304101 2.5644531,-1.923828 0.0696,-1.118926 0.198937,-2.195165 0.382813,-3.185547 m 2.951218,1.261719 c -0.569186,0.282173 -1.137406,0.586226 -1.697265,0.908203 -0.559227,0.323752 -1.107179,0.66377 -1.636719,1.015625 h -4.7e-5 m 0.002,3.845703 c 0.528988,0.351197 1.07628,0.690557 1.634766,1.013672 0.559145,0.321896 1.126706,0.625947 1.695312,0.908203 M 18.304735,16.875 c 0.0397,-0.634118 0.05997,-1.278186 0.06055,-1.923828 -5.78e-4,-0.645642 -0.02085,-1.28971 -0.06055,-1.923828"
       id="path827"
       inkscape:connector-curvature="0"
       sodipodi:nodetypes="ccccccccccccccccccccccccccccccccccccccc" />
    <circle
       style="opacity:1;fill-opacity:1;stroke:none;stroke-width:1.8;stroke-linejoin:round;stroke-miterlimit:4;stroke-dasharray:none;stroke-opacity:1"
       id="path1393"
       cx="14.915807"
       cy="14.912109"
       r="1.1230469" />
  </g>
</svg>
