<?xml version="1.0" encoding="UTF-8"?>
<svg width="30" height="30" version="1.1" xmlns="http://www.w3.org/2000/svg">
 <path d="M 1.536258,7.8 C 1.990988,6.9385 2.527938,6.1205 3.140258,5.3587 3.752658,4.5967 4.440258,3.8909 5.196758,3.254 5.953108,2.617 6.778158,2.049 7.665258,1.5627 M 0.453798,19.5 C 0.143548,18.4959 -0.057142,17.4838 -0.156452,16.4772 -0.2552,15.4704 -0.251646,14.4687 -0.1525829,13.4847 -0.0533429,12.501 0.1414271,11.535 0.4251471,10.5996 M 7.892358,28.4 C 7.030968,27.9454 6.212858,27.4084 5.450958,26.7961 4.689018,26.1838 3.983258,25.4961 3.346358,24.7397 2.709568,23.9833 2.141558,23.1582 1.655158,22.2711 M 19.494058,29.5 C 18.489858,29.8103 17.477758,30.011 16.471158,30.1103 15.464358,30.2091 14.462758,30.2056 13.478858,30.1025 12.494978,30.0035 11.529058,29.8086 10.593558,29.5249 M 28.464058,22.1 C 28.009328,22.9613 27.472408,23.7795 26.860058,24.5414 26.247788,25.3033 25.559858,26.0091 24.803558,26.646 24.047208,27.2829 23.222158,27.8509 22.335058,28.3372 M 29.546058,10.5 C 29.856348,11.5042 30.056998,12.5162 30.156348,13.5229 30.255217,14.5297 30.251543,15.5315 30.152402,16.5152 30.053198,17.4991 29.858432,18.4651 29.574702,19.4005 M 22.108058,1.5 C 22.969448,1.9547 23.787558,2.4917 24.549458,3.1039 25.311398,3.7163 26.017158,4.4041 26.654058,5.1604 27.290888,5.9169 27.858958,6.7419 28.345358,7.6291 M 10.505058,0.4 C 11.509258,0.0897 12.521158,-0.1109 13.527858,-0.2103 14.534758,-0.309 15.536258,-0.3055 16.520158,-0.2103 17.504078,-0.1111 18.470058,0.0837 19.405558,0.3674" fill="none" stroke="#a9a9a9" stroke-width="2"/>
</svg>
