<?xml version="1.0" encoding="UTF-8" standalone="no"?>
<!-- Created with Inkscape (http://www.inkscape.org/) -->

<svg
   xmlns:dc="http://purl.org/dc/elements/1.1/"
   xmlns:cc="http://creativecommons.org/ns#"
   xmlns:rdf="http://www.w3.org/1999/02/22-rdf-syntax-ns#"
   xmlns:svg="http://www.w3.org/2000/svg"
   xmlns="http://www.w3.org/2000/svg"
   xmlns:sodipodi="http://sodipodi.sourceforge.net/DTD/sodipodi-0.dtd"
   xmlns:inkscape="http://www.inkscape.org/namespaces/inkscape"
   width="30"
   height="30"
   id="svg2985"
   version="1.1"
   inkscape:version="0.92.3 (2405546, 2018-03-11)"
   sodipodi:docname="Bonsai.Design.ElementCategory.Property.svg">
  <defs
     id="defs2987" />
  <sodipodi:namedview
     id="base"
     pagecolor="#ffffff"
     bordercolor="#666666"
     borderopacity="1.0"
     inkscape:pageopacity="0.0"
     inkscape:pageshadow="2"
     inkscape:zoom="32"
     inkscape:cx="0.70263561"
     inkscape:cy="24.084126"
     inkscape:document-units="mm"
     inkscape:current-layer="layer1"
     showgrid="false"
     inkscape:window-width="3000"
     inkscape:window-height="1875"
     inkscape:window-x="-13"
     inkscape:window-y="-13"
     inkscape:window-maximized="1"
     units="px"
     showguides="true"
     inkscape:guide-bbox="true"
     inkscape:snap-bbox="true"
     inkscape:snap-bbox-midpoints="true"
     inkscape:snap-bbox-edge-midpoints="true"
     inkscape:bbox-nodes="true"
     inkscape:bbox-paths="true"
     inkscape:snap-object-midpoints="true"
     inkscape:snap-center="true">
    <sodipodi:guide
       orientation="0,1"
       position="-17.285156,15.039062"
       id="guide4444" />
    <sodipodi:guide
       orientation="1,0"
       position="14.941406,41.796875"
       id="guide4446" />
  </sodipodi:namedview>
  <metadata
     id="metadata2990">
    <rdf:RDF>
      <cc:Work
         rdf:about="">
        <dc:format>image/svg+xml</dc:format>
        <dc:type
           rdf:resource="http://purl.org/dc/dcmitype/StillImage" />
        <dc:title />
      </cc:Work>
    </rdf:RDF>
  </metadata>
  <g
     inkscape:label="Layer 1"
     inkscape:groupmode="layer"
     id="layer1"
     transform="translate(0,-1022.3622)">
    <g
       id="g3056"
       transform="translate(-223.8937,803.33233)" />
    <g
       id="g3058"
       transform="translate(-223.8937,803.33233)" />
    <g
       id="g3060"
       transform="translate(-223.8937,803.33233)" />
    <g
       id="g3062"
       transform="translate(-223.8937,803.33233)" />
    <g
       id="g3064"
       transform="translate(-223.8937,803.33233)" />
    <g
       id="g3066"
       transform="translate(-223.8937,803.33233)" />
    <g
       id="g3068"
       transform="translate(-223.8937,803.33233)" />
    <g
       id="g3070"
       transform="translate(-223.8937,803.33233)" />
    <g
       id="g3072"
       transform="translate(-223.8937,803.33233)" />
    <g
       id="g3074"
       transform="translate(-223.8937,803.33233)" />
    <g
       id="g3076"
       transform="translate(-223.8937,803.33233)" />
    <g
       id="g3078"
       transform="translate(-223.8937,803.33233)" />
    <g
       id="g3080"
       transform="translate(-223.8937,803.33233)" />
    <g
       id="g3082"
       transform="translate(-223.8937,803.33233)" />
    <g
       id="g3084"
       transform="translate(-223.8937,803.33233)" />
    <path
       style="fill:#808080;fill-opacity:1;stroke:none;stroke-width:0.09846154;stroke-miterlimit:4;stroke-dasharray:none"
       d="M 15,1023.3625 C 15.374481,1023.3625 15.740633,1023.3625 16.107692,1023.393 L 17.092308,1026.1007 C 17.699473,1026.2128 18.276544,1026.3589 18.846154,1026.5624 L 21,1024.747 C 21.66366,1025.0642 22.306885,1025.4409 22.907692,1025.8547 L 22.476923,1028.5932 C 22.937659,1028.9864 23.375871,1029.4248 23.769231,1029.8855 L 26.507692,1029.4239 C 26.920978,1030.0243 27.298466,1030.6992 27.615385,1031.3623 L 25.769231,1033.5162 C 25.972766,1034.0858 26.149585,1034.6629 26.261538,1035.2699 L 28.969231,1036.2546 C 28.998119,1036.6215 29,1036.988 29,1037.3623 29,1037.7285 28.996849,1038.0802 28.969231,1038.4393 L 26.261538,1039.4239 C 26.151528,1040.0207 25.998511,1040.6173 25.8,1041.1776 L 27.615385,1043.3623 C 27.297466,1044.0289 26.922902,1044.6669 26.507692,1045.27 L 23.769231,1044.8085 C 23.375871,1045.2692 22.937659,1045.7073 22.476923,1046.1007 L 22.907692,1048.87 C 22.306544,1049.2842 21.664085,1049.6603 21,1049.9776 L 18.815385,1048.1315 C 18.253975,1048.3306 17.690059,1048.5135 17.092308,1048.6239 L 16.107692,1051.3008 C 15.740633,1051.3294 15.374481,1051.3619 15,1051.3619 14.62552,1051.3619 14.228598,1051.3304 13.861538,1051.3008 L 12.938462,1048.6239 C 12.348503,1048.5151 11.739224,1048.3267 11.184615,1048.1315 L 9,1049.9776 C 8.3325569,1049.6593 7.6962522,1049.2859 7.0923077,1048.87 L 7.5230769,1046.0701 C 7.0723744,1045.6829 6.6473484,1045.2604 6.2615385,1044.8085 L 3.4923077,1045.27 C 3.0770976,1044.6669 2.7025335,1044.0289 2.3846154,1043.3623 L 4.2307692,1041.1776 C 4.0354153,1040.623 3.8472416,1040.014 3.7384615,1039.4239 L 1.0615385,1038.47 C 1.032654,1038.1031 1,1037.7369 1,1037.3623 1,1036.988 1.0326551,1036.6215 1.0615385,1036.2546 L 3.7384615,1035.2699 C 3.8486786,1034.6722 4.0317266,1034.1084 4.2307692,1033.547 L 2.3846154,1031.3623 C 2.7015321,1030.6992 3.0790222,1030.0243 3.4923077,1029.4239 L 6.2615385,1029.8855 C 6.6473484,1029.4335 7.0723744,1029.0111 7.5230769,1028.6239 L 7.0923077,1025.8547 C 7.6959104,1025.439 8.3329829,1025.0652 9,1024.747 L 11.184615,1026.5624 C 11.745048,1026.3639 12.34183,1026.2109 12.938462,1026.1007 L 13.923077,1023.393 C 14.28217,1023.3654 14.633823,1023.3625 15,1023.3625 Z"
       id="path3002"
       inkscape:connector-curvature="0" />
  </g>
</svg>
