<?xml version="1.0" encoding="UTF-8" standalone="no"?>
<!-- Created with Inkscape (http://www.inkscape.org/) -->

<svg
   xmlns:dc="http://purl.org/dc/elements/1.1/"
   xmlns:cc="http://creativecommons.org/ns#"
   xmlns:rdf="http://www.w3.org/1999/02/22-rdf-syntax-ns#"
   xmlns:svg="http://www.w3.org/2000/svg"
   xmlns="http://www.w3.org/2000/svg"
   xmlns:sodipodi="http://sodipodi.sourceforge.net/DTD/sodipodi-0.dtd"
   xmlns:inkscape="http://www.inkscape.org/namespaces/inkscape"
   width="30"
   height="30"
   id="svg2985"
   version="1.1"
   inkscape:version="0.92.3 (2405546, 2018-03-11)"
   sodipodi:docname="Bonsai.Expressions.IncludeWorkflowBuilder.svg">
  <defs
     id="defs2987" />
  <sodipodi:namedview
     id="base"
     pagecolor="#ffffff"
     bordercolor="#666666"
     borderopacity="1.0"
     inkscape:pageopacity="0.0"
     inkscape:pageshadow="2"
     inkscape:zoom="40.96"
     inkscape:cx="5.5678427"
     inkscape:cy="12.0106"
     inkscape:document-units="mm"
     inkscape:current-layer="layer1"
     showgrid="false"
     inkscape:window-width="3000"
     inkscape:window-height="1875"
     inkscape:window-x="-13"
     inkscape:window-y="-13"
     inkscape:window-maximized="1"
     units="px"
     showguides="true"
     inkscape:guide-bbox="true">
    <sodipodi:guide
       orientation="0,1"
       position="-17.285156,15.039062"
       id="guide4444"
       inkscape:locked="false" />
    <sodipodi:guide
       orientation="1,0"
       position="14.941406,41.796875"
       id="guide4446"
       inkscape:locked="false" />
  </sodipodi:namedview>
  <metadata
     id="metadata2990">
    <rdf:RDF>
      <cc:Work
         rdf:about="">
        <dc:format>image/svg+xml</dc:format>
        <dc:type
           rdf:resource="http://purl.org/dc/dcmitype/StillImage" />
        <dc:title />
      </cc:Work>
    </rdf:RDF>
  </metadata>
  <g
     inkscape:label="Layer 1"
     inkscape:groupmode="layer"
     id="layer1"
     transform="translate(0,-1022.3622)">
    <path
       style="fill:none"
       d="m 7.991814,1045.1155 14.582778,0 0,-11.2642 -1.54471,-1.4442 -1.10227,-1.0307 -0.911265,-0.8519 -1.480518,-1.3843 -9.544015,0 z"
       id="rect3061"
       inkscape:connector-curvature="0"
       sodipodi:nodetypes="ccccccccc" />
    <path
       style="fill:none"
       d="m 17.626953,1029.2665 -0.04883,4.3945 4.833984,10e-5"
       id="path3846"
       inkscape:connector-curvature="0"
       sodipodi:nodetypes="ccc" />
    <g
       id="layer1-4"
       inkscape:label="Layer 1"
       transform="matrix(0.46078305,0,0,0.46078305,8.1764167,559.42772)">
      <path
         id="path1698"
         transform="translate(0,1022.3622)"
         d="m 12.759766,4.3007812 c -1.451128,0 -2.660359,1.0334969 -2.9335941,2.4042969 -0.222947,-0.1233 -0.4808064,-0.1896875 -0.7558594,-0.1796875 -0.743053,0.027 -1.3579375,0.6286938 -1.3984375,1.3710938 -0.04575,0.84 0.6211939,1.5351562 1.4511719,1.5351562 0.449363,0 0.8523847,-0.2050906 1.1191411,-0.5253906 0.332689,0.5179 0.820778,0.9266562 1.398437,1.160156 -8.72e-4,0.02 -9.91e-4,0.03859 -0.002,0.05859 -0.405234,-0.2554 -0.886126,-0.4042969 -1.400391,-0.4042969 -1.4517656,0 -2.628906,1.1772059 -2.628906,2.6289059 0,0.026 9.901e-4,0.05408 0.00195,0.08008 -0.2535,-0.069 -0.5251687,-0.09173 -0.8085937,-0.05274 -0.951478,0.1304 -1.6862409,0.933278 -1.7324219,1.892578 -0.02081,0.4326 0.095517,0.837028 0.3085937,1.173828 -0.32265,0.2105 -0.5291528,0.58516 -0.4980468,1.00586 0.04031,0.5466 0.4936746,0.989378 1.0410156,1.017578 0.629765,0.032 1.1495971,-0.465438 1.1582031,-1.085938 0.266925,0 0.5228054,-0.05218 0.7558594,-0.146484 0.534553,-0.1447 1.7801316,-0.402747 2.9453126,-0.06055 1.001606,0.2941 1.774859,1.305519 1.789062,1.324219 0.426554,0.8925 1.777344,1.680562 1.777344,2.476562 0,1.0301 -1.268128,1.637719 -3.5625,2.574219 l 8.173828,-0.07031 c 0,0 -1.358441,-0.585044 -2.257812,-3.089844 -0.677053,-1.8857 -2.333685,-2.083672 -2.339844,-2.763672 -0.0096,-1.06 1.772476,-1.084372 1.804688,-2.388672 0.0047,-0.1728 -0.01487,-0.326944 -0.05078,-0.464844 0.570712,-0.049 1.092609,-0.266262 1.517578,-0.601562 0.0047,0.01 0.01065,0.02125 0.01563,0.03125 -0.339245,0.2573 -0.540557,0.686756 -0.464844,1.160156 0.08278,0.5177 0.505836,0.927847 1.02539,0.998047 0.513159,0.069 0.972613,-0.182884 1.208985,-0.583984 0.344681,0.1259 0.717288,0.195312 1.105469,0.195312 1.567819,0 2.872475,-1.121869 3.160156,-2.605469 0.721022,-0.1143 1.262912,-0.769509 1.193359,-1.537109 -0.06038,-0.6662 -0.594628,-1.20915 -1.259765,-1.28125 -0.236915,-0.025 -0.462016,0.00994 -0.666016,0.085937 -0.590372,-0.6765 -1.459363,-1.1054687 -2.427734,-1.1054687 -0.867075,0 -1.653422,0.3431906 -2.232422,0.9003906 -0.376744,-0.6052 -0.974135,-1.0583469 -1.679688,-1.2480469 0.40831,-0.2061 0.689672,-0.6270344 0.691406,-1.1152344 0.0019,-0.661 -0.489702,-1.2010593 -1.148437,-1.2558593 -0.260531,-0.022 -0.505875,0.036544 -0.714844,0.1523437 -0.489797,-0.9845 -1.505421,-1.6601563 -2.679687,-1.6601563 z m 1.933593,9.4707028 c 0.02222,0.09 0.03516,0.18411 0.03516,0.28711 0,0.5418 -1.400078,1.039918 -2.007813,2.011718 -0.385659,-0.312799 -0.846631,-0.612659 -1.320312,-0.755859 -0.828234,-0.2504 -1.9056248,-0.158872 -2.5058598,-0.07617 0.08025,-0.1675 0.1385059,-0.347909 0.1699219,-0.537109 0.353765,0.1772 0.7531754,0.277344 1.1757809,0.277344 0.852787,0 1.60961,-0.405657 2.089844,-1.035157 0.307341,0.2006 0.673934,0.31836 1.06836,0.31836 0.496574,0 0.949687,-0.185635 1.294921,-0.490235 z"
         style="stroke-width:0.07894736"
         inkscape:connector-curvature="0" />
      <path
         inkscape:connector-curvature="0"
         id="path1724"
         style="stroke-width:0.07894737"
         d="m 6.0067105,1046.0174 c 2.2553685,2.3244 5.4116845,3.7694 8.9062895,3.7694 v 0 c 3.494527,0 6.650921,-1.445 8.906369,-3.7694 v 0 z" />
    </g>
  </g>
</svg>
