<?xml version="1.0" encoding="UTF-8" standalone="no"?>
<!-- Created with Inkscape (http://www.inkscape.org/) -->

<svg
   xmlns:dc="http://purl.org/dc/elements/1.1/"
   xmlns:cc="http://creativecommons.org/ns#"
   xmlns:rdf="http://www.w3.org/1999/02/22-rdf-syntax-ns#"
   xmlns:svg="http://www.w3.org/2000/svg"
   xmlns="http://www.w3.org/2000/svg"
   xmlns:sodipodi="http://sodipodi.sourceforge.net/DTD/sodipodi-0.dtd"
   xmlns:inkscape="http://www.inkscape.org/namespaces/inkscape"
   width="30"
   height="30"
   id="svg2985"
   version="1.1"
   inkscape:version="0.48.4 r9939"
   sodipodi:docname="Bonsai.Design.ElementCategory.Workflow.svg">
  <defs
     id="defs2987" />
  <sodipodi:namedview
     id="base"
     pagecolor="#ffffff"
     bordercolor="#666666"
     borderopacity="1.0"
     inkscape:pageopacity="0.0"
     inkscape:pageshadow="2"
     inkscape:zoom="8"
     inkscape:cx="33.962719"
     inkscape:cy="10.877531"
     inkscape:document-units="mm"
     inkscape:current-layer="layer1"
     showgrid="false"
     inkscape:window-width="2048"
     inkscape:window-height="1017"
     inkscape:window-x="-8"
     inkscape:window-y="-8"
     inkscape:window-maximized="1"
     units="px"
     showguides="true"
     inkscape:guide-bbox="true">
    <sodipodi:guide
       orientation="0,1"
       position="-17.285156,15.039062"
       id="guide4444" />
    <sodipodi:guide
       orientation="1,0"
       position="14.941406,41.796875"
       id="guide4446" />
  </sodipodi:namedview>
  <metadata
     id="metadata2990">
    <rdf:RDF>
      <cc:Work
         rdf:about="">
        <dc:format>image/svg+xml</dc:format>
        <dc:type
           rdf:resource="http://purl.org/dc/dcmitype/StillImage" />
        <dc:title />
      </cc:Work>
    </rdf:RDF>
  </metadata>
  <g
     inkscape:label="Layer 1"
     inkscape:groupmode="layer"
     id="layer1"
     transform="translate(0,-1022.3622)">
    <path
       inkscape:connector-curvature="0"
       style="fill:none;stroke:#a9a9a9;stroke-width:2;stroke-miterlimit:4;stroke-opacity:1;stroke-dasharray:none"
       d="M 10.507446,1022.8184 C 11.511683,1022.5081 12.523577,1022.3075 13.530247,1022.2081 14.537105,1022.1094 15.538673,1022.1129 16.522559,1022.2081 17.506482,1022.3073 18.472479,1022.5021 19.407952,1022.7858"
       id="path3901" />
    <path
       inkscape:connector-curvature="0"
       style="fill:none;stroke:#a9a9a9;stroke-width:2;stroke-miterlimit:4;stroke-opacity:1;stroke-dasharray:none"
       d="M 22.109522,1023.8969 C 22.97091,1024.3516 23.789015,1024.8886 24.550923,1025.5008 25.312868,1026.1132 26.018614,1026.801 26.655525,1027.5573 27.292353,1028.3138 27.860466,1029.1388 28.346782,1030.026"
       id="path3899" />
    <path
       inkscape:connector-curvature="0"
       style="fill:none;stroke:#a9a9a9;stroke-width:2;stroke-miterlimit:4;stroke-opacity:1;stroke-dasharray:none"
       d="M 29.548074,1032.8662 C 29.858362,1033.8704 30.059013,1034.8824 30.158362,1035.8891 30.257231,1036.8959 30.253557,1037.8977 30.154416,1038.8814 30.055212,1039.8653 29.860443,1040.8313 29.576721,1041.7667"
       id="path3897" />
    <path
       inkscape:connector-curvature="0"
       style="fill:none;stroke:#a9a9a9;stroke-width:2;stroke-miterlimit:4;stroke-opacity:1;stroke-dasharray:none"
       d="M 28.465628,1044.4683 C 28.010896,1045.3296 27.473982,1046.1478 26.861587,1046.9097 26.249313,1047.6716 25.561435,1048.3774 24.805089,1049.0143 24.048742,1049.6512 23.22365,1050.2192 22.336545,1050.7055"
       id="path3895" />
    <path
       inkscape:connector-curvature="0"
       style="fill:none;stroke:#a9a9a9;stroke-width:2;stroke-miterlimit:4;stroke-opacity:1;stroke-dasharray:none"
       d="M 19.496361,1051.9068 C 18.492123,1052.2171 17.48011,1052.4178 16.473439,1052.5171 15.46662,1052.6159 14.46505,1052.6124 13.481128,1052.5093 12.497243,1052.4103 11.531328,1052.2154 10.595855,1051.9317"
       id="path3893" />
    <path
       inkscape:connector-curvature="0"
       style="fill:none;stroke:#a9a9a9;stroke-width:2;stroke-miterlimit:4;stroke-opacity:1;stroke-dasharray:none"
       d="M 7.8942861,1050.8205 C 7.032898,1050.3659 6.2147932,1049.8289 5.4528858,1049.2166 4.6909412,1048.6043 3.9852316,1047.9166 3.3482832,1047.1602 2.7114927,1046.4038 2.1434996,1045.5787 1.6570636,1044.6916"
       id="path3891" />
    <path
       inkscape:connector-curvature="0"
       style="fill:none;stroke:#a9a9a9;stroke-width:2;stroke-miterlimit:4;stroke-opacity:1;stroke-dasharray:none"
       d="M 0.45573503,1041.8513 C 0.14548353,1040.8472 -0.05520487,1039.8351 -0.15451647,1038.8285 -0.25326467,1037.8217 -0.24971047,1036.82 -0.15064737,1035.836 -0.05140697,1034.8523 0.14336323,1033.8863 0.42708503,1032.9509"
       id="path3889" />
    <path
       inkscape:connector-curvature="0"
       style="fill:none;stroke:#a9a9a9;stroke-width:2;stroke-miterlimit:4;stroke-opacity:1;stroke-dasharray:none"
       d="M 1.5381627,1030.2493 C 1.9928961,1029.3878 2.5298466,1028.5698 3.1421208,1027.808 3.7545158,1027.046 4.4421156,1026.3402 5.1985816,1025.7033 5.9549284,1025.0663 6.7800215,1024.4983 7.667126,1024.012"
       id="circle6558-1" />
  </g>
</svg>
