<?xml version="1.0" encoding="UTF-8" standalone="no"?>
<!-- Created with Inkscape (http://www.inkscape.org/) -->

<svg
   xmlns:dc="http://purl.org/dc/elements/1.1/"
   xmlns:cc="http://creativecommons.org/ns#"
   xmlns:rdf="http://www.w3.org/1999/02/22-rdf-syntax-ns#"
   xmlns:svg="http://www.w3.org/2000/svg"
   xmlns="http://www.w3.org/2000/svg"
   xmlns:sodipodi="http://sodipodi.sourceforge.net/DTD/sodipodi-0.dtd"
   xmlns:inkscape="http://www.inkscape.org/namespaces/inkscape"
   width="30"
   height="30"
   id="svg2985"
   version="1.1"
   inkscape:version="0.48.4 r9939"
   sodipodi:docname="Bonsai.Expressions.BehaviorSubject.svg">
  <defs
     id="defs2987" />
  <sodipodi:namedview
     id="base"
     pagecolor="#ffffff"
     bordercolor="#666666"
     borderopacity="1.0"
     inkscape:pageopacity="0.0"
     inkscape:pageshadow="2"
     inkscape:zoom="14.481547"
     inkscape:cx="-3.5078884"
     inkscape:cy="23.220025"
     inkscape:document-units="mm"
     inkscape:current-layer="layer1"
     showgrid="false"
     inkscape:window-width="2048"
     inkscape:window-height="1017"
     inkscape:window-x="-8"
     inkscape:window-y="-8"
     inkscape:window-maximized="1"
     units="px" />
  <metadata
     id="metadata2990">
    <rdf:RDF>
      <cc:Work
         rdf:about="">
        <dc:format>image/svg+xml</dc:format>
        <dc:type
           rdf:resource="http://purl.org/dc/dcmitype/StillImage" />
        <dc:title />
      </cc:Work>
    </rdf:RDF>
  </metadata>
  <g
     inkscape:label="Layer 1"
     inkscape:groupmode="layer"
     id="layer1"
     transform="translate(0,-1022.3622)">
    <g
       id="g9669"
       transform="matrix(0.09447108,0,0,0.09447108,2.7574049,1025.8677)"
       style="fill:#ed0090;fill-opacity:1" />
    <path
       inkscape:connector-curvature="0"
       id="path3022"
       style="font-size:18.62138557px;font-style:normal;font-variant:normal;font-weight:normal;font-stretch:normal;line-height:125%;letter-spacing:0px;word-spacing:0px;fill:#999999;fill-opacity:1;stroke:none;font-family:Lucida Calligraphy;-inkscape-font-specification:Lucida Calligraphy"
       d="m 10.638302,1043.6441 0.352904,-0.8418 c 0.264267,0.15 2.097708,0.2867 2.303509,0.022 l 3.14621,-4.0542 0.642819,-0.7823 -1.45706,-3.4284 c -0.364272,-0.8642 -0.721395,-1.2961 -1.07137,-1.2961 -0.428552,0 -1.078516,0.582 -1.94989,1.7461 l 0.278556,-1.4035 c 1.042794,-1.3712 1.935602,-2.057 2.678421,-2.057 0.692812,0 1.342774,0.6931 1.949892,2.0785 l 1.119652,2.5522 0.696389,-0.8892 3.097712,-3.9856 c 0.219154,-0.2819 2.779429,0.056 3.157995,0.2925 l -0.465097,0.7109 c -0.292856,-0.1786 -2.129216,-0.1161 -2.298451,0.097 l -3.283313,4.1154 -0.514259,0.6212 1.607054,3.7392 c 0.371396,0.8928 0.742804,1.3392 1.114224,1.3392 0.5071,0 1.214203,-0.5322 2.121309,-1.5963 l -0.257127,1.2857 c -1.09281,1.1998 -2.060612,1.7998 -2.90341,1.7998 -0.807109,0 -1.460644,-0.5893 -1.960604,-1.7676 l -1.15831,-3.1362 -0.867809,1.1035 -2.910148,3.9426 c -0.173937,0.2357 -2.705537,-0.028 -3.169798,-0.207 z"
       sodipodi:nodetypes="ccscccsccscccsccscccsccscccscc" />
    <path
       inkscape:connector-curvature="0"
       id="path3009"
       style="font-size:22.12883759px;font-style:normal;font-weight:normal;line-height:125%;letter-spacing:0px;word-spacing:0px;fill:#999999;fill-opacity:1;stroke:none;font-family:Sans"
       d="m 3.5726953,1035.02 0.5306732,-1.6734 c 1.2228538,0.4401 2.1111535,0.8211 2.664903,1.1432 -0.146132,-1.4222 -0.2230402,-2.4002 -0.2307272,-2.9346 l 1.6727739,0 c -0.023076,0.7779 -0.1115289,1.7521 -0.2653366,2.9229 0.7921575,-0.4086 1.6996849,-0.7858 2.7225834,-1.1315 l 0.530674,1.6734 c -0.976754,0.3302 -1.9342727,0.5502 -2.8725571,0.6601 0.469139,0.4165 1.1305575,1.1589 1.9842551,2.2276 l -1.3843645,1.0017 c -0.4460779,-0.6207 -0.9729051,-1.4653 -1.5804828,-2.534 -0.5691311,1.1079 -1.0690411,1.9526 -1.4997285,2.534 l -1.3612924,-1.0017 c 0.8921445,-1.1235 1.5304893,-1.8661 1.9150381,-2.2276 -0.9921303,-0.1964 -1.9342671,-0.4164 -2.8264116,-0.6601 z" />
  </g>
</svg>
