<?xml version="1.0" encoding="UTF-8" standalone="no"?>
<!-- Created with Inkscape (http://www.inkscape.org/) -->

<svg
   xmlns:dc="http://purl.org/dc/elements/1.1/"
   xmlns:cc="http://creativecommons.org/ns#"
   xmlns:rdf="http://www.w3.org/1999/02/22-rdf-syntax-ns#"
   xmlns:svg="http://www.w3.org/2000/svg"
   xmlns="http://www.w3.org/2000/svg"
   xmlns:sodipodi="http://sodipodi.sourceforge.net/DTD/sodipodi-0.dtd"
   xmlns:inkscape="http://www.inkscape.org/namespaces/inkscape"
   width="30"
   height="30"
   id="svg2985"
   version="1.1"
   inkscape:version="0.92.3 (2405546, 2018-03-11)"
   sodipodi:docname="Bonsai.Expressions.IncludeWorkflowBuilder.svg">
  <defs
     id="defs2987" />
  <sodipodi:namedview
     id="base"
     pagecolor="#ffffff"
     bordercolor="#666666"
     borderopacity="1.0"
     inkscape:pageopacity="0.0"
     inkscape:pageshadow="2"
     inkscape:zoom="40.96"
     inkscape:cx="15.089327"
     inkscape:cy="12.0106"
     inkscape:document-units="mm"
     inkscape:current-layer="layer2"
     showgrid="false"
     inkscape:window-width="3000"
     inkscape:window-height="1875"
     inkscape:window-x="-13"
     inkscape:window-y="-13"
     inkscape:window-maximized="1"
     units="px"
     showguides="true"
     inkscape:guide-bbox="true">
    <sodipodi:guide
       orientation="0,1"
       position="-17.285156,15.039062"
       id="guide4444"
       inkscape:locked="false" />
    <sodipodi:guide
       orientation="1,0"
       position="14.941406,41.796875"
       id="guide4446"
       inkscape:locked="false" />
  </sodipodi:namedview>
  <metadata
     id="metadata2990">
    <rdf:RDF>
      <cc:Work
         rdf:about="">
        <dc:format>image/svg+xml</dc:format>
        <dc:type
           rdf:resource="http://purl.org/dc/dcmitype/StillImage" />
        <dc:title />
      </cc:Work>
    </rdf:RDF>
  </metadata>
  <g
     inkscape:groupmode="layer"
     id="layer2"
     inkscape:label="Layer 1">
    <path
       style="color:#000000"
       d="M 7.4921875 6.2773438 L 7.4921875 23.253906 L 7.9921875 23.253906 L 23.074219 23.253906 L 23.074219 11.271484 L 21.371094 9.6796875 L 20.269531 8.6484375 L 19.357422 7.796875 L 17.732422 6.2773438 L 7.4921875 6.2773438 z M 8.4921875 7.2773438 L 17.123047 7.2773438 L 17.072266 11.798828 L 22.074219 11.798828 L 22.074219 22.253906 L 8.4921875 22.253906 L 8.4921875 7.2773438 z M 18.115234 8.0039062 L 18.675781 8.5273438 L 19.585938 9.3789062 L 20.6875 10.410156 L 21.103516 10.798828 L 18.083984 10.798828 L 18.115234 8.0039062 z "
       id="rect3061" />
    <path
       inkscape:connector-curvature="0"
       style="stroke-width:0.03637761"
       d="M 14.055901,10.1344 C 13.387245,10.1344 12.830052,10.6106 12.70415,11.2423 12.60142,11.1855 12.482603,11.1549 12.355863,11.1595 12.013477,11.1719 11.730148,11.4492 11.711487,11.7913 11.690406,12.1783 11.997722,12.4986 12.380162,12.4986 12.587221,12.4986 12.772926,12.4041 12.895843,12.2565 13.049141,12.4952 13.274044,12.6835 13.540219,12.7911 13.539818,12.8003 13.539763,12.8089 13.539298,12.8181 13.352573,12.7004 13.130986,12.6318 12.894021,12.6318 12.225072,12.6318 11.682666,13.1743 11.682666,13.8432 11.682666,13.8552 11.683122,13.8681 11.683565,13.8801 11.566756,13.8483 11.441576,13.8378 11.310978,13.8558 10.872553,13.9159 10.533987,14.2858 10.512708,14.7279 10.503119,14.9272 10.55672,15.1135 10.654902,15.2687 10.506231,15.3657 10.411078,15.5384 10.425411,15.7322 10.443985,15.9841 10.652888,16.1881 10.905093,16.2011 11.195278,16.2158 11.434808,15.9866 11.438774,15.7007 11.561768,15.7007 11.679673,15.6767 11.787061,15.6332 12.033374,15.5665 12.607315,15.4476 13.144211,15.6053 13.605734,15.7408 13.962036,16.2069 13.96858,16.2155 14.165129,16.6267 14.78755,16.9899 14.78755,17.3567 14.78755,17.8313 14.203218,18.1113 13.146011,18.5428 L 16.912372,18.5104 C 16.912372,18.5104 16.286426,18.2408 15.872011,17.0867 15.560036,16.2178 14.796688,16.1265 14.79385,15.8132 14.789427,15.3248 15.610577,15.3136 15.62542,14.7126 15.627586,14.6329 15.618568,14.5619 15.602021,14.4984 15.864996,14.4758 16.105477,14.3757 16.301295,14.2212 16.303461,14.2258 16.306203,14.231 16.308498,14.2356 16.152179,14.3541 16.059418,14.552 16.094305,14.7702 16.132449,15.0087 16.327386,15.1977 16.566788,15.23 16.803243,15.2618 17.014951,15.1458 17.123867,14.9609 17.282691,15.019 17.454382,15.0509 17.633249,15.0509 18.355673,15.0509 18.956837,14.534 19.089395,13.8504 19.42163,13.7977 19.671324,13.4958 19.639275,13.1421 19.611453,12.8351 19.36528,12.585 19.058796,12.5517 18.94963,12.5402 18.845907,12.5563 18.751907,12.5913 18.479874,12.2796 18.079458,12.082 17.633249,12.082 17.233715,12.082 16.87138,12.2401 16.604587,12.4968 16.430989,12.218 16.155722,12.0092 15.830615,11.9218 16.018757,11.8268 16.148404,11.6328 16.149203,11.4079 16.150078,11.1033 15.923557,10.8544 15.620023,10.8292 15.499974,10.8191 15.386924,10.846 15.290635,10.8994 15.064945,10.4458 14.596962,10.1344 14.05588,10.1344 Z M 14.946867,14.4984 C 14.957106,14.5398 14.963069,14.5832 14.963069,14.6307 14.963069,14.8803 14.317936,15.1098 14.037902,15.5576 13.860197,15.4135 13.647789,15.2753 13.429525,15.2093 13.047889,15.094 12.551445,15.1361 12.274867,15.1742 12.311845,15.0971 12.338688,15.0139 12.353164,14.9268 12.516173,15.0084 12.700215,15.0545 12.894944,15.0545 13.287894,15.0545 13.636625,14.8676 13.857909,14.5776 13.999527,14.67 14.168446,14.7243 14.350191,14.7243 14.579004,14.7243 14.787791,14.6387 14.946869,14.4984 Z"
       id="path1698" />
    <path
       d="M 10.944207,19.0526 C 11.983443,20.1237 13.43782,20.7895 15.048074,20.7895 V 20.7895 C 16.658293,20.7895 18.112706,20.1237 19.151978,19.0526 V 19.0526 Z"
       style="stroke-width:0.03637761"
       id="path1724"
       inkscape:connector-curvature="0" />
  </g>
</svg>
