<?xml version="1.0" encoding="UTF-8" standalone="no"?>
<!-- Created with Inkscape (http://www.inkscape.org/) -->

<svg
   xmlns:dc="http://purl.org/dc/elements/1.1/"
   xmlns:cc="http://creativecommons.org/ns#"
   xmlns:rdf="http://www.w3.org/1999/02/22-rdf-syntax-ns#"
   xmlns:svg="http://www.w3.org/2000/svg"
   xmlns="http://www.w3.org/2000/svg"
   xmlns:sodipodi="http://sodipodi.sourceforge.net/DTD/sodipodi-0.dtd"
   xmlns:inkscape="http://www.inkscape.org/namespaces/inkscape"
   width="30"
   height="30"
   id="svg2985"
   version="1.1"
   inkscape:version="0.48.4 r9939"
   sodipodi:docname="Bonsai.Reactive.svg">
  <defs
     id="defs2987" />
  <sodipodi:namedview
     id="base"
     pagecolor="#ffffff"
     bordercolor="#666666"
     borderopacity="1.0"
     inkscape:pageopacity="0.0"
     inkscape:pageshadow="2"
     inkscape:zoom="20.48"
     inkscape:cx="27.961922"
     inkscape:cy="15.258016"
     inkscape:document-units="mm"
     inkscape:current-layer="layer1"
     showgrid="false"
     inkscape:window-width="2048"
     inkscape:window-height="1017"
     inkscape:window-x="-8"
     inkscape:window-y="-8"
     inkscape:window-maximized="1"
     units="px"
     showguides="true"
     inkscape:guide-bbox="true"
     inkscape:snap-object-midpoints="true"
     inkscape:snap-bbox="true"
     inkscape:bbox-nodes="true"
     inkscape:bbox-paths="true"
     inkscape:snap-bbox-edge-midpoints="true"
     inkscape:snap-bbox-midpoints="true"
     inkscape:object-paths="true"
     inkscape:snap-intersection-paths="true"
     inkscape:snap-midpoints="true"
     inkscape:snap-center="true">
    <sodipodi:guide
       orientation="0,1"
       position="-15.625,14.892578"
       id="guide2986" />
    <sodipodi:guide
       orientation="1,0"
       position="14.941406,32.421875"
       id="guide2988" />
  </sodipodi:namedview>
  <metadata
     id="metadata2990">
    <rdf:RDF>
      <cc:Work
         rdf:about="">
        <dc:format>image/svg+xml</dc:format>
        <dc:type
           rdf:resource="http://purl.org/dc/dcmitype/StillImage" />
        <dc:title />
      </cc:Work>
    </rdf:RDF>
  </metadata>
  <g
     inkscape:label="Layer 1"
     inkscape:groupmode="layer"
     id="layer1"
     transform="translate(0,-1022.3622)">
    <g
       id="g9669"
       transform="matrix(0.07952201,0,0,0.07952201,4.7653017,1027.6648)"
       style="fill:#999999;fill-opacity:1">
      <path
         id="path9671"
         d="M 16.685,157.125 C 3.567,87.38 38.236,20.115 117.81,11.166 106.836,-0.559 91.845,-0.647 84.949,0.78 72.77,4.66 73.152,12.541 59.338,22.72 c -13.733,7.843 -20.63,1.837 -30.633,9.968 -9.983,8.07 -3.017,26.597 -7.204,30.2 -4.156,7.203 -17.047,13.62 -19.394,22.718 -1.94,11.636 5.264,19.948 4.987,29.922 0.832,8.311 -8.274,13.011 -6.966,19.748 3.919,11.005 11.472,17.629 15.033,20.682 0.816,0.576 1.678,1.993 1.523,1.167 z"
         inkscape:connector-curvature="0"
         style="fill:#999999;fill-opacity:1" />
      <path
         id="path9673"
         d="m 158.27404,67.340264 c -6.29694,-5.98e-4 -12.02572,-5.730469 -12.02512,-12.027406 6e-4,-6.296937 5.73046,-12.02572 12.0274,-12.025122 6.29694,0 12.02626,5.729327 12.02626,12.026264 0,6.296937 -5.72932,12.026264 -12.02626,12.026264 z M 19.757,164.733 C 7.15,104.117 46.16,53.468 121.704,78.403 c 44.327,25.932 100.09,24.243 102.603,7.48 C 230.514,65.788 196.047,24.377 144.515,13.572 42.281,-6.377 -12.834,104.117 19.757,164.732 z"
         inkscape:connector-curvature="0"
         style="fill:#999999;fill-opacity:1"
         sodipodi:nodetypes="cscssccccccc" />
      <path
         id="path9675"
         d="m 187.459,171.493 c 15.18,1.645 29.59,-1.998 42.943,-12.883 -20.174,22.503 -45.4,33.817 -74.343,36.895 13.82,11.749 27.147,17.041 39.896,14.776 -35.426,9.776 -65.107,-0.984 -101.213,-36.94 -1.89,9.679 8.333,24.76 18.87,34.386 C 52.474,181.222 47.114,98.654 121.665,78.344 44.385,41.214 0.686,113.358 22.155,172.486 c 21.007,45.54 76.985,80.6 138.337,72.89 29.8,-3.65 74.302,-24.197 92.482,-72.89 -12.813,11.498 -35.716,21.512 -45.936,22.28 34.59,-17.287 53.264,-46.662 48.022,-86.81 -7.165,17.058 -16.619,30.159 -28.444,39.156 25.12,-39.157 20.81,-59.396 2.217,-81.639 13.298,36.572 -3.905,77.161 -41.374,106.02 z"
         inkscape:connector-curvature="0"
         style="fill:#999999;fill-opacity:1" />
    </g>
  </g>
</svg>
