<?xml version="1.0" encoding="UTF-8" standalone="no"?>
<!-- Created with Inkscape (http://www.inkscape.org/) -->

<svg
   xmlns:dc="http://purl.org/dc/elements/1.1/"
   xmlns:cc="http://creativecommons.org/ns#"
   xmlns:rdf="http://www.w3.org/1999/02/22-rdf-syntax-ns#"
   xmlns:svg="http://www.w3.org/2000/svg"
   xmlns="http://www.w3.org/2000/svg"
   xmlns:sodipodi="http://sodipodi.sourceforge.net/DTD/sodipodi-0.dtd"
   xmlns:inkscape="http://www.inkscape.org/namespaces/inkscape"
   width="30"
   height="30"
   id="svg2985"
   version="1.1"
   inkscape:version="0.92.4 (5da689c313, 2019-01-14)"
   sodipodi:docname="Bonsai.Reactive.svg">
  <defs
     id="defs2987" />
  <sodipodi:namedview
     id="base"
     pagecolor="#ffffff"
     bordercolor="#666666"
     borderopacity="1.0"
     inkscape:pageopacity="0.0"
     inkscape:pageshadow="2"
     inkscape:zoom="28.963095"
     inkscape:cx="19.776786"
     inkscape:cy="11.972042"
     inkscape:document-units="mm"
     inkscape:current-layer="layer1"
     showgrid="false"
     inkscape:window-width="1819"
     inkscape:window-height="1057"
     inkscape:window-x="93"
     inkscape:window-y="-8"
     inkscape:window-maximized="1"
     units="px"
     showguides="true"
     inkscape:guide-bbox="true"
     inkscape:snap-object-midpoints="true"
     inkscape:snap-bbox="true"
     inkscape:bbox-nodes="true"
     inkscape:bbox-paths="true"
     inkscape:snap-bbox-edge-midpoints="true"
     inkscape:snap-bbox-midpoints="true"
     inkscape:object-paths="true"
     inkscape:snap-intersection-paths="true"
     inkscape:snap-midpoints="true"
     inkscape:snap-center="true">
    <sodipodi:guide
       orientation="0,1"
       position="-15.625,14.892578"
       id="guide2986"
       inkscape:locked="false" />
    <sodipodi:guide
       orientation="1,0"
       position="14.941406,32.421875"
       id="guide2988"
       inkscape:locked="false" />
  </sodipodi:namedview>
  <metadata
     id="metadata2990">
    <rdf:RDF>
      <cc:Work
         rdf:about="">
        <dc:format>image/svg+xml</dc:format>
        <dc:type
           rdf:resource="http://purl.org/dc/dcmitype/StillImage" />
        <dc:title />
      </cc:Work>
    </rdf:RDF>
  </metadata>
  <g
     inkscape:label="Layer 1"
     inkscape:groupmode="layer"
     id="layer1"
     transform="translate(0,-1022.3622)">
    <path
       style="fill-opacity:1;stroke:none;stroke-width:0.07379847"
       d="M 12.246094 6.0136719 L 12.246094 6.0195312 C 12.058157 6.0202314 11.894807 6.0404063 11.767578 6.0664062 C 10.868787 6.3527062 10.896405 6.9343469 9.8769531 7.6855469 C 8.8634787 8.2643469 8.3534405 7.8199219 7.6152344 8.4199219 C 6.8785043 9.0155219 7.3929786 10.382537 7.0839844 10.648438 C 6.777278 11.180037 5.8255486 11.654772 5.6523438 12.326172 C 5.5091747 13.184872 6.0419264 13.797103 6.0214844 14.533203 C 6.0828844 15.146503 5.4112845 15.494986 5.5078125 15.992188 C 5.7970287 16.804288 6.3543912 17.292278 6.6171875 17.517578 C 6.6633385 17.549578 6.7000158 17.598562 6.7148438 17.601562 C 6.7907008 17.792063 6.8585741 17.986516 6.9550781 18.166016 C 6.9495981 18.140016 6.9485684 18.113891 6.9433594 18.087891 C 6.9982204 18.305491 7.0550655 18.524081 7.1328125 18.738281 C 8.683097 22.099081 12.814113 24.686186 17.341797 24.117188 C 19.540992 23.847787 22.82436 22.331781 24.166016 18.738281 C 23.220436 19.586781 21.531564 20.324259 20.777344 20.380859 C 23.330033 19.105159 24.707167 16.937409 24.320312 13.974609 C 23.791546 15.233409 23.09337 16.201334 22.220703 16.865234 C 24.074521 13.975534 23.756901 12.481344 22.384766 10.839844 C 23.366138 13.538844 22.097186 16.534363 19.332031 18.664062 C 20.452292 18.785463 21.516522 18.516191 22.501953 17.712891 C 21.013143 19.373591 19.149621 20.208347 17.013672 20.435547 C 18.033566 21.302547 19.018128 21.694544 19.958984 21.527344 C 17.3446 22.248844 15.154801 21.454284 12.490234 18.800781 C 12.350755 19.515081 13.105199 20.627591 13.882812 21.337891 C 9.3733203 19.382891 8.976184 13.295869 14.46875 11.792969 C 14.47205 11.792969 14.475216 11.793869 14.478516 11.792969 C 17.749781 13.706769 21.865325 13.58085 22.050781 12.34375 C 22.508848 10.86085 19.965092 7.8052125 16.162109 7.0078125 C 15.46183 6.8711125 14.792267 6.8173375 14.154297 6.8359375 C 14.167077 6.8359375 14.178596 6.8361763 14.191406 6.8261719 C 13.584008 6.1772719 12.809905 6.0116719 12.246094 6.0136719 z M 17.177734 9.046875 C 17.723774 9.046875 18.222656 9.5438436 18.222656 10.089844 C 18.222656 10.635944 17.723774 11.132812 17.177734 11.132812 C 16.631695 11.132812 16.134713 10.635944 16.134766 10.089844 C 16.134817 9.5438435 16.631695 9.046775 17.177734 9.046875 z "
       transform="translate(0,1022.3622)"
       id="path822" />
  </g>
</svg>
